<?xml version="1.0" standalone="no"?>
<!DOCTYPE svg PUBLIC "-//W3C//DTD SVG 1.1//EN" "http://www.w3.org/Graphics/SVG/1.1/DTD/svg11.dtd" >
<svg xmlns="http://www.w3.org/2000/svg" xmlns:xlink="http://www.w3.org/1999/xlink" version="1.1">
<metadata>
Created by FontForge 20150318 at Mon Nov 30 10:03:47 2015
 By uniteet7
Created by User's name with Font.My (http://font.my)
</metadata>
<defs>
<font id="cheeseusauceu" horiz-adv-x="486" >
  <font-face 
    font-family="cheeseusauceu"
    font-weight="500"
    font-stretch="normal"
    units-per-em="1000"
    panose-1="2 0 6 3 0 0 0 0 0 0"
    ascent="800"
    descent="-200"
    x-height="490"
    cap-height="639"
    bbox="-368.444 -277.143 876.067 870"
    underline-thickness="50"
    underline-position="-100"
    unicode-range="U+0020-201D"
  />
<missing-glyph horiz-adv-x="364" 
d="M33 0v666h265v-666h-265zM66 33h199v600h-199v-600z" />
    <glyph glyph-name=".notdef" horiz-adv-x="364" 
d="M33 0v666h265v-666h-265zM66 33h199v600h-199v-600z" />
    <glyph glyph-name=".null" horiz-adv-x="0" 
 />
    <glyph glyph-name="nonmarkingreturn" horiz-adv-x="333" 
 />
    <glyph glyph-name="space" unicode=" " horiz-adv-x="438" 
 />
    <glyph glyph-name="exclam" unicode="!" horiz-adv-x="200" 
d="M75.5 85.5q14.5 14.5 35 14.5t35.5 -15l3 -3q14 -14 14 -34.5t-14.5 -35t-35 -14.5t-34.5 14l-3 3q-15 15 -15 35.5t14.5 35zM91 668q20 3 36.5 -9t19.5 -32l2 -9q2 -15 1 -29q-1 -10 -2 -17v-13v-21q0 -12 -2 -26q-1 -9 -2 -23v-21q1 -11 1 -29v-43v-20q-1 -9 -1 -17
v-13q1 -11 0 -20q0 -12 -1 -25q-2 -9 -3 -18q0 -7 -1 -17.5t-1 -17.5q0 -11 -1 -20v-8v-7q0 -20 -14.5 -34.5t-35 -14.5t-35 14.5t-14.5 34.5v7q0 9 1 18v10q0 9 1 22.5t2 24.5q1 9 3 19v12v15v21q0 9 1 19v15v43v22q-1 12 -1 31q1 19 3 32q1 8 1 15v20q0 14 1 23q0 6 1 14
v7l-2 9q-3 20 9.5 36.5t32.5 19.5z" />
    <glyph glyph-name="quotedbl" unicode="&#x22;" horiz-adv-x="310" 
d="M233.5 647.5q19.5 -4.5 31 -22t6.5 -37.5l-2 -10q-2 -8 -3 -15q-1 -6 -3 -19q-1 -8 -1 -12v-14q0 -9 -1 -18l-2 -14q-1 -5 -1 -10q-1 -10 -3 -20l-1 -7q-4 -19 -21.5 -30.5t-37 -7.5t-31 21t-7.5 37l1 7q1 4 1 7l2 16q1 6 1 11q1 4 1 8v14q0 11 2 28q2 13 4 20q1 9 3 20
l3 10q4 19 21.5 30.5t37 7zM115 655q19 -7 28 -25.5t2 -37.5l-3 -10q-2 -5 -3 -9t-1 -9v-23q-1 -10 -1 -15v-48q0 -20 -14.5 -35t-35 -15t-35 15t-14.5 35v48q0 9 1 21v17q0 13 2.5 26t6.5 26l4 9q7 19 25.5 28t37.5 2z" />
    <glyph glyph-name="numbersign" unicode="#" horiz-adv-x="589" 
d="M38 196q-2 20 11.5 36t33.5 18l8 1q10 1 33 1q20 1 52 1v26v30q1 5 1 10q-10 0 -17 1l-12 1q-20 1 -33.5 16.5t-12.5 35.5t16.5 34t35.5 12h12q5 -1 16 -1v38q0 7 -1 14q0 3 -1 7l-2 9q-5 20 5.5 38t30 23t37.5 -6t23 -30l2 -9q3 -14 4 -27q1 -9 1 -19v-35q6 1 13 1
q29 2 45 3v78q0 20 14.5 34.5t34.5 14.5t35 -14.5t15 -34.5v-81q12 0 28 -2t25 -2h11q20 0 35 -14.5t15 -35t-15 -35t-35 -14.5h-11q-15 0 -35 2q-11 1 -18 2q0 -5 -1 -9v-31q-1 -20 -1 -31v-18q11 -1 25 -2h6l5 1q20 6 38 -4t23.5 -29.5t-4.5 -37.5t-30 -24l-7 -2
q-16 -4 -39 -3q-11 1 -21 2v-13v-14q0 -9 -2 -26q-1 -14 -2 -26l-1 -12q-2 -20 -18 -33.5t-36 -11.5t-33.5 17.5t-11.5 35.5l1 13q1 13 3 28q1 12 1 15v14q0 9 1 26h-3q-18 2 -51 5h-8v-6q-2 -20 -3 -29q-1 -7 -1 -16q-1 -7 -1 -12l2 -6q7 -18 -1 -37t-27 -26.5t-38 1
t-26 27.5l-3 7q-6 15 -6 32q0 9 1 21t2 21q1 7 2 24q-28 0 -46 -1q-20 0 -27 -1l-8 -1q-20 -2 -36 11.5t-18 33.5zM339 326q-16 -1 -39 -2q-13 -1 -24 -2q0 -8 -1 -16v-27v-27q6 0 12 -1q30 -2 50 -4v5q0 12 1 33v31q1 4 1 10z" />
    <glyph glyph-name="dollar" unicode="$" 
d="M265 763q20 0 34.5 -14.5t14.5 -34.5v-11q0 -14 -1 -24t-4 -21q-1 -4 -1 -8v-5q4 -1 9 -2q18 -6 34 -14q17 -9 28 -20q9 -8 17 -17q10 -10 19 -25q11 -16 16 -31l8 -20q4 -14 7 -27l2 -10q3 -20 -8.5 -37t-31.5 -20.5t-37 8t-21 31.5l-2 10q-1 6 -3 12q-3 9 -7 19
q-1 4 -6 11q-5 8 -9 12q-5 6 -10 11l-9 6q-7 3 -15 6q-12 3 -23 6q-9 2 -17 3h-3q-7 -3 -17 -8q-9 -5 -16 -9q-5 -3 -9 -7q-4 -2 -10 -11q-9 -10 -14 -18q-2 -3 -3 -7q-3 -11 -5 -18q-1 -5 -1 -9v-14q0 -7 1 -11q2 -9 4 -17q1 -5 3 -9q1 -3 3.5 -7.5t9.5 -11.5q7 -8 16 -16
q10 -9 16 -13q4 -4 12 -8q10 -6 19 -12q5 -3 11 -5q10 -4 21 -8q10 -4 21 -8q10 -4 17 -6q12 -4 21 -9q7 -3 13 -6q7 -4 19 -10q23 -12 35 -30q5 -8 10 -15q9 -13 14 -28q4 -12 7 -23t4 -22q1 -12 0 -24q-1 -9 -2 -19q-2 -13 -6 -25q-3 -9 -8 -19t-11 -20q-10 -15 -25 -26
q-9 -7 -18 -13t-20 -14q-19 -12 -35 -16l-14 -4v-13q0 -12 -2 -23l-1 -8q-2 -20 -18.5 -33t-36.5 -10.5t-32.5 19t-10.5 36.5l1 8q1 5 1 11v16l-14 4q-12 3 -25 8q-15 6 -26 13q-5 3 -11 6q-14 7 -28.5 19t-26.5 29q-12 16 -17 27q-2 4 -9 15l-8 14q-10 17 -5.5 37t22 30.5
t37.5 5.5t31 -22l8 -14q8 -14 13 -23q2 -4 7 -11q6 -8 11 -12t9 -6q11 -6 21 -12q3 -2 8 -4q8 -3 15 -5q10 -2 20 -5q5 -2 8 -2q5 0 11 -1q7 1 13 0l10 2l14 4q2 1 5 2q10 8 19 13q8 6 15 11q0 1 1 1q3 5 5 9q2 5 4 9q0 1 1 4q0 7 1 14v8q0 4 -1 8q-2 6 -4 13q-1 3 -3 5
q-4 6 -9 13q-11 6 -17 9l-12 6q-4 2 -9 4l-21 7q-10 4 -21 8q-10 4 -21 8q-15 6 -28 14q-8 5 -18 11q-13 8 -22 15q-8 6 -21 17q-13 12 -25 25q-12 14 -18 25q-7 11 -12 22q-4 11 -7 23l-4 18q-3 13 -4 29v24q1 12 4 25q2 9 5 21q5 19 16 36q8 12 20 26q13 16 23 25
q11 9 22 16q10 6 22 12q11 5 17 8q4 2 7 4q1 5 1 10q1 11 4 23q1 5 1.5 8.5t0.5 12.5v11q0 20 15 34.5t35 14.5z" />
    <glyph glyph-name="percent" unicode="%" horiz-adv-x="614" 
d="M527 245q16 -13 26 -28t18 -37q10 -29 3 -57q-5 -22 -13 -36q-8 -13 -20 -26q-11 -11 -24 -22q-17 -12 -31 -17q-12 -5 -26 -7q-17 -3 -34 0q-20 4 -38 18q-14 11 -26 27q-13 18 -19 36q-5 14 -7 30q-3 19 -2 33q1 10 4 23q4 15 12 31q11 18 27 31q13 10 27 18
q17 8 34 11q13 1 30 1h13q15 0 27 -8t19 -21zM456 175h-3l-4 -2q-6 -3 -10 -6l-3 -3q-2 -4 -2 -6q-1 -4 -2 -7q0 -3 1 -9q2 -8 4 -15q1 -3 5 -8l4 -6q3 1 5 1q2 1 6 4q7 6 12 11q4 4 6 7t3 10v2q-3 8 -6 13l-7 7zM165 33q-8 -10 -11 -16l-4 -8q-11 -17 -31 -22t-37 5
t-22.5 30t4.5 38l5 7q5 9 12 20q5 6 8 11q4 7 12 23q10 18 16 28q6 9 18 28t17 27q6 10 21 32.5t24.5 36.5t19.5 27q9 13 18 24q7 10 20 32q15 25 24 36q6 10 11 18l14 22q7 10 23 32q15 21 28 40q13 20 18 27q5 9 11.5 18.5t20.5 30.5q1 2 5 8t5 8t5 7t7 7.5t8 6t11 6.5
l7 4q18 9 38 2.5t29 -24.5t3 -37.5t-24 -28.5l-3 -2q-4 -4 -9 -11q-14 -22 -20 -31t-11 -17t-19 -29t-30 -43q-14 -20 -21 -29q-6 -9 -11 -18q-7 -11 -15 -23q-7 -10 -21 -32q-15 -25 -25 -38q-8 -11 -17 -25q-10 -12 -18.5 -24.5t-22.5 -34t-20 -30.5t-18.5 -28.5
t-17.5 -27.5l-12 -21q-8 -17 -12 -24q-5 -9 -11 -18zM145 539q0 -1 -1 -1q-3 -4 -4 -6q-2 -4 -3 -7v-5q1 -10 1 -18q0 -1 1 -3l6 -12q0 -1 2 -2q2 -2 4 -3l1 -1q3 1 8 2q3 0 8 3l4 2q3 3 5 6q2 4 4 7q1 2 1 3v5l-3 3l-8 6l-9 5q-10 6 -17 16zM281 516q0 -14 -1 -25
q-2 -13 -8 -29q-6 -14 -14 -25t-17 -20q-13 -12 -32 -21q-18 -8 -32 -11l-16 -2q-17 -3 -34 2q-13 4 -24 10q-12 7 -24 17q-11 11 -19 23q-6 10 -12 26q-9 21 -9 38q0 5 -1 15q-1 21 4 37q3 13 9 25q7 14 19 27q13 15 28 23q13 8 25 12q7 2 16 5q12 3 25 3l7 1
q19 1 34.5 -12t17.5 -33q12 -7 22 -16q14 -12 23 -28q12 -20 13 -42z" />
    <glyph glyph-name="ampersand" unicode="&#x26;" horiz-adv-x="575" 
d="M291 193q-8 11 -12 17q-6 9 -20 29q-15 24 -23 39q-7 13 -12 27q-3 6 -8 15q-3 -2 -7 -5q-13 -9 -16 -12l-20 -20q-10 -9 -15 -14q-2 -4 -7 -13l-10 -20q-1 -3 -2 -12q-2 -10 -2 -14q0 -5 1 -13q1 -5 2 -8q2 -5 7 -13t14 -19q4 -5 10 -8q13 -5 18 -7q6 -2 16 -4
q2 -1 4 -1q4 1 11 3q13 3 19 6q4 2 10 7q12 9 19 15q6 5 21 22q0 1 1 2zM259 457l12 10q10 7 15 14q8 11 10 15q3 4 9 18q6 15 9 23q1 5 2 15q2 15 1 27q-1 5 -2 9q-8 -2 -15 -4q-5 -1 -8 -2q-4 -2 -11 -8q-5 -4 -7 -8q-6 -9 -15 -25q-7 -12 -9 -18q-1 -3 -1 -8
q-1 -12 -1 -19q0 -4 2 -11q2 -10 3 -14q2 -4 6 -14zM358 270l25 29q13 15 33.5 17t36 -11t17 -33.5t-11.5 -36.5l-27 -32l-10 -12q7 -7 11 -12q6 -8 17 -21q9 -12 14 -18l4 -4q9 -6 23 -16q10 -8 13 -10l8 -4q18 -9 24.5 -28.5t-3 -37.5t-29 -24.5t-37.5 2.5l-8 4
q-11 6 -28 19q-13 10 -20 15q-14 9 -23 21q-6 7 -16 20q-9 11 -14 17l-2 2q-13 -15 -21 -22q-10 -9 -25 -20q-19 -15 -33 -20q-9 -4 -28 -9q-23 -7 -37 -7q-14 -1 -32 4q-12 3 -19 5q-9 3 -29 12q-27 12 -46 35q-14 16 -23 31q-8 14 -12 23q-6 13 -9 35q-3 19 -3 29t3 27
q3 19 8 33q4 10 13 28q11 22 21 34q7 8 22 22q12 11 18 17q9 9 29 23q11 8 20 13q-3 5 -4 10q-5 11 -8 19q-4 10 -7 27q-4 18 -4 31q0 10 1 26q1 21 7 36q5 12 16 32q10 17 17 30q12 17 29 31q15 11 25 17q12 7 29 12q16 4 33 6q28 4 54 -9t41 -40q12 -22 14 -49
q2 -21 0 -46q-3 -27 -9 -42q-3 -8 -11 -25q-8 -19 -12 -27q-5 -9 -16 -24q-13 -19 -36 -36q-13 -11 -28 -20q8 -15 12.5 -25.5t9.5 -20.5q4 -10 16 -27q11 -16 17 -25z" />
    <glyph glyph-name="quotesingle" unicode="'" horiz-adv-x="187" 
d="M106 652q20 -3 32.5 -19t10.5 -36l-2 -11q-1 -13 -3 -23q-1 -3 -1 -8q-1 -11 -1 -22q-1 -9 -2 -16q-1 -8 -3 -18v-4v-6q-1 -20 -16 -34.5t-35 -14t-34.5 16t-13.5 35.5v6l2 20q1 5 2 9q0 6 1 14q0 8 1 16q0 15 3 28q1 6 2 14l2 10q2 20 18.5 33t36.5 10z" />
    <glyph glyph-name="parenleft" unicode="(" horiz-adv-x="339" 
d="M294 701q11 -17 6.5 -37t-21.5 -31l-7 -5q-4 -2 -12 -9q-6 -7 -9 -10q-4 -6 -14 -20t-18 -26t-17 -25q-7 -10 -12 -19q-6 -12 -13 -25q-7 -11 -9 -16l-4 -10q-3 -6 -7 -17q-3 -8 -5 -18q-3 -11 -5 -21q-2 -12 -4 -23q-2 -9 -4 -23q-2 -12 -2 -20v-11q1 -9 1 -17v-26
q0 -15 1 -19q0 -6 1 -10q1 -7 2 -13q1 -7 3 -22q2 -14 4 -26t4 -25l3 -18t5 -18q3 -12 7 -25q4 -14 8 -26l6 -22l8 -20t9 -22q4 -11 10 -22q4 -11 10 -24q4 -10 12 -23q7 -15 13 -23q5 -10 10 -21q2 -3 6 -8q6 -8 11 -14q8 -10 14 -20l5 -8q11 -17 6.5 -37t-21.5 -31
t-37 -6.5t-31 21.5l-5 8l-8 10q-6 8 -13 17q-9 12 -15 24q-4 8 -8 15q-6 10 -14 25q-9 17 -15 31q-2 3 -11 23q-6 13 -11 25q-4 11 -9 23t-10 26q-4 13 -8 27q-3 11 -7 23l-8 28t-6 24q-2 8 -4 22t-4 25q-2 13 -4 29q-2 13 -3 19l-2 12q-1 8 -2 15q-1 10 -1 31v25v8
q-1 10 -1 24q1 14 3 31q2 16 4 27t5 23q2 14 6 28q4 15 9 28q4 11 6 17q3 8 7 17q4 8 13 23q6 12 12 23q8 14 18 28l16 24q8 13 19 28l15 21q7 10 21 24q15 13 26 21l8 4q17 11 37 6.5t31 -21.5z" />
    <glyph glyph-name="parenright" unicode=")" horiz-adv-x="319" 
d="M206 -97q-9 -15 -14 -25q-8 -14 -18 -27q-8 -9 -16 -19t-13 -17q-7 -8 -15 -16l-6 -7q-14 -15 -34.5 -16t-35.5 13t-16 34.5t13 35.5l7 7l10 12q5 7 13 16l16 20q5 6 9 13q6 11 15 26q4 8 8 14q4 7 9 18q5 12 12 29q7 16 8 21q2 4 5 15q2 11 4 21q2 11 4 24t4 25
q2 11 3 20q2 11 3 17q0 1 0.5 5t1.5 8v11v23q0 9 -1 26q0 16 -1 26q-2 12 -3 24q-2 11 -3 23q-2 14 -4 25q-1 10 -4 26t-5 29q-2 10 -4 22q-2 10 -4 18q-2 10 -5 19q-3 10 -7 21q-2 8 -6 18t-9 19q-7 15 -9 20q-4 9 -9 19l-10 22q-6 12 -11 25q-5 11 -7 16q-2 4 -9 16
q-8 14 -13 22q-7 11 -11 22l-2 7q-8 18 0 37t27 26.5t38 -0.5t27 -27l2 -6q1 -4 4 -8q5 -8 14 -23q9 -16 13 -25q3 -7 9 -19q4 -11 9 -21q5 -11 9 -21l10 -20q8 -18 9 -20q5 -11 10 -24q6 -12 10 -25q3 -11 7 -22q3 -11 6 -23q3 -13 6 -27q2 -11 3 -20q3 -14 6 -30
q3 -18 4 -30q2 -11 4 -23q2 -14 3 -27q1 -12 3 -23q1 -14 2 -34q1 -19 1 -30v-23q0 -16 -2 -27q-1 -6 -2 -12.5t-2 -14.5q-1 -11 -3 -23q-2 -10 -4 -24l-4 -26l-6 -28q-4 -14 -6 -22q-3 -8 -11 -27t-14 -33t-13 -25z" />
    <glyph glyph-name="asterisk" unicode="*" horiz-adv-x="354" 
d="M43.5 393.5q9.5 17.5 29.5 23.5t38 -4l8 -4q6 -3 11 -6v21q0 16 6 32l2 7q7 19 26 27.5t38 1.5t27.5 -25.5t1.5 -37.5l-2 -7v-15q5 3 10 5l6 4q18 9 38 2.5t29 -25t2.5 -38t-24.5 -28.5l-7 -3q-6 -3 -12 -7q-7 -3 -16 -8q-2 -2 -4 -3l6 -8q6 -7 12 -14.5t13 -14.5l6 -8
q13 -16 11.5 -36.5t-17 -33.5t-36 -11t-33.5 17l-7 8q-7 8 -13 15t-13 16l-8 10h-1q-7 -7 -11 -12q-5 -7 -7 -11q-4 -5 -7 -10l-3 -7q-10 -17 -30 -23t-37.5 4t-23.5 30t4 38l4 6q4 8 9 15q5 8 13 18q5 8 13 15q-4 2 -7 4q-8 4 -16 9l-8 4q-18 10 -24 30t3.5 37.5z" />
    <glyph glyph-name="plus" unicode="+" horiz-adv-x="571" 
d="M38 304.5q-1 20.5 12.5 36t33.5 16.5l11 1h22q10 0 29 -1q14 -1 21 -1q10 0 19.5 0.5t18.5 1.5h17v6q1 16 1 25q1 6 1 12v13v14q0 9 1 24q1 16 2 22q0 8 1 19l2 20v10q2 21 17.5 34.5t35.5 12t34 -17t12 -35.5v-10q-1 -12 -2 -23q-1 -9 -1 -16q-1 -7 -2 -23
q-1 -13 -1 -18v-13v-13q0 -9 -1 -18q0 -7 -1 -20v-1q6 1 11 1q7 0 13 1q12 1 27 1q11 0 22 1q13 1 26 0q8 -1 13 -1h13q5 0 10 1q15 1 30 -2l8 -2q20 -4 31.5 -21.5t7.5 -37t-21.5 -31t-37.5 -7.5l-8 2h-1q-10 -1 -19 -1h-13q-8 0 -20 1h-14q-13 -1 -27 -1h-15
q-11 -2 -21 -2q-8 0 -15 -1h-2v-15q-1 -8 -1 -22v-54v-25q-1 -7 -1 -16v-20q-1 -8 -1 -14v-7q-1 -20 -16.5 -34t-35.5 -13t-34 16t-13 36v7q0 6 1 14v15q0 13 1 23q1 8 1 18v54v26v7h-8q-10 -1 -21 -1.5t-22 -0.5q-12 0 -31 1q-15 1 -21 1h-15l-11 -1q-21 -1 -36.5 12.5
t-16.5 34z" />
    <glyph glyph-name="comma" unicode="," horiz-adv-x="254" 
d="M38 53q0 29 17 49q15 18 38 24q8 3 14 4l4 2q30 15 55 -6l8 -6q13 -11 23 -25.5t14 -29.5q6 -17 5 -33q0 -14 -4 -27q-3 -13 -9 -26q-5 -9 -8 -16q-4 -8 -13 -21q-6 -10 -11 -17q-3 -5 -5 -10l-8 -16q-1 -1 -1 -3l-2 -6q-5 -19 -22.5 -29.5t-37.5 -5.5t-30.5 23t-4.5 37
l1 6q3 12 9 24q4 6 7 12q4 10 11 20l4 8q-22 7 -36 24q-16 19 -18 44z" />
    <glyph glyph-name="hyphen" unicode="-" horiz-adv-x="425" 
d="M46.5 226q-11.5 17 -7.5 37t21 31l8 6q18 13 40 14q10 1 20 1q7 0 17 1q9 0 22 1q15 2 29 2q11 0 23 1q13 1 26 1q16 0 30 -3q5 -1 9 0h17h14q20 0 37 -8l7 -4q18 -8 25 -27.5t-1.5 -38t-28 -25.5t-37.5 2l-5 2h-11h-14q-12 -1 -27 1q-8 2 -15 2q-10 0 -18 -1
q-17 -1 -29 -1q-11 0 -22 -1q-15 -1 -25 -2q-12 -1 -22 -1h-9l-5 -4q-17 -11 -37 -7t-31.5 21z" />
    <glyph glyph-name="period" unicode="." horiz-adv-x="177" 
d="M52.5 96q14.5 14 35 14t34.5 -14l3 -3q15 -14 15 -35t-14.5 -35t-35 -14t-35.5 14l-3 3q-14 14 -14 35t14.5 35z" />
    <glyph glyph-name="slash" unicode="/" horiz-adv-x="417" 
d="M346 672.5q19 -6.5 28 -25t3 -37.5l-4 -11q-3 -10 -5 -16q-3 -7 -7 -22q-5 -14 -6 -20q-3 -11 -6 -21q-3 -8 -6 -17q-3 -7 -8 -24q-6 -19 -9 -27q-3 -6 -5 -14q-4 -10 -11 -27l-9 -21t-6 -14.5t-7 -20.5q-4 -14 -8 -23l-6 -16q-3 -6 -7 -19t-6 -20q-3 -8 -5 -17
q-3 -9 -11 -29q-7 -17 -10 -26t-9 -24t-8 -21q-3 -7 -5 -15q-3 -9 -8 -25q-6 -18 -10 -27q-2 -6 -4 -11t-6 -19q-5 -17 -9 -27q-3 -9 -9 -22q-5 -13 -9 -24q-5 -10 -9 -21t-7 -18q-2 -7 -6 -15l-3 -7q-8 -19 -27 -26.5t-38 0t-26.5 27t0.5 37.5l3 8q3 7 5.5 13t6.5 16
q4 11 9 23q4 11 9 24q5 12 8 20q3 6 7 20q5 18 8 26q3 7 6 15q2 5 7 19q5 16 8 24q3 9 5 17l9 24l9 24q4 9 11 27q6 16 8 23l4 14q3 9 8 24.5t9 24.5l6 14q2 7 6 20q5 13 9 23q3 10 6 17q3 8 10 24q6 13 8 19q3 9 6 16l8 24q6 19 9 28q3 7 5 14q2 5 4 11q2 11 7 27t7 23
q3 7 6 18l4 11q6 19 25 28t38 2.5z" />
    <glyph glyph-name="zero" unicode="0" horiz-adv-x="506" 
d="M305 565q-14 -2 -25 4l-7 3q-1 0 -3 0.5t-5 -0.5q-10 -1 -19.5 -3t-20.5 -4q-7 -2 -12 -4q-6 -2 -13 -7l-16 -12q-8 -7 -13 -12q-3 -3 -3 -4q-3 -5 -7 -12q-4 -9 -7 -16q-2 -7 -5 -16t-5 -19q-2 -7 -3 -18q-2 -11 -2 -20v-26q-1 -5 -1 -17q-1 -6 -1 -18v-18q1 -12 1 -23
v-33q0 -9 1 -16q0 -8 2 -19q1 -14 2 -25q0 -6 2 -11q1 -9 4 -20t5 -21q1 -6 5 -17q6 -15 9 -24q2 -7 4 -13l4 -8l6 -12q2 -2 6 -5q8 -8 14 -12q3 -3 7 -4q2 -1 9 -2q9 -2 12 -2h28q2 0 5 1q12 2 25 2q2 0 4 1l16 4q2 0 4 1q3 2 7 5l10 8l8 10t8 14q2 3 3 5q2 10 6 21
q2 3 4 10q2 11 3.5 18t3 13t3.5 17q1 5 1 7v14q-1 9 0 21v10q-3 13 -3 24v19v18q0 5 -1 10q-1 10 -1 18v15v17q-1 10 -2 16q-1 8 -2 19l-2 22q0 11 -1 20q-1 8 -1 12q-1 6 -2 11q-1 4 -3 9q-2 6 -5 14q-3 9 -6 15q-2 5 -5 10t-8 12t-11 14q-5 5 -10 8zM308 664l11 -1
q22 -3 41 -16q15 -10 28 -24q11 -11 20 -24l14 -21l8 -18q4 -7 8 -18q5 -12 8 -21q3 -10 5 -19q1 -7 2 -15q2 -9 3 -21q0 -9 1 -20q1 -10 2 -19q1 -10 1 -17q2 -9 2.5 -21.5t0.5 -23.5v-15q0 -4 1 -9q1 -9 1 -19v-18v-15q0 -5 1 -13q3 -16 2 -32q-1 -7 -1 -11q1 -6 1 -13
q1 -13 -3 -31q-2 -11 -4 -18q-1 -6 -2.5 -14t-4.5 -19q-4 -15 -8 -25q-1 -2 -2 -7q-3 -13 -12 -30q-8 -13 -16 -24q-9 -12 -17 -21q-9 -9 -20 -17t-22 -14q-11 -5 -24 -9q-7 -2 -15 -4q-14 -4 -30 -4h-7q-12 -3 -23 -3h-28q-10 0 -27 3q-19 3 -34 9q-14 6 -26 15
q-10 8 -22 19q-15 14 -23 26q-4 8 -9 16q-6 10 -10 21l-6 18q-2 7 -7 20q-6 17 -9 30q-2 9 -4 20q-3 11 -5 21q-3 12 -4 25q0 9 -2 20q-1 14 -2 24q-1 11 -1 23v33v16q-1 12 -1 28q0 13 1 21q0 6 1 17v19q0 15 2 32q2 18 6 32q3 12 7 24q3 12 7 22t10 21q5 13 11 22
q7 11 18 22q8 9 19 18q12 10 25 19q14 10 27 15q14 7 31 10q12 3 25 6q12 2 25 3q18 3 33 0q11 -2 22 -6z" />
    <glyph glyph-name="one" unicode="1" horiz-adv-x="285" 
d="M48.5 436.5q-12.5 15.5 -10 36.5t18.5 33l8 7q8 7 14 12t12 11q5 4 8 9q5 6 11 14q6 9 12 17q5 7 9 14q3 4 4 7q3 10 7 18q1 1 1 3q5 23 29 26t46.5 -7t24.5 -19q3 -12 4 -22q1 -11 1 -21t-1 -21q-1 -9 -1 -18q-1 -10 -2 -18q0 -5 -1 -15t-1 -15v-21q-1 -13 -2 -21
q-1 -6 -2 -18q-1 -9 -1 -12q0 -8 -1 -21q0 -12 -1 -23q-1 -10 -1 -20v-54q0 -18 1 -28q0 -11 0.5 -18t0.5 -19v-12q1 -10 0 -24v-10q1 -14 1 -26q0 -8 1 -22v-26v-32v-17q-1 -6 -2 -13l-1 -7q-2 -20 -18 -32.5t-36.5 -10.5t-33 18.5t-10.5 36.5l1 6q0 6 1 12v7v32v22
q-1 15 -1 26q0 9 -1 20q0 16 1 27v2q-1 9 -1 23v16q-1 7 -1 17q-1 12 -1 32v54q0 13 1 26q0 5 1 22q1 11 1 16q0 9 2 23q0 4 1 8q-7 -6 -14 -11l-9 -7q-16 -13 -36.5 -10.5t-33 18z" />
    <glyph glyph-name="two" unicode="2" horiz-adv-x="549" 
d="M69 426.5q-19 7.5 -27 26.5t-1 38l3 7q2 5 3 9q3 10 9 23q6 15 16 29l16 24q10 12 20 25q12 13 27 29q21 20 40 29q14 7 28 12l24 8q14 4 31 7q18 3 33 2q17 -1 40 -8q22 -7 42 -19q22 -13 33 -28q7 -10 15 -22q9 -13 17 -32q10 -20 13 -36q2 -11 4 -24q2 -15 3 -26
q1 -14 0 -30q-1 -14 -4 -26q-2 -13 -7 -26q-3 -10 -8 -21q-6 -17 -15 -30q-7 -11 -16 -23q-8 -9 -15 -18q-9 -10 -20 -20q-10 -10 -20 -19q-7 -6 -12 -13l-14 -16q-9 -12 -19 -23q-7 -7 -12 -14q-7 -10 -17 -24t-17 -23q-6 -8 -11 -16q-4 -6 -9 -16q-6 -14 -11 -23
q-5 -11 -10 -19q-1 -2 -3 -5q10 1 22 2q17 1 35 2q15 0 28 1q15 1 26 2q14 2 27 2h26h22h11q10 1 22 1h1l8 3q19 7 38 -2t25.5 -28t-2.5 -38t-28 -25l-8 -3q-17 -6 -34 -6h-13q-10 -1 -20 -1h-22h-25q-8 0 -18 -1q-13 -2 -28 -3q-17 -1 -34 -1q-14 -1 -29 -2q-16 -1 -27 -2
q-13 -2 -25 -3q-12 0 -25 -1q-2 0 -5 -1h-5.5t-14 1t-18 3t-18.5 6.5t-15 11.5t-7 18t5 26q3 8 8 19q4 9 10 20q5 10 8 18q3 6 5 12q4 11 10 22q4 7 8 15l11 22q8 16 16 28q7 10 13 20q7 8 16.5 21.5t17.5 24.5q9 12 17 20q10 12 15 19q9 10 17 20q10 12 22 23q9 7 17 16
q8 7 14 14t13 16q6 7 10 14q3 4 6 11q4 11 7 19q2 6 3 12q1 7 2 16q1 7 1 13q-1 7 -3 18q-2 12 -3 21q-1 4 -6 14q-5 12 -10 19q-5 9 -10 15q-2 2 -7 5q-9 5 -19 9q-11 3 -15 3q-6 0 -14 -1q-10 -1 -17 -4q-9 -3 -20 -6q-8 -3 -18 -8q-4 -2 -13 -11q-13 -12 -21 -22
q-9 -10 -16 -20l-14 -20q-4 -7 -7 -13q-4 -8 -5 -12q-2 -9 -6 -18l-3 -6q-7 -19 -26 -27.5t-38 -1z" />
    <glyph glyph-name="three" unicode="3" 
d="M69.5 478q-18.5 8 -26 27t0.5 38l4 9q6 13 14 27t25 33q18 21 35 33q13 9 28 18q18 11 28 15q14 5 39 7q17 1 30 2q16 1 34 -2q20 -3 37 -10q16 -7 29 -16q12 -8 21 -18q11 -11 23 -29q11 -17 16 -31q3 -9 7 -19q5 -13 8 -26q3 -14 4 -31v-18q0 -9 -2 -24q-1 -17 -4 -29
q-3 -17 -10 -30q-6 -12 -14.5 -24t-18.5 -23q-3 -2 -5 -4q13 -10 22 -19l16 -16q9 -11 16 -24q6 -11 12 -28q5 -15 7 -25q4 -14 4 -28q0 -12 -2 -27t-5 -26q-2 -10 -6 -20q-3 -9 -8 -22q-7 -16 -13 -25q-5 -8 -12 -18q-11 -15 -27 -28q-14 -10 -30 -20q-15 -8 -32 -17
q-20 -9 -41 -14q-19 -4 -33 -5q-12 -2 -24 -3q-20 -1 -44 5q-25 6 -45 19q-11 8 -20 14q-16 12 -33 36q-15 21 -21 35q-4 9 -8 17l-3 9q-8 18 0 37.5t26.5 27t37.5 0t27 -26.5l4 -8q3 -8 7 -17q2 -5 11 -17l9 -12q9 -7 20 -14q4 -2 11 -4q9 -2 12 -2l22 2q9 1 23 4
q11 3 20 7l24 12q10 6 19 13q6 5 8 9q6 7 9 12q2 3 4 10q5 10 7 16t3 12q2 5 3 14t1 14v3q-2 7 -6 19q-4 10 -6 14q-1 3 -3 5q-5 6 -10 10q-3 4 -8 7q-4 3 -15 8q-11 4 -24 7q-10 2 -14 3q-10 0 -28 2q-16 2 -27 3l-5.5 16.5t-9 32t-3 36t14.5 14.5q4 0 12 1q11 2 17 2l14 2
l16 4q9 2 15 5q4 2 11 7q10 8 15 14q5 4 9 10t6 11q1 2 2 5q2 7 3 19t1 16v16q0 5 -1 10q-2 5 -4 12q-4 11 -8 20q-2 5 -7 14q-6 8 -9 11q-4 4 -9 8q-4 3 -10 5q-5 2 -11 3q-9 1 -16 1q-11 -1 -28 -2q-7 0 -11 -1q-4 -2 -12 -7q-13 -8 -24 -15q-6 -4 -15 -15
q-11 -13 -15 -20q-5 -8 -8 -15l-4 -10q-8 -18 -27.5 -25.5t-38 0.5z" />
    <glyph glyph-name="four" unicode="4" horiz-adv-x="456" 
d="M352 671q20 -4 32 -20.5t8 -36.5l-1 -9q-1 -7 -3 -26q-1 -21 -2 -32q-1 -9 -3 -28q-1 -20 -2 -31t-2 -21t-4 -31q-2 -20 -3 -28q-1 -7 -1 -24v-29v-18t1 -26q1 -19 1 -29v-33q18 -2 31.5 -16t13.5 -33q1 -19 -13 -34t-34 -16v-9q-1 -16 -1 -22q0 -10 -1 -25q0 -15 -1 -27
q-1 -10 -1 -21v-49q0 -21 -14.5 -35.5t-34.5 -14.5t-35 14.5t-15 35.5v49q0 14 1 27q1 11 1 25q1 13 1 21q0 9 1 26q-10 -1 -28 -2q-24 -1 -35 -1h-21h-73q-17 0 -38 8q-5 2 -12 7.5t-16 16t-10.5 23.5t4.5 30q4 8 11 20q6 12 13 24t15 23q7 12 11 19q4 6 13 22q9 17 13 25
q4 9 9 17l8 14q4 8 9 17q5 11 12 22q5 8 11 16q5 8 13 24q10 18 21 37q10 17 19 35q11 20 15 28q4 7 7 14q4 7 11 21q8 15 12 24l5 8q14 25 44 25q17 12 37 9zM274 244v38q0 8 -1 26q-1 19 -1 28v20v28q0 21 1 32q1 7 2 20q-3 -6 -7 -13q-10 -18 -16 -29q-6 -9 -12 -19
q-4 -7 -8 -13q-4 -8 -8 -15q-4 -9 -9 -18q-4 -7 -8 -15q-5 -9 -14 -26q-10 -19 -16 -27q-4 -8 -12 -20h23h21q8 0 29 1q22 1 31 2h5z" />
    <glyph glyph-name="five" unicode="5" horiz-adv-x="504" 
d="M147 546q0 -2 -1 -5q-3 -19 -5 -31q-2 -10 -4 -18v-7q0 -9 1 -14q2 -10 2 -20q0 -4 1 -12q6 -4 14 -7q6 -2 14 -3q11 -2 18 -3q3 0 12.5 -0.5t14.5 0.5q7 1 15 2q9 1 23 2q17 2 27 2h12q9 0 26 -2q20 -2 38 -9q16 -6 32 -17q13 -9 27 -21q16 -15 27 -34q10 -17 15 -32
t8 -39q2 -22 2 -32.5t-1 -20.5q-1 -9 -4 -24q-4 -18 -10 -34q-6 -15 -14 -29q-7 -13 -15 -24q-7 -10 -13 -18q-8 -11 -18 -21q-11 -11 -29 -23q-15 -9 -23 -14q-8 -4 -23 -12q-17 -10 -28 -14t-22 -6t-27 -3q-17 -1 -30 1l-16 2q-14 2 -33 11q-17 8 -27 16l-7 5
q-16 13 -18.5 33.5t10 36.5t33 18.5t36.5 -10.5l6 -4q3 -2 10 -5q4 -2 7 -3q6 -1 13 -2q3 -1 11 0q9 0 12 1q3 0 7.5 2t15.5 8q14 8 21 11q6 4 19 12q8 5 12 9t8 10q6 7 12 16q6 7 10 16q5 7 8 16q3 8 5 17q2 11 3 17v8.5t-2 20.5q-1 14 -3 19q-1 5 -6 14q-4 6 -10 11
q-8 8 -15 13q-6 4 -11 6t-13 2q-12 2 -16 2h-15q-4 0 -14 -1q-13 -1 -20 -2q-9 -1 -16 -2q-11 -2 -27 -1.5t-27 1.5q-7 1 -20 3q-16 3 -31 9q-13 4 -24 10q-12 6 -22 14q-16 12 -24 30q-6 12 -8 31q-2 15 -2 24q0 4 -1 8q-1 10 -2 25q-1 18 3 32q1 6 3 16t5 27q2 16 2 20
q1 11 3 22l1 7q4 19 21.5 31t36.5 8l8 -2q14 5 38 7q20 1 32 1h28q20 -1 37 -2q15 -1 28 -1q11 0 16 1q6 0 15 2q11 1 18 2q9 1 20 1q17 0 31 -5l6 -2q19 -6 28.5 -24.5t3.5 -37.5t-24.5 -28.5t-38.5 -3.5l-4 2h-1q-7 0 -11 -1q-6 0 -15 -1q-11 -2 -18 -3q-9 -1 -26 -1
q-16 0 -33 1q-16 1 -34 2h-28q-7 0 -22 -1q-7 0 -10 -1l-7 -3q-1 -1 -3 -1z" />
    <glyph glyph-name="six" unicode="6" horiz-adv-x="548" 
d="M197 127l17 -17q5 -5 10 -8q6 -4 10 -5q6 -2 23 -7q7 -2 10 -2q11 1 17 2q4 0 17 4q15 4 21 6q4 1 9 4q8 3 23 10q7 3 12 7q8 6 16 14q6 6 15 17q6 9 10 17q3 9 4 14.5t0 8.5q0 9 -2 21q-1 11 -3 20t-4 15q-3 9 -8 23q-3 8 -5 11t-4 5q-4 3 -11 7q-6 4 -11 5q-9 3 -19 6
q-5 2 -16 2q-13 1 -27 0q-9 0 -14 -1q-4 -1 -8 -3t-13 -7q-8 -5 -19 -16t-15 -18q-5 -9 -8 -16q-4 -13 -7 -21q-1 -3 -2 -5v-8q-1 -10 -1 -20l1 -3q8 -16 2.5 -34t-20.5 -28zM137 294q5 10 10 19q11 18 31 37q18 19 35 30q16 10 27 14q10 4 18 7q12 4 37 5q22 1 40 0
q20 -1 36 -6q12 -3 23 -7q15 -5 31 -14q15 -9 25 -18q11 -10 20 -22q9 -13 16 -33q6 -15 9 -24q5 -13 8 -28t5 -31q1 -14 2 -23q1 -15 -1.5 -31t-9.5 -36q-8 -20 -23 -40q-14 -19 -27 -31q-11 -10 -22 -19q-15 -11 -33 -20q-13 -5 -20 -9q-11 -5 -21 -8q-8 -3 -26 -8
q-20 -5 -30 -6q-9 -2 -22 -3q-21 -1 -47 7q-17 5 -24 7q-11 3 -27 12q-19 10 -35 27l-21 21q-16 16 -24 30q-6 10 -14 25q-7 14 -11 23q-4 8 -6 17q-3 7 -8 24q-6 18 -8 27q-3 9 -5 17q-1 8 -4 27q-3 21 -3 32v16q0 9 0.5 25.5t1.5 25.5t2 16q1 9 4 28q4 19 7 30
q3 10 5.5 20t7.5 24q5 16 8 23q3 9 7 18q6 12 20 32q12 16 21 25q7 8 13 14q8 10 23.5 23t34.5 24q17 11 29 16q12 6 34 11q21 6 35 7q9 0 17 1q12 1 25 0t34 -4q19 -3 26 -4l7 -2q20 -3 31.5 -20t8 -37t-20.5 -32t-37 -8l-7 1l-24 4q-16 3 -23 3h-12q-9 -1 -19 -1
q-5 -1 -16 -4q-13 -3 -18 -5q-6 -3 -19 -10q-12 -8 -22 -16.5t-14 -12.5q-6 -7 -13 -14q-5 -5 -14 -19q-8 -9 -10 -13l-4 -10q-2 -6 -7 -20q-4 -14 -6.5 -22.5t-5.5 -17.5q-2 -7 -5 -22q-2 -15 -3 -19q0 -7 -1 -15q-1 -7 -1.5 -22t-0.5 -21v-7z" />
    <glyph glyph-name="seven" unicode="7" horiz-adv-x="553" 
d="M42.5 578q-8.5 18 -1.5 37.5t26 28.5l8 4q16 7 31 9q8 1 18 1h25q21 0 33 -1l22 -2q12 -1 36 -5q21 -3 29 -4h27h27q10 1 21 2q11 0 30 2q21 1 30 1h15q5 0 15 1h24q21 0 41 -19t17 -45q-3 -23 -21 -43q-4 -4 -9 -11q-7 -14 -17 -29q-9 -13 -14 -22q-5 -8 -17 -29
q-11 -23 -17 -34q-7 -13 -12 -24q-7 -12 -20 -35q-12 -20 -17 -32q-7 -15 -13 -29q-7 -12 -18 -37q-12 -24 -17 -35q-4 -11 -8 -21q-5 -12 -15 -35t-15 -34q-5 -12 -8 -19q-4 -9 -12 -25q-6 -14 -9 -20q-2 -6 -4 -11q-3 -9 -7 -20l-6 -15q-2 -8 -6 -16l-2 -7
q-7 -19 -26 -27.5t-38 -1t-27.5 26.5t-1.5 37l3 7l4 12q3 8 7 20q4 9 6 15q3 9 7 18q3 8 11 25q7 15 10 22q4 8 8.5 19t14.5 33t14 32q4 12 9 24l18 39q12 25 19 39q6 11 12 25q7 16 21 40q12 21 18 32q5 11 11.5 23t18.5 35q12 24 19 35q4 7 10 16q-18 -1 -30 -2l-20 -2
h-34q-24 0 -36 1q-10 1 -35 4q-21 3 -31 4l-20 2q-8 1 -25 1h-25h-6q0 -1 -1 -1l-9 -4q-18 -9 -37.5 -1.5t-28 25.5z" />
    <glyph glyph-name="eight" unicode="8" horiz-adv-x="483" 
d="M243 390q3 1 5 2q14 6 28 11q7 3 10 5q7 4 13.5 9t16.5 14q9 8 15 14q3 4 5 7q1 1 2 4q2 10 4 17q1 1 1 2t-1 2q-1 4 -5 11q-5 9 -9 12q-9 9 -14 13q-6 5 -16 13l-11 9q-16 13 -19 33q-5 0 -11 -0.5t-15 -1.5q-5 -1 -8 -2q-6 -3 -13 -6q-4 -1 -14.5 -7.5t-14.5 -10.5
q-6 -4 -19 -17q-8 -7 -11 -12q-4 -7 -7 -15q-1 -3 -2 -12t0 -14t3.5 -10.5t6.5 -10.5q7 -9 14 -16q5 -6 19 -17q8 -7 12 -10q8 -3 14.5 -6t18.5 -9l0.5 -0.5t1.5 -0.5zM237 285q-3 -1 -5 -2q-9 -3 -16 -7q-8 -3 -13 -6q-7 -5 -22 -14q-12 -7 -17 -11q-6 -4 -14 -12
q-3 -4 -5 -6l-3 -6q-1 -6 -3 -17.5t-2 -15.5v-12q0 -2 1 -6q1 -5 2 -9l7 -14q4 -9 8 -17q2 -3 4 -5q7 -7 21 -22q12 -12 16 -15q3 -3 10 -7q5 -2 8 -3l18 -4q4 -1 7 -1q8 1 28 5q18 4 29 13q17 14 22 19q4 5 10 13q6 9 11 18q2 3 3 6q2 9 3 16q1 6 1 12v9t-1 8q-2 5 -3 10
q-2 3 -4 7q-5 10 -11 20q-2 5 -6 11l-10 10q-6 5 -13 8l-24 12q-8 5 -18 8q-12 4 -19 7zM358 338q9 -6 17 -13q15 -12 25 -26q9 -12 16 -25q4 -8 8 -15q6 -12 11 -23l6 -20q3 -12 4 -23t0 -23q0 -11 -2 -22q-2 -10 -4 -23q-5 -18 -15 -35q-7 -11 -15 -23q-9 -13 -18 -23
q-9 -11 -32 -29q-29 -25 -71 -34q-37 -8 -51 -7q-12 0 -26 3l-18 4q-16 4 -34 13q-15 9 -25 17q-9 7 -26 24q-14 14 -20 21q-11 12 -19 26q-6 10 -11 21q-6 12 -10 22q-5 12 -7 25q-3 14 -3 26v14q0 10 3 28q3 19 7 31q4 14 10 26q8 14 23 29q13 12 23 20q10 7 26 17
q-17 15 -27 25q-9 10 -18 22q-11 14 -18.5 30.5t-10.5 33.5q-4 18 -2 40q2 23 9 40q5 14 13 27q9 17 29 36q15 15 24 22q9 8 27 18q16 10 26 14q8 4 15 6q11 5 28 8q13 3 23 3.5t19 0.5h16q17 0 31 -4l7 -2q17 -5 27 -21t8 -34l3 -2l18 -15q8 -6 18 -16q16 -14 28 -37
q12 -22 16 -36q3 -14 2.5 -27t-3.5 -26q-2 -7 -5 -17q-5 -17 -12 -29q-7 -11 -17 -23q-9 -9 -22 -21q-13 -11 -24 -19z" />
    <glyph glyph-name="nine" unicode="9" horiz-adv-x="513" 
d="M338 636q1 -1 2 -1q12 -6 24 -13q14 -9 26 -20q10 -9 20 -21q13 -15 23 -38q8 -16 15 -33q9 -19 13 -32q5 -14 8 -31q3 -16 5 -27q2 -13 1 -27q0 -12 -2 -27q-3 -13 -4 -22q-2 -10 -3 -20q-2 -12 -5 -23q-2 -13 -7 -26q-3 -8 -6 -17q-4 -12 -14 -34q-11 -21 -20 -36
q-7 -11 -16 -25q-10 -17 -17 -27q-7 -11 -16 -23q-10 -15 -23 -31q-12 -14 -22 -25.5t-17 -20.5q-9 -11 -16 -19q-6 -8 -15 -17q-9 -10 -18 -19l-8 -8q-14 -14 -35 -14t-35 14.5t-14 35t14 34.5l8 8q8 8 15 16q8 8 14 15q5 6 13 15q8 11 18 23t22 26q10 12 18 22q8 13 15 23
q6 9 14 23h1h-4q-7 -2 -15 -3q-15 -4 -36 -1q-12 1 -22 2q-17 1 -40 8q-21 7 -33 13q-13 7 -24 14q-8 6 -25 20q-22 17 -34 32q-12 17 -18 35q-3 8 -6 15q-5 11 -9 25q-5 15 -7 29q-2 13 -3 26q0 14 2 28q1 10 3 23q4 17 10 32q6 13 15 31q10 22 24 37q11 13 26 27
q18 17 38 28q19 11 42 18q21 6 40 8t31 2q10 -1 21 -2l10 -1q25 -2 38 -24zM369 347q1 7 2 13q2 10 4 22q1 8 1.5 13.5t-0.5 11.5q-1 8 -4 21q-2 11 -4 18q-3 9 -10 23q-8 17 -15 33q-4 10 -8 15q-7 8 -13 13q-4 4 -9 7q-8 5 -16 9q-9 4 -22 9q-5 2 -7 3l-11 -1q-9 0 -18 4
q-6 -1 -13 -4q-13 -3 -22 -8t-18 -14q-11 -10 -19 -19q-6 -7 -11 -18q-7 -14 -11 -24q-3 -6 -4 -13q-2 -10 -3 -18q-1 -5 -1 -10q0 -7 1.5 -14t3.5 -15q3 -9 6 -16q4 -10 8 -22q1 -3 5 -7q4 -6 15 -15q15 -11 21 -16q5 -3 11 -6t20 -8q11 -3 16 -4q12 0 26 -2h6q7 1 15 3
q5 1 14 3q8 3 13 5q6 3 15 7q7 3 13 8l9 6q6 5 14 7z" />
    <glyph glyph-name="colon" unicode=":" horiz-adv-x="184" 
d="M52.5 92q14.5 14 35 14t34.5 -14l3 -3q15 -14 15 -35t-14.5 -35t-35 -14t-35.5 14l-3 3q-14 14 -14 35t14.5 35zM59 447q14 14 35 14t35 -14l3 -3q14 -14 14 -35t-14 -35t-35 -14t-35 14l-3 3q-14 14 -14 35t14 35z" />
    <glyph glyph-name="semicolon" unicode=";" horiz-adv-x="232" 
d="M57.5 456.5q14.5 14.5 35 14.5t35.5 -15l3 -3q14 -14 14 -34.5t-14.5 -35t-35 -14.5t-34.5 14l-3 3q-15 15 -15 35.5t14.5 35zM95 37q-24 -2 -40 14l-3 4q-14 14 -14 34.5t14 35.5q13 12 32 14q23 10 45 -3l7 -4q10 -6 21 -16q14 -12 23 -27q8 -13 11 -26q5 -15 3 -33
q-1 -15 -7 -29q-5 -11 -14 -24q-7 -11 -15 -20q-7 -9 -14 -17l-6 -8q-13 -16 -34 -17.5t-36.5 11.5t-17 33.5t11.5 35.5l7 9q6 8 13 16q5 6 10 13q2 2 3 4z" />
    <glyph glyph-name="less" unicode="&#x3c;" horiz-adv-x="473" 
d="M423 425q7 -19 -1.5 -37.5t-27.5 -25.5l-6 -3q-6 -2 -12 -4.5t-11 -5.5q-6 -3 -17 -8q-12 -6 -26 -12q-9 -3 -15 -7q-14 -8 -37 -17q-18 -7 -28 -12q-13 -6 -24 -11t-25 -12q-4 -2 -7 -4q7 -3 13 -6l16 -8q6 -3 9 -4q11 -3 20 -8q6 -2 17 -7l26 -13q10 -6 18 -11
q7 -4 14 -9q8 -4 16 -9q5 -3 14 -8q10 -5 19 -10q10 -5 22 -13q7 -5 11 -6l6 -4q19 -8 25.5 -27.5t-2 -38t-28 -25.5t-37.5 2l-7 3q-10 5 -23 13q-8 6 -14 9l-18 9q-12 7 -20 12q-6 3 -14 8l-16 10q-7 4 -15 9q-8 4 -17 8q-13 6 -20 9q-3 2 -7 3q-10 3 -24 10l-16 8
q-5 3 -14 7q-11 4 -20 8q-12 5 -24 13q-11 6 -19 10l-7 5q-16 9 -21 26q-4 4 -6 10q-9 18 -2 37.5t25 27.5l8 4q8 4 18 8l14 7q11 7 20 12t24 12q14 6 26 12q11 5 23 11q14 7 35 15q16 6 22 10q14 8 30 14q10 4 18 9q11 5 17 8q7 4 15.5 7.5t16.5 6.5l6 2q19 7 38 -1.5
t26 -27.5z" />
    <glyph glyph-name="equal" unicode="=" horiz-adv-x="510" 
d="M55 232q4 20 21.5 31.5t37.5 7.5l7 -2q3 0 13 -1q13 0 25 -1q7 -1 16 -1h25q10 -1 18 -1q13 0 32 -2q14 -2 21 -2h16q11 0 20 -1q6 -1 17 -1q14 -1 25 -3q9 -1 16 -1q5 -1 16 0h18t12 1l7 1q20 2 36 -11.5t18 -33.5t-11.5 -36t-33.5 -18l-7 -1q-8 0 -16 -1h-21
q-15 -1 -26 0q-10 1 -21 2q-8 1 -18 2q-12 1 -22 2h-9h-17q-12 0 -32 2q-13 2 -20 2q-11 0 -24 1h-19q-13 0 -24 1q-9 1 -22 1q-17 1 -28 3l-7 2q-20 4 -31.5 21t-7.5 37zM39.5 373q-4.5 20 6 37.5t30.5 22.5l8 2q9 2 21 4q13 3 20 4l20 2h12q10 2 19 2h95h16q9 0 18 -1
q4 -1 14 -1h30q18 0 28 -1h8h36q20 0 34.5 -14.5t14.5 -35t-14.5 -35t-34.5 -14.5h-36q-10 0 -22 1h-15h-29q-15 0 -24 1q-4 1 -9 1h-15h-95q-4 0 -8 -1q-9 -1 -19 -1q-5 -1 -9 -1q-6 -1 -17 -3q-10 -2 -16 -3l-8 -2q-19 -5 -37 5.5t-22.5 30.5z" />
    <glyph glyph-name="greater" unicode="&#x3e;" horiz-adv-x="474" 
d="M46 52.5q-11 16.5 -7 37t21 31.5l8 5q10 8 29 17q13 6 21 13q16 11 34 19q13 5 20 9q10 4 26 10q12 5 23 10l22 11q15 8 23 12l10 6q9 6 23 13q-8 4 -17 9l-16 8t-12 5q-8 4 -21.5 10.5t-25.5 12.5q-9 6 -15 8q-6 3 -19 9t-24 11q-13 6 -26 13t-25 15l-11 7
q-17 10 -22 30.5t6 37.5t31 21.5t37 -5.5l11 -7q10 -6 20.5 -12t20.5 -10q11 -5 23 -11q13 -6 20 -9q9 -4 21 -11q10 -5 21 -11q11 -5 17 -8q8 -3 17 -7q7 -4 18 -10q9 -4 17 -8q10 -5 25 -13q16 -9 24 -14l7 -4q18 -12 21 -34q4 -4 7 -9q11 -18 6.5 -38t-21.5 -31l-6 -4
q-9 -5 -19 -10q-9 -4 -20 -9q-7 -3 -22 -9q-13 -6 -17 -9q-10 -6 -20 -11q-6 -3 -19 -10q-16 -9 -30 -15q-13 -6 -28 -12q-12 -5 -19 -8q-8 -4 -22 -10q-9 -4 -16 -9q-15 -11 -35 -20q-13 -7 -18 -11l-8 -5q-17 -11 -37.5 -7t-31.5 20.5z" />
    <glyph glyph-name="question" unicode="?" horiz-adv-x="413" 
d="M146.5 77q14.5 14 35 14t35.5 -14l3 -3q14 -14 14 -35t-14.5 -35t-35 -14t-34.5 14l-3 3q-15 14 -15 35t14.5 35zM103.5 444q-19.5 -5 -37.5 5.5t-23 30.5l-2 7q-4 17 -2 36q2 16 9 35q5 14 9 22q4 11 17 30q13 21 29 36q17 15 40 25q18 8 32 13q16 5 29 7q17 3 37 0
q17 -3 35 -9q20 -7 38 -21q18 -15 28 -31q5 -7 10 -15q13 -18 18 -42q4 -19 5 -42q1 -21 -1 -35q-2 -19 -11 -37q-7 -13 -16 -24q-7 -9 -16 -19q-10 -11 -20 -19q-6 -5 -21 -19q-16 -15 -26 -24q-7 -6 -12 -11q-2 -3 -7 -13q-7 -12 -8 -17q-2 -6 -4 -13q-1 -7 -1 -19
q-1 -14 -1 -19v-16q0 -10 -1 -23v-10q-2 -20 -17.5 -34t-35.5 -12.5t-33.5 17t-12.5 35.5l1 11v16v16q0 7 1 23q0 19 3 33t7 26q4 13 14 32q11 22 22 34q9 9 21 19q8 8 23 21q16 15 24 22l11 11q7 7 11 13q3 4 6 10q1 1 1 2q1 6 0 20q0 13 -2 23q-1 5 -2 6q-8 11 -14 21
l-5 5q-5 4 -10 5q-9 3 -17 5h-7q-5 -1 -13 -3q-9 -3 -23 -10q-10 -4 -14 -8q-5 -5 -12 -15q-7 -11 -9 -15q-3 -7 -8 -20q-3 -8 -3 -11l2 -7q5 -19 -5.5 -37t-30 -23z" />
    <glyph glyph-name="at" unicode="@" horiz-adv-x="829" 
d="M522 66q-12 -10 -22 -16q-8 -5 -21 -11q-16 -8 -30.5 -11.5t-32.5 -3.5q-20 0 -36 6q-9 3 -22 10q-18 8 -31 19q-16 12 -25 27q-6 9 -11 19q-7 15 -11 30l-4 22q-1 13 -1 32q-1 17 0 31t2 24q1 17 8 34l10 25q7 18 15 32q7 12 13 21q9 15 25 28q15 12 29 19q11 6 28 13
q19 8 32 11q11 3 23.5 4.5t28.5 1.5q20 1 35 -2q9 -2 19 -4q11 -3 23 -6q13 -3 21 -6l7 -2q19 -7 28.5 -25.5t3.5 -37.5q-2 -3 -3 -6q-2 -16 -5 -27q-1 -7 -2 -16q-2 -14 -4 -26q-2 -9 -3 -22q-1 -14 -1 -20v-17q0 -10 -1 -25q-1 -17 -3 -31q-1 -8 -1 -13v-5q1 -7 2 -11.5
t2 -10.5q2 -4 5 -13q2 -3 6 -8l4 -4q2 2 4 3q11 9 20 16q5 4 11 12q8 9 14 18q5 6 10 16q5 9 6 16q3 10 4 16q1 5 1 12q1 7 1 20v24q0 8 -2 23q-2 19 -3 34q0 12 -1 19t-3 15q-4 12 -7 29q-2 11 -4 16t-6 11q-3 7 -8 14q-7 12 -12 22q-2 6 -6 13q-3 5 -7 10q-6 7 -12 13
t-15 12t-13 9q-9 4 -18 9l-14 6q-11 5 -20 8q-9 4 -17 7q-11 3 -21 7q-3 1 -7 2q-9 1 -23 1q-15 1 -21 1q-7 0 -20 1q-13 0 -31 1q-15 1 -24 0q-6 0 -8 -1q-8 -2 -23 -7t-20.5 -7t-18.5 -7q-10 -3 -13 -5q-7 -4 -25 -14q-12 -7 -23 -18q-14 -14 -20 -21l-13 -19.5t-10 -14.5
q-2 -5 -10 -21q-9 -19 -14 -29q-4 -6 -6 -11q-2 -6 -7 -20t-7 -21l-2 -7q-2 -13 -7 -31q-4 -18 -7 -28q-1 -7 -5 -25q-2 -16 -2 -31q0 -20 1 -29v-28q0 -12 2 -25q3 -13 4 -17q3 -7 6 -15q2 -4 8 -13q10 -15 19 -30q7 -14 11 -21q2 -3 9 -11q12 -13 24 -30q7 -9 17 -18
q16 -14 28 -24l10 -8q6 -3 13 -6q9 -4 15 -7q9 -3 17 -7q3 -2 12 -4q14 -4 32 -11q11 -4 22 -5q11 -2 23 -2q14 0 23 1q8 1 16 3q10 3 15 5q6 3 12 7q10 6 23 13q4 2 10 8l11 12q14 14 35 14t35.5 -14t14.5 -35t-14 -35l-11 -11q-17 -17 -35 -27q-10 -5 -17 -9
q-11 -7 -22 -12q-11 -6 -28 -11t-34 -7q-14 -1 -34 -1t-39 3q-20 3 -41 11q-13 5 -23 8q-17 4 -28 9l-12 6q-8 3 -18 7q-11 5 -21 11q-12 6 -27 19q-11 10 -27 23q-20 17 -34 36q-9 13 -17 23q-13 15 -20 26q-4 7 -13 22q-7 12 -15 25q-12 18 -17 31q-3 7 -6 15
q-5 12 -9 34.5t-4 43.5v26q-1 10 -1 30q0 24 4 49q4 23 7 34q2 8 6 25q4 15 5.5 24.5t4.5 20.5l9 24q5 16 9 24q4 10 10 21q4 7 11 24q9 19 14 27q4 8 13.5 21.5t18.5 25.5t27 30q20 20 43 33q18 11 26 16q12 6 29 12q14 5 20 7t21.5 7t24.5 8q13 4 30 5q14 1 35 0
q18 -1 31 -1q11 -1 16 -1q8 0 25 -1q18 -1 31 -2q16 -2 30 -8q8 -2 17 -5q12 -4 23 -9l20 -8q12 -5 23 -10q8 -5 17 -9q11 -6 26 -17q15 -10 25 -21q10 -9 20 -20q11 -14 18 -27q5 -10 9 -19q2 -4 6 -10q7 -10 12 -20q6 -11 10 -22q5 -12 9 -32q3 -14 5 -24q4 -13 6 -25
q1 -12 2 -28q1 -14 3 -30q1 -20 2 -31v-26t-1 -27.5t-2 -21.5q-2 -10 -6 -24q-4 -17 -13 -35q-9 -17 -18 -30q-9 -12 -20 -25q-12 -14 -24 -24q-9 -7 -20 -16q-15 -12 -29 -19q-25 -14 -49 -10q-15 3 -32 13q-15 9 -32 27t-24 34zM508 193v2q1 14 1 21v17q0 11 2 29
q1 18 4 31q1 9 2 18.5t3 18.5q-9 2 -17 4q-3 1 -11 0q-11 0 -18.5 -1t-14.5 -2q-4 -1 -16 -6q-14 -6 -21 -10q-4 -2 -10 -7l-6 -6q-5 -7 -10 -17q-5 -8 -9 -19q-5 -11 -10 -24l-2 -6q0 -9 -1 -21q-1 -11 0 -25q0 -13 1 -19q1 -7 2 -15l2 -6q3 -6 7 -11l3 -3q4 -4 10 -7
q9 -4 14 -6h4q6 0 9 0.5t9 3.5q8 4 13 7q5 4 19 16q16 15 26 26l11 13z" />
    <glyph glyph-name="A" unicode="A" horiz-adv-x="683" 
d="M492 167q-1 4 -2 5q-10 32 -27 78q-16 46 -23 62q-6 17 -10 26q-3 8 -8 24q-4 13 -7 20q-4 11 -7 20l-8 20q-6 16 -9 25q-3 8 -8 21t-8 21q-4 9 -11 26q-6 16 -9 22q-3 7 -9 22q-3 5 -4 9l-8 -16q-7 -15 -9 -19q-2 -6 -4 -13q-3 -10 -11 -28q-6 -16 -10 -26q-2 -6 -4 -14
q-3 -13 -11 -33l-9 -24q-4 -10 -13 -27q-5 -10 -6 -14l-6 -16q-3 -10 -9 -27q-7 -18 -10 -26q-3 -6 -8 -20q-6 -14 -12 -30q-6 -15 -11 -28q-5 -15 -8 -22l-6 -16q-1 -3 -3 -7q1 -1 3 -1h19h20q8 1 15 1q6 0 13 0.5t17 1.5q9 1 25 3q19 2 30 2q8 1 16 1q9 1 18 3q15 2 37 1
q20 0 31 -2q9 -1 17 -2q6 -1 17 -2t26 -1h4zM530 66q-6 -1 -13 0l-9 2h-20q-19 0 -34 2q-14 1 -23 2q-7 1 -15 2q-7 1 -23 1q-13 1 -17 0q-12 -2 -24 -3t-22 -2q-7 0 -23 -2q-18 -2 -28 -3q-10 0 -18 -1t-15 -1q-6 0 -13 -1h-27q-20 0 -29 1q-10 1 -19 3h-4q-1 -2 -2 -5
q-6 -15 -11 -25q-3 -7 -5 -11l-2 -6q-7 -19 -26 -27.5t-38 -1.5t-27.5 26t-1.5 38l3 6q3 8 8 19q4 8 8 19q5 12 9 22q3 9 4 13q2 5 5 20q5 20 10 34t8 22q3 6 5 11q2 6 7 20q5 15 11 31q7 16 13 31t9 23l8 20q6 16 8.5 24t4.5 14q3 12 13 30q6 13 8 18q4 8 10 24q5 14 7 21
q3 13 8 25q4 11 10 28q7 15 9 22q3 9 6 16q3 9 12 28q7 15 9 21l6 16q7 19 10 27q6 17 9 24l2 9q6 19 24.5 29t37.5 4l6 -2q29 -2 42 -28l5 -10q5 -12 9 -20q2 -5 8 -17q8 -15 13 -25q4 -9 11 -25q6 -14 9 -21.5t10 -24.5q6 -16 10 -25t9.5 -23.5t8.5 -23.5q3 -8 9 -23
q6 -17 9 -25q2 -6 5 -13q4 -10 9 -26q4 -14 7 -21t9 -23q7 -17 24 -65t28 -81q11 -32 14 -41q4 -11 8.5 -22t7.5 -19q2 -6 7 -15q7 -12 11 -21q4 -10 8 -17l2 -6q8 -19 0 -38t-26.5 -27t-37.5 0t-27 26l-3 7q-2 5 -5 12l-9 18z" />
    <glyph glyph-name="B" unicode="B" horiz-adv-x="579" 
d="M50 658q0 21 15 35.5t35 14.5h12h23q12 0 28 -2q14 -1 22 -2q5 -1 17 -1q15 -1 25 -1q10 -1 19 -2q7 -1 18 -1q13 -1 21 -2q6 0 21 -1h15q13 1 31 0t31 -4l16 -4q11 -3 25 -9q20 -8 37 -26q14 -14 24 -30q11 -17 16 -36q4 -17 4 -34q1 -13 0 -25q-1 -9 -1 -17
q-2 -16 -10 -36q-5 -14 -14 -32q-10 -20 -22 -34q-8 -10 -16 -18q15 -6 27 -16q21 -15 33 -34q10 -16 20 -38q10 -24 12 -37q2 -8 4 -26q2 -16 3 -23q1 -12 0 -29q-1 -16 -4.5 -29t-10.5 -29q-6 -14 -16 -31q-14 -25 -39 -42q-17 -13 -29 -19q-8 -5 -20 -12q-16 -10 -40 -20
q-26 -12 -39 -14q-10 -2 -31 -5q-23 -4 -36 -4h-20q-12 0 -51 4q-40 4 -68 10q-16 4 -22 4l-13 -1q-20 -2 -36 11t-18 33q-1 4 0 8q-6 11 -6 23v25v11q-1 9 -1 19v18v23v21q-2 18 -1 29q1 5 1 19t-1 23q-1 12 -1 23v26q-1 19 -1 29v18q0 12 1 33q2 21 3 32t4 32q2 19 3 29
q1 8 1 17v28v29v17v20q0 4 -1 8l-2 8q-1 6 18 12q-15 14 -15 34zM291 415q3 0 6 1q4 0 9 1q1 1 4 2q5 2 9 5q8 5 14 8q5 3 18 12q12 9 19 15q6 5 11 12q5 6 10 16q7 14 12 25q1 4 2 7q0 8 1 16q1 7 0 16q0 5 -2 12q-1 4 -4 9q-3 6 -9 12q-3 3 -4 3q-8 4 -12 5l-16 4
q-4 0 -14 1q-3 0 -6.5 0.5t-5 0.5h-1.5q-12 -1 -30 -1q-17 1 -25 2q-6 0 -18 1q-15 0 -25 2q-6 1 -14 1q-8 1 -21 1q-17 0 -27 2q-6 1 -19 2h-5q0 -3 1 -7v-25v-17v-29v-31t-1 -23.5t-4 -32.5q-3 -19 -4 -28v-3q20 16 44 9l18 -4q11 -3 20 -5q5 1 11 1q16 0 23 1q13 1 34 1
h1zM219 313h-13q-11 -1 -28 -2.5t-23 -2.5q-1 0 -3 -1l-7 -3q-3 -1 -7 -2v-16q0 -8 1 -16q1 -13 1 -30q0 -18 -1 -28v-14q1 -16 1 -29v-20.5v-17.5q0 -6 1 -13v-18v-2q8 -2 18 -4q23 -5 55 -9q34 -3 42 -3h20q5 0 21 3q18 2 26 4q6 1 19 8q18 7 28 13q14 8 23 14q8 4 21 14
q7 4 10 10q7 13 12 23q4 8 5 12.5t1 11.5q1 7 1 10q-1 7 -3 23q-2 13 -3 20q-1 4 -6 16q-6 14 -12 23q-3 4 -9 9t-15 7q-16 4 -26 7l-15 3q-4 0 -19 1q-14 1 -21 1h-17h-2q-15 -3 -28 -3q-13 -1 -23 -1q-9 1 -25 2z" />
    <glyph glyph-name="C" unicode="C" horiz-adv-x="555" 
d="M499.5 497q-15.5 -13 -36 -11t-33.5 17l-7 9q-10 12 -17 25q-2 3 -8 11t-12 12q-8 7 -15 10q-11 7 -21 15q-3 2 -7 4q-9 3 -17 7q-5 2 -13 4q-10 2 -20 3h-19q-12 -1 -23 -1q-4 0 -15 -3q-8 -3 -12 -4q-7 -5 -13 -9q-4 -2 -8 -6q-5 -4 -9 -9q-6 -7 -11.5 -14.5
t-9.5 -15.5q-3 -5 -5 -10l-4.5 -13.5t-3.5 -15.5q-2 -13 -4 -20q-1 -6 -2 -14q-2 -9 -4 -24q-3 -16 -5 -24q-1 -5 -2 -9q-1 -7 -2.5 -18.5t-2.5 -22.5q-1 -9 -1 -17v-19l2 -16q2 -11 4 -20t6 -28t9 -36q4 -16 9 -27q4 -10 7 -16q5 -9 11 -17q3 -6 8 -10q11 -11 15 -16
q3 -2 11 -7q11 -6 24 -12t20 -8q10 -3 20 -7q6 -2 11 -3h14q12 1 20 1q3 0 11 2q11 3 15 4.5t15 7.5q11 5 20 12q7 6 9 9q4 4 5 8q3 4 3 7q4 11 11 26l6 11q9 18 28.5 24t37.5 -3t24.5 -28.5t-2.5 -37.5l-6 -11l-4 -9q-3 -11 -8 -22q-7 -13 -16 -25q-10 -14 -28 -27
q-16 -12 -34 -22q-17 -9 -26 -12.5t-27 -7.5q-21 -5 -34 -5q-5 0 -13 -1q-15 -1 -31 1q-17 2 -33 8q-11 4 -20 6q-9 4 -27 11q-18 8 -34 17q-20 11 -32 23q-4 5 -15 16q-12 11 -21 25q-7 11 -13 22q-8 13 -15 30q-6 15 -12 36q-5 20 -10 41l-6 30q-3 11 -5 23q-2 15 -3 30
v24q0 12 2 25q1 12 2.5 24.5t2.5 20.5q1 9 4 18q1 6 3 19q3 14 4 22q2 9 3 16q1 8 4 21q3 15 5 23t7 20q5 14 13 28q6 11 14 22t16 21q9 10 19 19t21 16q8 5 17 10q14 8 34 14q22 6 38 7q10 0 21 1q14 1 32 -1q18 -1 35 -5t29 -9q8 -3 17 -7q15 -6 28 -16q6 -4 13 -8
q12 -7 24 -17q15 -12 29 -28q13 -16 19 -29q2 -3 5 -7l7 -8q13 -16 11 -36.5t-17.5 -33.5z" />
    <glyph glyph-name="D" unicode="D" horiz-adv-x="591" 
d="M48 631q-5 20 5.5 37.5t29.5 22.5l8 2q14 4 30 4h17q9 0 26 -2q14 -2 26 -3q10 -2 23 -3q16 -1 26 -2q9 -1 24 -3t37 -6q23 -4 42 -9q19 -6 32 -10q12 -4 22 -9q10 -4 21 -8q15 -6 32 -18q16 -11 26 -23q6 -7 11 -12q9 -10 17 -21q9 -12 17 -31q7 -16 10 -27q3 -10 8 -27
q5 -19 6 -27q1 -6 4 -21q4 -21 4 -32v-6q1 -9 1 -22q1 -15 0 -29q0 -12 -1 -19t-3 -25q-2 -21 -7 -41q-4 -21 -11 -38q-5 -15 -10 -25q-3 -8 -6 -19q-6 -16 -16 -35q-9 -16 -21 -32t-19 -25q-10 -11 -30 -26q-21 -16 -38 -23q-10 -5 -20 -9q-12 -7 -24 -12l-24 -8
q-15 -4 -35 -7q-18 -3 -29 -3q-10 -1 -20 -1q-11 0 -28 2q-17 1 -24 2q-4 0 -8 -1q-10 -1 -21 -2q-14 0 -27 1l-9 1q-30 4 -40 32q-15 5 -25 18t-10 29v33q0 8 1 19q1 9 1 22q1 11 1 17q0 5 -1 11q0 5 -3 25q-2 16 -3 27t-1 33v28q-1 9 -1 21q0 9 -1 28q0 17 -1 25
q-1 12 -1 23v48q0 10 0.5 21.5t1.5 21.5q1 9 3 26q2 14 2 19v15q0 8 1 27q2 17 2.5 25.5t1.5 18.5v10q-1 3 -2 7zM146 98h5l16 2q15 1 28 0q8 0 24 -2q13 -1 20 -1h15q6 1 20 3q13 1 19 4q9 2 17 5t17 8q12 6 25 12q6 2 17 10.5t15 12.5q5 6 14 18q8 11 15 23q5 10 8 17
q4 14 9 26q4 8 9 22q4 11 7 25t5 30q2 18 2 24q1 5 2 16v17q-1 11 -2 16q-1 9 0 18q-1 4 -2 13q-3 16 -5 23q0 4 -4 17l-6 24q-2 6 -7 17q-4 10 -6 13q-4 4 -8 9q-7 7 -15 16q-3 3 -9 7q-7 6 -11 7l-20 8l-20 8q-9 3 -24 7t-34 8q-19 3 -33 5t-22 3q-7 1 -20 2q-17 1 -31 3
q-11 1 -24 3h-4q-1 -5 -1 -9q-1 -10 -2 -26q-1 -15 -1 -20v-14q0 -10 -2 -30q-2 -18 -3 -26q-1 -7 -1.5 -16t-0.5 -16v-48q0 -7 1 -15q0 -10 1 -30q1 -19 1 -29t0.5 -20.5t0.5 -30.5q0 -17 1 -23q1 -8 3 -25t3 -25q1 -11 1 -21t-1 -25q-1 -13 -1 -22q-1 -8 -1 -13v-15z" />
    <glyph glyph-name="E" unicode="E" 
d="M41 63q-3 19 7 36q1 8 1.5 18t0.5 19q0 8 -1 19q0 11 -1 27q-1 17 -1 26q0 7 -1 23q-2 20 -2 32v15q-1 12 0 35v28v46v21l-2 20q0 7 -1 25t-1 28v79v10q-1 10 -1 27v17q-2 13 1 27l1 8q3 20 20 32t37 9q1 -1 2 -1q9 5 19 6l11 2q13 1 38 2q23 1 31 2q9 0 32.5 1t34.5 1
h44h9q8 1 20 1q13 1 21 1h21q20 0 34.5 -14.5t14.5 -34.5t-14.5 -35t-34.5 -15h-21h-15q-10 -1 -16 -2h-19h-44q-9 0 -31.5 -1t-30.5 -1q-8 -1 -32 -2q-21 0 -30 -2h-4v-1v-18q1 -10 1 -19v-79q0 -8 1 -24q1 -19 1 -25t1 -13q1 -9 1 -23h5h27h14h25q16 -1 25 -1h18h21
q14 1 19 1h21h28q20 0 35 -14.5t15 -34.5t-15 -35t-35 -15h-28h-15q-8 0 -23 -0.5t-23 -0.5h-18q-11 0 -29 1h-21h-14h-24q-5 0 -9 -1q0 -8 1 -11v-22q0 -9 2 -25q1 -20 1 -30q0 -6 1 -21q1 -16 1 -28q1 -12 1 -23q0 -7 -1 -15q15 -1 20 -1h21h20.5t23.5 -1h21h13h22
q15 1 30 1h25q13 0 23 -1q7 -1 15 -2l4 1q19 6 37 -4.5t23.5 -30t-5 -37.5t-29.5 -23l-8 -2q-18 -5 -37 -2q-5 1 -10 1.5t-13 0.5h-26q-13 0 -27 -1h-24h-13h-24q-16 1 -22.5 1h-18.5h-18q-10 0 -31 1q-3 1 -5 1q-19 -24 -48 -19q-17 2 -28.5 15t-12.5 30q-4 7 -5 14z" />
    <glyph glyph-name="F" unicode="F" horiz-adv-x="475" 
d="M40 626q-2 12 2 24q1 19 15.5 33t34.5 14q17 0 30 -11h2h126q10 0 25 -1h22h22q13 0 29 -1q12 -1 17 -1q10 1 19 0h7q21 -2 34.5 -17.5t12 -35.5t-17 -34t-35.5 -12h-7q-5 1 -10 0q-9 0 -26 1q-13 1 -23 1h-22q-12 0 -27 1h-20h-110v-14q0 -6 1 -25q1 -22 1 -33v-20
q0 -13 -1 -34q-1 -16 -1 -24v-47h19.5h14.5q10 1 24 1h80q9 0 20 -1q14 -1 26 -4h1q16 -1 32 -6l8 -3q19 -6 28.5 -24.5t3 -37.5t-25.5 -28.5t-38 -2.5l-8 2q0 1 -1 1q-14 0 -29 4h-4q-7 1 -13 1h-80h-18q-9 -1 -17.5 -1h-21.5h-2v-10q-1 -19 -1 -28v-72q0 -11 1 -19
q1 -9 2 -19q2 -17 1 -30q-1 -5 -1 -11q0 -12 -1 -21q0 -6 -1 -15t-2 -17v-7q-2 -20 -18 -33.5t-36 -11.5t-33.5 17.5t-11.5 36.5l1 7q0 7 1 16q1 10 2 17v11q0 10 1 20q0 4 -1 9q-1 14 -2 24q-1 12 -1 26v72q0 11 1 31q1 18 1 27v126q0 12 1 32q1 17 1 26v20q0 8 -1 27
q-1 22 -1 33q0 9 1 31v13q-1 3 -2 7z" />
    <glyph glyph-name="G" unicode="G" horiz-adv-x="571" 
d="M517 623q-6 -19 -24 -29t-37 -5l-13 4q-18 5 -30 11q-4 3 -18 7q-10 4 -14 5l-18 3q-9 2 -19.5 2.5t-22.5 0.5h-23q-6 -1 -14 -3q-12 -3 -21 -7q-9 -3 -17 -6q-6 -3 -11 -6q-5 -4 -13 -10q-4 -3 -12 -14q-11 -13 -16 -23q-6 -9 -11 -19q-6 -11 -8 -17q-2 -4 -4 -9
q-2 -9 -9 -25q-5 -12 -9 -26l-6 -24q-2 -7 -5 -20q-2 -11 -2 -15q-1 -8 -1 -15q-1 -5 -1.5 -16t-0.5 -22v-15q1 -7 1 -14q0 -3 3 -16q2 -14 5 -25q2 -11 5 -24q3 -9 9 -25q7 -17 10 -23q2 -5 8 -15q7 -12 12.5 -20t9.5 -15l8 -8q8 -7 13 -11.5t12 -8.5q6 -4 18 -10
q8 -4 16 -5q12 -2 25 -2.5t26 0.5q17 2 27 3q7 1 15 3q10 3 21 7q8 3 13 6q6 4 10.5 9t6.5 8q4 7 9 14q2 2 6 10l3 9q1 5 2 17q2 14 2 30q1 17 1 23v19q1 4 1 8h-26q-12 0 -20 -1q-15 -2 -30 -1h-18h-8q-20 0 -34.5 14.5t-14.5 34.5t14.5 35t34.5 15h8h20q7 -1 15 0
q15 2 33 2h29q13 0 20 1q21 1 40 -8q15 -8 25.5 -24t10.5 -34v-22q0 -16 -1 -27v-12q0 -7 -1 -26q0 -20 -2 -37q-2 -19 -4 -27q-2 -11 -9.5 -28t-14.5 -28q-5 -6 -9 -12q-7 -11 -18 -22.5t-25 -20.5q-14 -10 -33 -17q-17 -6 -31 -10q-15 -5 -29 -6q-11 -2 -28 -3
q-20 -3 -41 -2q-20 1 -38 4q-21 4 -42 14q-18 9 -30 16q-11 7 -19 14t-19 17q-12 11 -20 22q-6 8 -12.5 18.5t-14.5 24.5q-9 15 -13 24q-4 7 -12 27q-9 21 -13 38q-3 14 -6 27q-3 12 -6 29q-3 18 -4 27v13q-1 8 -1 22t0.5 27.5t1.5 21.5q1 5 1 10q1 10 4 28q4 16 6 25t7 27
q5 19 12 36q5 13 7 18q3 10 7 19q4 8 10 21q7 14 15 27q9 14 22 31q16 21 30 32q11 9 20 15q10 6 23 12t26 11q12 4 27 8q17 5 34 6q13 1 30 1t31 -1t28 -3q11 -2 17 -3q11 -2 32 -9q19 -7 30 -13q3 -2 11 -4l13 -4q20 -5 30 -23.5t4 -37.5z" />
    <glyph glyph-name="H" unicode="H" horiz-adv-x="586" 
d="M509 716.5q20 -3.5 31.5 -21t7.5 -37.5l-2 -10q-2 -10 -5 -24q-2 -14 -3 -20q-1 -7 -3 -27q-2 -23 -4 -34q-1 -6 -1 -14q-1 -11 -2 -30q-1 -17 -1 -27q-1 -11 -2 -30q-2 -20 -3 -29q0 -6 -1 -12q0 -9 -2 -26q-1 -12 -1 -16q0 -8 -1 -27q-1 -18 -1 -24q0 -8 -2 -22
q-1 -11 -1 -17q1 -9 1 -22.5t-1 -28.5q0 -14 -1 -23q0 -10 -1 -17q0 -7 -1 -20q-2 -13 -3 -22v-10q1 -17 -2 -37q-1 -10 -1 -17v-20q0 -10 -1 -21q0 -10 -1 -18v-8q-1 -21 -16 -35t-35.5 -13t-34.5 16t-13 36v8l2 20v15v18q-1 15 2 34q2 10 2 17q-1 16 0 28q1 6 2 18
q1 13 2 19v13q1 8 1 22v1q-2 0 -5 1q-8 0 -15.5 0.5t-13.5 0.5q-9 0 -32 1q-25 1 -38 1q-12 1 -37 1h-36h-77h-14v-37q0 -19 -3 -41q-2 -16 -2 -23v-18q0 -10 -1 -26q0 -17 -2 -28q-1 -5 -1 -8v-35q0 -21 -14.5 -35.5t-35 -14.5t-35 14.5t-14.5 35.5v35q0 11 2 23q1 6 1 18
q1 13 1 21v19q0 13 3 35q2 16 2 28v93q0 18 1 29q1 6 1 21v52v28q1 7 1 13q0 5 -2 17q-2 20 -2 31v11q-1 10 -1 29q-1 17 -1 23t-1 22q-1 17 -1 26v38v10l-2 6q-6 20 4 38t29.5 23.5t37.5 -4.5t24 -29l2 -7q4 -14 4 -37v-38q0 -6 1 -20q0 -16 1 -23v-26q1 -16 1 -23
q1 -9 1 -19q0 -5 2 -19q2 -21 2 -31q0 -8 -1 -17v-22v-52v-6l3 -1h9h77h37q26 0 40 -1q12 0 36 -1q25 -1 32 -1q8 0 17 -1q8 0 16 -1h2q1 7 1 15q1 17 1 23q0 10 2 27q1 14 1 20l2 18q1 7 2 25t2 27q0 11 1 29q1 17 2 27q0 15 2 28q2 7 4 27q2 21 3 30t4 25l5 25l2 11
q4 19 21 30.5t37 8z" />
    <glyph glyph-name="I" unicode="I" horiz-adv-x="184" 
d="M79.5 648q19.5 5 37.5 -5t24 -30l2 -7q3 -14 3 -29v-14v-15q0 -12 -2 -23q-1 -5 -1 -12l-2 -16v-13q0 -9 -1 -20q0 -6 -1 -20q-1 -9 -1 -16v-20q0 -12 -1 -29v-18q1 -10 1 -21v-19v-22q-1 -6 -1 -12q1 -11 1 -22q0 -8 1 -15q0 -9 1 -17q1 -10 1 -21v-18v-11q1 -9 1 -21
q0 -7 1 -11q1 -9 1 -20q0 -9 -1 -19q-1 -7 -1 -13v-16q0 -9 -1 -17q0 -6 -1 -14v-10q0 -9 -1 -19v-8q-2 -20 -17.5 -33.5t-35.5 -12.5t-34 16.5t-12 36.5v7q1 7 1 13q0 9 1 19q0 7 1 14v9v15q0 11 1 21q1 5 1 11t-1 9q-1 10 -1 22v12q-1 10 -1 20v18q0 7 -1 13q0 8 -1 17
q-1 11 -1 22v17q-1 12 0 25v15v18v13q-2 12 0 32v24v20q0 10 1 23q1 10 1 20q1 7 1 14q0 9 1 19q0 9 1 18q1 10 2 19q1 4 1 9v13v14v3l-2 7q-5 20 5 38t29.5 23z" />
    <glyph glyph-name="J" unicode="J" horiz-adv-x="475" 
d="M386 677q20 0 35 -14.5t15 -35.5v-7v-10q3 -15 2 -31q-1 -12 -3 -30q-1 -17 -2 -29.5t-1 -18.5v-19q0 -18 -1 -27q-1 -5 -1 -9v-22q-1 -16 -2 -26q-1 -7 -1 -14q0 -8 -0.5 -19.5t-0.5 -17.5q0 -8 -1 -19v-12v-37q0 -11 -1 -23q-1 -9 -1 -16v-42q0 -16 -3 -44
q-3 -34 -15 -60q-11 -25 -19 -37q-10 -13 -25 -25q-5 -3 -7 -5q-10 -14 -24 -22q-10 -7 -25 -12q-9 -3 -21 -8q-14 -5 -24 -7q-10 -3 -19 -4q-12 -2 -26 -1t-26 4q-11 2 -22 5q-14 4 -27 10.5t-27 17.5q-11 9 -23 21q-16 16 -24 31q-7 13 -11 30q-3 12 -6 24.5t-5 22.5
t-4 19q-4 19 0 36l1 7q4 19 21 31t37 8t31.5 -21t7.5 -37l-1 -5q2 -8 4 -18q2 -9 4.5 -20t5.5 -22q1 -5 3 -9q2 -3 6 -7q8 -8 16 -14q5 -5 9 -7t8 -3l16 -4q6 -1 12 -1h5q5 0 9 2q6 1 16 5l21 7q3 1 5 2v1q9 11 24 22q3 2 4 4q3 5 9 18t8 32q2 23 2 33v42q0 10 1 22
q1 9 1 17v37q0 8 1 19v12v20q1 12 1 21l2 20q0 7 1 19v19q0 9 1 18q1 5 1 18v25q1 7 1 20q1 13 3 30q1 17 2 28q0 6 -1 11q-1 14 -1 24v7q0 21 14.5 35.5t34.5 14.5z" />
    <glyph glyph-name="K" unicode="K" horiz-adv-x="578" 
d="M501.5 639.5q7.5 -18.5 0 -37.5t-26.5 -27l-7 -3l-3 -3q-7 -7 -12 -13q-6 -7 -17.5 -20.5t-23.5 -26.5q-12 -12 -26 -28q-15 -16 -24 -24q-7 -7 -25.5 -23t-28.5 -24q-11 -10 -22 -17q-5 -4 -14 -11q4 -5 7 -10q4 -5 14 -18q8 -13 13 -18q6 -7 18 -19q14 -16 22 -26
q5 -8 14 -20t14 -18t19 -21q15 -19 21 -29q3 -6 9 -15q5 -8 16 -21l24 -30q13 -16 25 -32t22 -32q10 -15 15 -23l6 -8q12 -17 8.5 -37.5t-20 -32t-37 -8t-32.5 20.5l-6 8q-6 9 -17 25q-9 14 -19.5 28.5t-21.5 28.5l-24 30q-14 17 -22 29q-7 11 -12 19q-2 4 -11 14
q-13 16 -19 22q-6 8 -17 22q-10 14 -16 22q-4 5 -14 16q-13 14 -20 22q-7 9 -18 24q-11 14 -15 21q-2 2 -6 7q-4 -2 -7 -4q-13 -9 -21 -14l-8 -6q-6 -5 -14 -7q0 -9 -1 -18q-1 -4 -1 -8v-17q1 -13 1 -32v-64v-19q0 -13 -2 -24q-1 -5 -1 -8v-16v-17q-1 -17 -1 -22v-7
q0 -20 -14.5 -34.5t-35 -14.5t-35 14.5t-14.5 34.5v7q0 8 1 22v17v16q0 10 2 22q1 5 1 12v17v64v28q-1 13 -1 22q0 10 2 22v16v25q0 11 1 23q1 10 2 24q1 16 2 26q1 8 2 24v23v18v23q-1 15 -2 23q-1 10 -1 19v21v17q-1 10 -1 19v19q-1 15 -1 26q0 1 10 5t24 9t28.5 8t25 0
t11.5 -14l1 -7q1 -7 -1 -15v-7q1 -15 1 -24q0 -5 1 -10v-26v-21q0 -5 1 -12q1 -9 1.5 -26t0.5 -27v-18q0 -10 -1 -27v-9q2 1 4 3q12 9 22 16q9 6 26 19q19 14 28 21q8 5 16 12l27 24q17 15 24 21l19 19q14 15 25 28q11 11 22 23q10 13 16 19q7 9 18 20q16 16 33 24l9 3
q18 8 37.5 0t27 -26.5z" />
    <glyph glyph-name="L" unicode="L" horiz-adv-x="527" 
d="M39 29q-7 28 15 48v165q0 8 1 24q1 13 1 20v20q1 7 2 16v21q0 14 -1 20q0 10 1 28v21t-1 25q-1 18 -2 23q-1 9 -1 20q-1 8 -2 23q-2 19 -2 28v12q-1 10 -2 26t-2 29q-2 15 -2 23l-1 8q-1 20 13 35.5t34 16.5t35.5 -13t16.5 -34l1 -7q0 -7 1 -20q2 -15 3 -32q1 -16 1 -24
q1 -11 1 -20q0 -5 2 -19q1 -18 2 -28v-10q2 -9 3 -31t1 -31v-25q-1 -14 -1 -19q1 -8 1 -24q0 -17 -1 -28q0 -11 -1 -19v-11q0 -10 -1 -25q-1 -13 -1 -19v-143q15 1 22 1q5 0 11 1q11 2 30 1q12 -1 19 -1h79q12 0 17 1l20 2h18h19q12 0 21 -1t17 -2q4 -1 8 -1h7
q20 -1 34.5 -15.5t14 -35t-15.5 -35t-35 -13.5h-7q-11 0 -22 2q-6 1 -11 1q-4 1 -11 1h-19h-15q-4 -1 -10 -1q-11 -2 -30 -2h-79q-9 0 -24 1h-12l-20 -2q-8 0 -22 -1q-13 0 -19 -1q-10 -1 -19 -2q-3 0 -8 -1l-12 -3q-19 -5 -37 5.5t-23 30.5z" />
    <glyph glyph-name="M" unicode="M" horiz-adv-x="715" 
d="M630 744q21 -1 34.5 -16t12.5 -35v-14q-1 -13 -1 -19q0 -8 -1 -24v-27q0 -15 -1 -34v-33q-1 -14 -1 -21v-22v-32q-1 -15 -1 -20v-19q0 -16 -3 -36q-1 -13 -1 -18t2 -18q2 -18 2 -36q0 -13 1 -28q2 -19 2 -34v-25q1 -15 2 -32q1 -18 1 -28q-1 -7 -1 -14v-21q-1 -9 -1 -15
q0 -9 -1 -17q0 -7 -1 -16q-1 -6 -1 -11v-61q0 -20 -14.5 -34.5t-34.5 -14.5t-35 14.5t-15 34.5v61q0 11 1 21q1 8 2 13v10q0 9 1 21v15q0 8 1 17q0 6 -1 21t-1 30q-1 17 -1 31q0 11 -2 26q-1 19 -1 36q0 11 -2 24q-2 18 -2 29q0 10 2 31q2 15 2 24v19q0 7 1 24v28v17
q-1 -4 -3 -7q-6 -13 -11 -25q-6 -14 -14 -29q-6 -14 -17 -38q-10 -23 -15 -35q-5 -15 -11 -28q-5 -11 -13 -34q-10 -27 -15 -39q-3 -7 -9 -27q-6 -19 -7 -25q-1 -9 -6 -30q-5 -23 -12 -40q-5 -14 -8 -25q-5 -13 -8 -21q-2 -6 -5 -14l-2 -8q-1 -4 -3 -7q-1 -32 -30 -44
q-19 -8 -38 0t-27 26l-4 11q-6 13 -11 32q-4 15 -7 24.5t-7 18.5q-5 12 -8 21q-3 8 -7 24q-4 13 -7 20q-2 7 -9 23q-8 20 -13 32q-4 12 -13 37q-7 23 -12 33q-5 12 -16 36q-12 25 -17 38q-6 12 -18 41q-12 28 -18 41q-3 7 -10 19v-15q-1 -21 -1 -32q-1 -10 -1 -20
q0 -11 1 -29q0 -20 1 -29v-30q1 -19 1 -27q0 -6 1 -21q1 -18 1 -27v-25v-49q0 -18 -1 -29q0 -7 -2 -22q-1 -16 -1.5 -23.5t-2.5 -21.5q-1 -7 0 -16q2 -18 2 -30t-2 -25l-1 -10q-3 -20 -19.5 -32.5t-36.5 -9.5t-32.5 19.5t-9.5 36.5l1 10q1 6 1 11q0 6 -1 19q-3 21 0 40
q1 12 2 19t2 21q1 16 2 25v18v49v25q0 5 -1 19q-1 18 -1 29q0 9 -1 26v26q-1 11 -1 30q-1 21 -1 34t1 24q0 9 1 29v11.5v11v7.5q1 11 2 33q2 20 2 30q1 9 0 22v19q-1 4 -3 9l-5 15q-6 19 3.5 37.5t28.5 24.5q8 3 17 3q1 1 3 2q18 10 38 4t29 -24l8 -14q9 -17 14 -30
q3 -9 12 -30q8 -20 13 -29q4 -8 15 -27q15 -23 22 -40q6 -14 19 -43q12 -28 18 -41q5 -12 16 -36t17 -36q6 -14 15 -42q9 -25 13 -36q3 -10 10 -26q8 -19 11 -28h1q2 9 8 31q8 26 13 39q4 9 12 32q10 27 16 41q5 11 10 23q5 15 17 41q11 24 18 39q6 13 11 26q7 14 14 29
q6 13 10.5 23.5t12.5 33.5q9 26 15 38q6 14 21 35l13 17q11 16 31 20q15 27 45 25z" />
    <glyph glyph-name="N" unicode="N" horiz-adv-x="630" 
d="M558.5 748.5q19.5 -6.5 28.5 -25t2 -37.5l-3 -11q-3 -9 -4 -14q-2 -7 -4 -24q-2 -15 -2 -22q0 -10 -1 -32v-31q0 -14 -4 -39q-2 -21 -3 -29q0 -7 1 -26q1 -25 0 -36q-1 -6 -1 -22v-26q0 -9 -1 -19q0 -11 -1 -22q-1 -8 -1.5 -23.5t-0.5 -21.5q0 -5 1 -12q1 -12 1 -21v-27
q-1 -19 -1 -25v-20q0 -14 -1 -34q-2 -16 -1 -25q0 -11 1 -23q1 -15 1 -24v-6q0 -21 -15 -36q1 -16 -8 -30.5t-25 -20.5q-19 -7 -37.5 2t-25.5 28l-4 9q-3 8 -5 15q-2 5 -10 17q-8 13 -16 22q-10 13 -15 21q-6 10 -14 28l-9 21q-2 5 -9 19q-7 15 -10 21q-3 5 -12 19
q-10 17 -15 26q-4 8 -11 20q-6 11 -18 32q-12 20 -19 31q-7 12 -21 34q-15 23 -22 36q-6 11 -25 38t-28 40q-10 13 -28 36q-9 11 -15 19q-1 -2 -1 -4v-34v-37q-1 -11 -1 -21q0 -14 -2 -39q-2 -21 -3 -31q-1 -13 -3 -26q-1 -8 -1 -22q0 -15 1 -24v-23v-23q0 -12 1 -17v-20
q-1 -8 -1 -19t1 -28q1 -20 0 -33q-1 -9 -1 -13v-37q0 -21 -14.5 -35.5t-34.5 -14.5t-35 14.5t-15 35.5v37q0 8 1 19q1 8 0 23q-1 19 -1 32t1 23v11q-1 8 -1 22v23v16q-1 12 -1 31q0 21 2 35l2 20q1 12 3 35q2 19 2 28q0 12 1 25v33v37l2 26q0 14 2 35q2 19 2 26.5v16.5
q0 4 -1 12q-12 13 -13.5 30.5t8.5 31.5q12 17 32.5 20.5t36.5 -8.5l9 -6q14 -10 25 -22q10 -11 25 -36q10 -18 17 -26q9 -10 18 -21q10 -11 29 -36q19 -24 30 -38t31 -44q20 -29 28 -43l21 -33t21 -34q8 -12 21 -34q12 -22 19 -34q7 -13 11 -20.5t13 -22.5q10 -16 14 -24
q4 -7 12 -23q3 -7 5 -11v4q0 8 1 28v24v9q-1 11 -2 19q0 10 0.5 29.5t1.5 31.5q1 8 1 15q1 8 1 15v27q0 19 1 29v24q-1 24 0 37q0 11 3 34q3 19 3 27v34q1 20 1 29q0 13 3 35q3 20 5 30q2 12 7 26l4 12q6 19 24.5 28t38 2.5z" />
    <glyph glyph-name="O" unicode="O" horiz-adv-x="665" 
d="M343 589h-3q-12 0 -21.5 -1t-18.5 -1q-6 -1 -13 -2q-7 -2 -13 -4q-4 -1 -11 -5q-10 -5 -16 -9t-12 -8.5t-17 -14t-20.5 -20t-15 -17t-11.5 -14.5q-4 -6 -8 -15q-5 -11 -11 -27q-6 -14 -8 -21t-3.5 -17t-1.5 -16q-1 -8 -2 -20v-20t1 -22q2 -14 2 -19q1 -8 3 -18
q1 -7 1 -10q2 -7 7 -26q4 -18 8 -33q4 -16 6 -29q1 -6 3 -11q4 -9 10 -22q4 -11 9 -19q8 -10 11 -15q5 -6 10 -13q2 -4 11 -12q10 -10 19 -18q7 -6 14 -11q6 -4 16 -8q12 -5 21 -8t13 -3q7 -1 16 -2h20q12 1 24 3q17 3 25 4q5 1 14.5 3.5t23.5 7.5q11 4 15 6q5 3 16 10
q10 7 16 12l13 13q2 2 8 11q7 10 11 18t6 15q3 9 6 23q3 15 5 29q2 16 3.5 29t1.5 22q1 10 2 23v21v22q-1 13 -2 28q0 11 -2 22q-1 6 -2 9q-6 12 -10 28q-3 12 -7 24.5t-9 24.5q-5 16 -9 28q-1 6 -3 10q-1 1 -2 1q-6 6 -14 12t-13 9q-10 5 -24 15q-6 5 -19 10q-20 9 -38 18
l-16 8q-8 5 -15 12zM409 662l11 -5q14 -8 30 -15q24 -9 39 -21q9 -6 14 -9q10 -6 23 -15t23 -19q15 -13 24 -30q6 -13 10 -28q2 -8 6 -19q6 -14 10.5 -29t8.5 -29q2 -9 4 -14q6 -13 10 -33q2 -16 3 -34q1 -15 1 -27q1 -15 1 -27.5t-1 -26.5q0 -13 -1 -23q-1 -11 -2.5 -25.5
t-3.5 -31.5q-2 -19 -6 -38t-9 -32q-5 -15 -12 -29t-16 -29q-11 -16 -21 -26q-8 -8 -17 -16q-11 -10 -26 -21q-15 -9 -22 -14q-10 -6 -31 -13q-19 -7 -34 -10.5t-24 -5.5q-6 -1 -22 -3q-19 -4 -37.5 -4.5t-30.5 0.5q-11 0 -21 2q-12 1 -28 6q-16 4 -34 12q-20 9 -33 18
q-12 9 -23 19q-10 8 -22 20q-15 15 -22 24q-4 6 -9 12q-5 7 -14 20q-10 16 -18 34q-7 15 -11 26q-5 14 -8 29q-2 10 -5 24q-4 15 -8 33q-4 17 -6 23q-3 10 -4 23q-2 10 -3 17q-1 8 -2 24q-2 16 -2 29.5t1 27.5q0 13 1 22q1 10 3.5 24.5t5.5 25.5q3 13 10 32q8 19 14 33
q8 17 17 30q8 11 15 20q8 9 20.5 22.5t26.5 26t23 19t18.5 13t22.5 13.5q15 8 29 12q11 3 23 6q13 3 25 3q9 1 19 2q10 0 22 1q15 1 24 1h7q29 0 44 -27z" />
    <glyph glyph-name="P" unicode="P" horiz-adv-x="540" 
d="M79 671q14 2 28 -4h4h110q9 0 20 -1q11 0 20 -1q6 -1 13 -1q9 -1 21 -2q12 0 24 -1t23 -2q15 -1 26 -5q6 -1 12 -3q9 -2 21 -7q14 -6 24 -12q8 -5 17 -12q13 -9 23 -23q7 -10 12 -17q6 -9 11 -21t8 -23t4 -20q1 -7 2 -15q1 -10 1 -20v-15q0 -11 -2 -23q-2 -11 -5 -22
q-2 -9 -7 -24q-6 -16 -11 -28q-6 -14 -13 -24t-17 -21q-8 -9 -16 -17t-16 -14q-9 -7 -20 -14q-8 -5 -16 -9q-12 -8 -25 -13l-14 -6q-13 -5 -29 -8q-14 -3 -30 -3q-14 -1 -21 -1q-10 0 -26 2q-10 2 -14 2q-9 0 -24 2q-16 1 -24 2l-18 3l-12 2h-3v-15q1 -18 1 -31v-85
q0 -13 -2 -26q-1 -6 -1 -9v-41q0 -20 -14.5 -34.5t-34.5 -14.5t-35 14.5t-15 34.5v41q0 10 2 23q1 6 1 12v85q0 11 -1 27v24q-1 8 0 23q1 11 1 21v52q0 11 -1 27v31q0 15 1 26v15v22q0 8 -1 19q-2 17 -2 36v21q-1 14 1 29q1 8 2 15q0 3 -1 8l-2 11q-4 20 8 37t32 21z
M141 349q8 2 16 1l12 -2q11 -2 18 -3q6 0 19 -2q13 -1 19 -1q9 -1 24 -3q9 -1 12 -1q5 0 17 1q10 0 16 1q5 1 8 2l18 8q4 1 8 4q8 5 17 10q6 3 9 6l10 8q5 6 11 12q4 5 7 9t5 10q4 8 8 20q4 13 6 18q1 5 2 11q1 5 1 9v14q0 5 -1 11q0 6 -1 11q0 3 -2 9q-1 3 -2 7q-2 5 -4 8
q-3 4 -8 11l-3 3q-6 4 -10 7l-8 4q-7 2 -11 3l-14 4q-3 1 -8 2q-9 1 -19 1q-11 1 -23.5 1.5t-20.5 1.5q-10 0 -20 1q-7 1 -15 2h-13h-83v-3q-1 -4 0 -7v-29q0 -14 1 -26q2 -17 2 -29v-22q0 -13 -1 -23v-18v-27q1 -18 1 -31v-4z" />
    <glyph glyph-name="Q" unicode="Q" horiz-adv-x="634" 
d="M358.5 252q18.5 8 37.5 0t27 -27l5 -12q3 -7 7 -12q7 -9 17 -21q1 5 2 9q4 20 7 36q3 12 4 22t1 24v27q0 11 2 26q1 12 1 22v19q0 5 -0.5 15.5t-2.5 25.5q-2 16 -3 22l-3 18q-1 10 -4 24q-2 10 -7 21q-3 8 -7 12q-6 7 -12 11q-8 6 -22 14q-16 9 -22 13q-4 2 -12 5l-11 4
q-15 7 -24 22h-14q-14 -1 -30 -2q-14 -1 -27 -4q-10 -2 -23 -7q-15 -7 -22.5 -11.5t-12.5 -9.5q-5 -4 -15 -14q-8 -10 -16 -21q-9 -14 -11 -19q-2 -3 -5 -11q-4 -11 -9 -29q-5 -15 -6 -20q-2 -8 -4 -21t-3 -19q0 -7 -1 -14t-2 -21q-1 -13 -1 -17t1 -14q1 -13 4 -39
q2 -23 5 -36q3 -14 5 -22q2 -9 5 -22q2 -10 6 -23q5 -13 11 -26q5 -13 11 -21q6 -9 11 -16q3 -3 8 -7q8 -6 19 -11.5t23 -9.5q11 -4 23 -6q13 -2 23 -2q12 0 26 1q16 1 26 3q8 1 18 3q6 1 12 5q8 4 16 10l-14 16q-12 15 -20 26q-12 15 -19 34l-5 12q-8 19 0 38t26.5 27z
M420 634q8 -3 15 -7t23 -14q18 -10 30 -19q13 -10 27 -24q16 -17 26 -41q8 -20 12 -39q3 -17 5 -29t3 -19l3 -24q2 -18 3 -31.5t1 -21.5v-19q0 -15 -2 -31q-1 -11 -1 -18v-25q0 -20 -2 -36q-1 -16 -5 -34q-4 -14 -6 -29q-4 -19 -8 -32q-4 -12 -10 -25q-5 -11 -11 -22
q-2 -3 -3 -5l6 -8q10 -14 21 -29q9 -14 13 -20q6 -9 13 -20q4 -7 9 -15l6 -9q11 -17 7 -37.5t-21 -31.5t-37 -6.5t-31 20.5l-6 9q-7 10 -13 21q-4 7 -7 12q-5 6 -15 21q-8 12 -17 23q-13 -9 -25 -16q-19 -11 -38 -15q-15 -4 -28 -6q-12 -1 -30 -3q-19 -1 -35 -1q-18 0 -39 3
q-20 3 -40 10q-19 7 -36 16t-31 19q-17 12 -28 26q-7 10 -16 23q-9 14 -18 33q-9 18 -15 37q-6 18 -9 34q-3 12 -4 19q-3 9 -6 25q-4 18 -6 46q-3 26 -4 38q-2 16 -2 25q0 8 2 25q1 16 1.5 22.5t1.5 14.5q1 9 4 25q2 16 4 24q2 10 8 31q6 19 11 31q5 16 10 26q5 8 16 25
q12 19 27 35q13 15 23 23q11 9 24.5 17.5t34.5 17.5q23 11 44 15q18 3 38 5q18 1 33 2q20 1 33 -1q7 -1 15 -2l10 -1q14 -1 25.5 -10t16.5 -23z" />
    <glyph glyph-name="R" unicode="R" horiz-adv-x="547" 
d="M281 279q-11 -1 -22 -1q-24 -1 -36 0q-9 1 -28 2q-15 1 -22 2q-10 0 -25 2q-4 0 -8 1v-10q-1 -18 -1 -25q-1 -7 -1 -22v-38v-23q-1 -12 -1 -17v-18q0 -9 1 -19q1 -14 2 -23v-15v-6q0 -20 -15 -34.5t-35 -14.5t-34.5 14.5t-14.5 34.5v6v13q0 5 -2 16q-1 15 -1 28v18
q0 8 1 22v18v38q0 16 1 25q0 9 1 28q1 18 1 24q0 4 -1 19q-1 22 1 35q0 8 1 24v27v14q-1 11 0 32q0 19 1 27q0 11 1 23q1 7 1 24v44q0 10 1 25q1 11 2 20v11q0 19 13.5 33t32.5 15q6 2 17 5q19 4 31 5h20q17 1 26 1h15q9 0 26 -1t32 -2l22 -2q8 -1 27 -4q21 -3 31 -6
q7 -2 17 -5q10 -4 20 -7q18 -7 34 -22q8 -7 15 -12q13 -11 23 -25q7 -10 13 -22q6 -13 11 -32q6 -19 7 -33q0 -8 1 -17q3 -17 -2 -40q-3 -19 -9 -36q-7 -20 -19 -37q-10 -15 -23 -29q-13 -15 -25 -23q-11 -9 -24 -16q-2 -1 -5 -2q2 -3 4 -5q11 -14 25 -35q15 -23 25 -42
q9 -18 16 -35q5 -13 12 -26q9 -15 15 -26q7 -12 12 -21l10 -18q4 -9 8 -19l3 -7q7 -19 -1 -38t-27 -26.5t-38 1t-26 26.5l-3 7q-2 6 -5 12q-3 7 -7 14q-5 8 -11 19q-7 12 -16 28q-10 18 -18 36q-5 14 -13 29q-7 13 -18 31q-13 18 -22 30q-11 15 -19 27zM142 386l4 -1
q4 -2 13 -3q12 -1 18 -2q9 0 26 -1q18 -2 28 -2q7 -1 26 0q13 0 24 4q17 7 30 13q14 6 22 11q7 3 12 7t12 12q8 9 14 17q5 7 7 15q4 10 6 21q1 7 1 10l-2 22q-1 5 -3.5 14.5t-4.5 13.5q-2 5 -6 10q-1 2 -3 4q-9 7 -20 16l-2 2q-8 3 -16 5q-8 3 -15 5q-4 1 -17 3q-16 3 -21 3
l-21 2q-14 1 -29 2q-14 1 -21 1h-18h-18q-14 -1 -22 -1q-1 -10 -1 -15v-44q0 -22 -1 -35q-1 -8 -1 -15q-1 -9 -1 -27q-1 -16 0 -21v-22v-24z" />
    <glyph glyph-name="S" unicode="S" horiz-adv-x="496" 
d="M401.5 596q-2.5 -20 -18.5 -33t-36 -11l-10 1q-7 1 -27 1q-23 1 -32 1q-6 0 -12 -1q-4 0 -13 -2q-14 -4 -24 -6q-5 -1 -19 -7q-13 -5 -24 -13q-11 -7 -21 -21q-12 -16 -17 -25q-4 -9 -6 -17q-2 -12 -3 -16.5t-2 -15.5q0 -8 1 -19t4 -21q2 -7 7 -12q8 -10 15.5 -17
t16.5 -13q8 -5 13 -7l14 -6l12 -4q12 -2 34 -9l30 -9q9 -3 17 -5q5 -1 9 -2q10 -1 24 -5q14 -3 22 -5q7 -3 18 -7q16 -5 32 -17q17 -12 30 -30q16 -21 20 -47q3 -20 2 -40q-2 -18 -7 -34q-4 -14 -9 -26q-7 -15 -20 -32q-10 -12 -21 -23q-15 -15 -34 -25q-18 -10 -40 -17
q-21 -6 -32 -7q-6 -1 -21 -4q-20 -3 -32 -3t-29 1q-19 2 -48 11t-42 16q-15 8 -34 25l-14 12q-15 14 -16 34.5t13 35.5t34.5 16t35.5 -13l14 -12q8 -8 12 -10q6 -3 26 -9t29 -7q12 -1 17 -1t17 2q16 2 24 4q5 1 18 4q12 4 20 9q7 3 12 8q7 7 15 16q4 6 5 9q3 6 6 14
q1 6 2 15q1 8 0 16q-1 1 -2 3q-4 6 -8 9q-5 3 -9 4q-8 3 -13 5t-16 4q-9 2 -15 3q-11 2 -23 5q-8 3 -19 6q-9 3 -29 8q-17 6 -28 8t-23 7q-11 4 -21 9q-12 5 -26.5 14.5t-27.5 21.5q-14 12 -27 28q-17 21 -24 45q-7 20 -9 41q-2 20 0 37q1 15 2 23t5 24q5 19 13 37
q9 18 27 42q20 26 43 42q21 15 44 24q22 9 35 12q8 2 21 5q18 4 29 5q10 1 20 1q9 0 33 -1q25 0 37 -1l10 -1q20 -3 33 -19t10.5 -36z" />
    <glyph glyph-name="T" unicode="T" horiz-adv-x="613" 
d="M38.5 614q2.5 20 19 32.5t36.5 9.5l10 -1q8 -2 16 -3h16q15 0 24 -1h28h28t31 -1h28h23q16 1 26 1h18q9 0 23.5 -0.5t21.5 -1.5q4 -1 13 -1h26t27 1h24q14 1 25 1h16h8q20 0 34.5 -15t14.5 -35t-14.5 -34.5t-34.5 -14.5h-8h-17q-8 0 -19.5 -0.5t-26.5 -0.5q-14 -1 -29 -1
h-27q-13 0 -21 1q-5 1 -17 1h-1v-126q0 -17 1 -28q1 -14 1 -27v-19q1 -13 1 -27v-18q0 -3 1 -14q2 -16 2 -30v-131q0 -8 -1 -21q-1 -12 -1 -22q0 -12 -1 -22l-1 -9q-3 -20 -19 -33t-36 -10.5t-33 18.5t-11 36l1 9q1 7 1 15q1 10 1 23q1 11 1 16v131q0 9 -1 20q-2 16 -2 24
v18v21q-1 13 -1 25q0 10 -1 21q-1 14 -1 34v126h-17q-19 1 -28 1h-29h-28q-9 1 -24 1q-18 0 -28 1q-8 1 -17 3l-9 1q-20 3 -32.5 19.5t-10 36.5z" />
    <glyph glyph-name="U" unicode="U" horiz-adv-x="571" 
d="M526 384v-19v-28v-21q1 -15 -1 -31q-1 -7 -1 -17q0 -15 -1 -30l-2 -26q-1 -10 -1 -15q0 -14 -3 -27l-4 -14q-2 -9 -6 -19q-3 -10 -7 -19q-4 -11 -12 -24q-6 -11 -11 -18q-7 -12 -19 -23q-10 -10 -25 -21q-10 -8 -16 -12q-10 -9 -20.5 -14.5t-27.5 -11.5q-15 -5 -26 -8
q-9 -2 -15 -4q-10 -3 -21 -5q-8 -1 -18 -2t-21 -2q-15 -1 -28 1q-13 1 -26 5q-11 3 -20 6q-13 4 -25 11t-22 17q-4 3 -14 9q-20 14 -31 28q-7 8 -13 17q-11 14 -16 30q-3 9 -7 18q-6 16 -8 32q-1 5 -3 11q-4 12 -7 24q-3 15 -3 33q0 10 -1 15q-2 10 -3 20q-2 13 -2 25v24v21
q-1 12 -1 23v189q0 15 1 26q0 2 0.5 8.5t0.5 9.5q1 14 6 31l3 13q5 19 23 29.5t37.5 5.5t30 -23t5.5 -38l-4 -12q-2 -9 -2 -13q-1 -9 -1 -19q-1 -7 -1 -18v-189q0 -9 1 -17v-27v-24q0 -6 1 -12q1 -9 3 -18q2 -13 2 -29q0 -8 1 -12q1 -7 4 -15q5 -15 7 -30q0 -3 2 -7
q4 -11 8 -21q1 -3 3 -5q5 -8 11 -15q2 -2 7 -6q17 -11 27 -19q2 -3 5 -4.5t6 -2.5q7 -2 15 -5q6 -1 11 -2h10q10 1 18 1q7 1 12 2l8 2q8 2 18 5q9 2 20 6q9 3 12 4.5t6 4.5q7 6 20 15q8 6 14 12q3 3 5 6q4 6 9 15q4 5 5 9q2 6 5 14t4 14l4 14v1q0 8 1 22q2 14 3 26v23
q0 17 2 30q1 5 0 10q-1 13 0 31v24v29q1 13 1 21q0 12 2 27q1 10 1 18q0 11 1 26v26q0 17 2 33q1 10 1 15v17q0 6 -1 15v10q-2 21 12 36.5t34 16.5t35.5 -12.5t16.5 -33.5l1 -11q1 -12 1 -21v-17q0 -10 -2 -26q-1 -10 -1 -22q0 -17 -1 -31v-22q0 -12 -2 -27q-1 -10 -1 -17
q0 -10 -1 -29z" />
    <glyph glyph-name="V" unicode="V" horiz-adv-x="623" 
d="M542 702q20 -3 33 -19.5t10 -36.5l-1 -8q-2 -12 -7 -32q-5 -16 -10.5 -35t-7.5 -26l-6 -18q-4 -13 -7 -20q-2 -5 -6 -18l-4 -13q-3 -11 -7 -24q-4 -12 -8 -25q-4 -11 -7 -22q-3 -12 -7 -25q-4 -12 -8 -25q-4 -10 -7.5 -23.5t-4.5 -19.5q-2 -12 -8 -28l-10 -30
q-6 -16 -7 -21q-2 -6 -4 -17q-4 -14 -11 -37q-7 -21 -13 -38q-6 -16 -9 -26q-3 -11 -7 -23q-5 -15 -10 -26q-2 -5 -4 -12q-4 -12 -8 -23q-5 -12 -9 -21q-2 -5 -3 -9l-3 -7q-6 -19 -24.5 -28.5t-37.5 -3.5q-15 5 -25 18q-16 -2 -30.5 5.5t-21.5 22.5l-4 9q-5 10 -10 21
q-5 13 -9 28q-4 13 -6 22q-2 7 -4 15q-2 7 -6 15q-4 10 -10 26t-11 29q-4 12 -7 18q-3 7 -5 14q-3 8 -8 23q-4 13 -6 19q-4 9 -8 25q-2 12 -4 19l-4 14q-2 6 -5 16q-4 12 -6 19q-2 6 -3 10q-4 9 -10 28q-4 16 -7 22q-2 8 -7 21q-4 14 -6 23q-2 6 -8 22q-7 20 -11 32t-6 19
q-3 6 -5 12q-4 10 -8 26l-6 22q-3 12 -6 21q-4 12 -6 22l-1 6q-4 20 7.5 37t31.5 21t37 -7.5t21 -31.5l1 -7q1 -3 3 -10q4 -10 7 -23q4 -13 8 -27q2 -10 3 -13l6 -16q2 -6 7 -19q4 -11 11 -31q7 -21 9 -30q2 -6 6 -17q3 -12 6 -18q3 -9 8 -27q5 -16 7 -21l6 -18q2 -7 5 -17
q4 -11 6 -19l4 -14q2 -9 6 -23q2 -12 4 -16q2 -7 7 -21q4 -12 6 -17q2 -6 5 -12q3 -8 8 -22q5 -12 11 -28q5 -15 9 -24q5 -12 8 -23q4 -11 6 -20q2 -6 4 -16q3 6 5.5 11.5t5.5 14.5q4 13 7 23q3 12 10 29q5 16 12 36q6 19 8 29q3 13 6 21q2 8 8 27q7 17 11 30l4 12
q1 10 5.5 27t9.5 31q4 12 7 24q4 11 7 22q4 12 8 25l8 24q3 10 5 17q1 7 6 22q5 13 7 20q2 6 6 17t6 17t7 24t9 33q4 13 5 19l1 9q2 20 18.5 32.5t36.5 9.5z" />
    <glyph glyph-name="W" unicode="W" horiz-adv-x="783" 
d="M77.5 672q19.5 4 37 -7.5t21.5 -31.5l13 -61q12 -60 16 -72q4 -14 7 -28q4 -16 6 -25q1 -6 4 -18q3 -13 4 -21q2 -6 3 -12q3 -10 4 -19q1 -5 3 -17l4.5 -19.5t3.5 -13.5t3 -12q3 -10 6 -27q2 -13 3 -21q1 -7 3 -19q1 -6 3 -14q0 3 1 6l9 30q3 7 9 23q5 14 6 20q3 10 9 28
l10 34q3 9 3 14q1 13 7 32q5 16 8 25l6 21q4 16 7 23q1 3 1 6q1 9 5.5 24.5t8.5 28.5q4 11 9 25q4 11 5 16q3 15 21.5 26.5t41 11t33.5 -17.5q8 -12 15 -34q5 -13 9 -23q4 -12 11 -27q5 -14 8 -21q4 -8 11 -23q7 -17 10 -25q4 -10 8 -32q4 -17 6 -26l4 -16q1 -5 5 -17
q6 -15 8 -25q1 -3 5 -14q5 -14 11 -31q4 -14 9 -30q3 -8 6 -15q1 10 3 24q4 18 7 29q2 7 4 15q2 9 6 26l6 27q3 11 6 20q3 10 9 28q6 17 10 27q3 8 6 17q3 7 7 21q5 14 7 20t4 18q4 17 10 35l7 21q2 10 4 18l2 6l1 6q3 20 19.5 32t36.5 9t32.5 -19.5t9.5 -36.5l-1 -6
q-2 -10 -5 -20q-1 -5 -3 -13q-3 -10 -9 -28q-4 -13 -7 -25q-4 -16 -6 -25q-3 -8 -7 -23q-5 -16 -9 -26q-4 -9 -7 -17l-9 -24q-5 -15 -7 -22t-4 -16q-3 -9 -7 -26l-6 -27q-2 -10 -5 -20q-2 -6 -4 -19q-3 -13 -4 -22t-1 -15q-1 -6 -1 -20q-1 -15 -2 -25q-1 -14 -6 -32
q-4 -15 -9 -30t-6 -21q-3 -11 -9 -25q-5 -12 -13 -25q-3 -3 -9 -7t-22 -11t-28.5 -8t-24.5 8t-15 30q0 5 -1 11l-3 12q-4 12 -6 20q-1 5 -2 11q-2 6 -6 19q-5 15 -9 31t-7 26q-3 9 -6.5 21t-9.5 28q-6 18 -11 35q-4 14 -9 25q-5 15 -7 23q-2 5 -6 17q-6 16 -8 26l-4 18
q-3 9 -7 28q-2 14 -4 18q-2 5 -8 18q-4 -16 -7 -25q-2 -8 -7 -23l-3 -12q-1 -13 -7 -35q-6 -17 -11 -35q-5 -15 -7 -23q-3 -10 -9 -28l-9 -24q-2 -5 -6.5 -22t-7.5 -33q-3 -17 -6 -28q-1 -7 -3 -22q-3 -20 -8 -40q-3 -19 -5 -26q-1 -7 -3 -18l-2 -10q-4 -20 -21.5 -31.5
t-37.5 -7.5q-5 1 -10 3q-4 -1 -8 -1q-21 0 -35.5 14.5t-14.5 35.5v7q0 3 -1 8q-3 13 -4 23q-1 6 -4 19t-5.5 24.5t-5.5 22.5q-3 13 -5 27q-2 10 -5 22q-3 15 -5 28q-3 14 -4 22t-3 20q-1 9 -2 12q-3 9 -5 17l-4 16t-5 22t-4 22q0 4 -2 9q-2 9 -4 17q-1 7 -4 19q-3 14 -5 23
q-1 6 -4 17q-3 13 -7 26q-4 16 -17 79l-13 61q-4 20 7.5 37.5t31 21.5z" />
    <glyph glyph-name="X" unicode="X" horiz-adv-x="594" 
d="M537 694q16 -12 19 -32.5t-9 -36.5l-10 -14l-9 -12q-5 -10 -14 -24q-8 -11 -18.5 -29t-13.5 -24q-5 -8 -13 -22q-7 -12 -11 -20q-5 -8 -12 -21t-11 -20q-4 -6 -11 -19q-8 -16 -13 -25q-4 -6 -7 -12l-8 -16q-6 -11 -12 -20q-5 -7 -9.5 -14t-13.5 -19l-1 -1l2 -2
q7 -12 11 -19q4 -6 12 -20q9 -15 13 -22q3 -6 10 -18q6 -10 16 -25q13 -19 20 -29q6 -9 11 -18q8 -12 16 -26q5 -10 10 -18q7 -11 11 -18q4 -5 7 -11l10 -14l5 -7q11 -16 7.5 -36.5t-20 -32t-37 -8t-31.5 19.5l-5 8l-10 14t-10 15q-4 6 -10 16q-8 12 -16 27q-5 9 -9 16
q-6 10 -13 19q-5 9 -17 26q-13 19 -21 33q-7 12 -11 19q-3 6 -11 19v1q-5 -8 -7 -12q-3 -4 -9 -15q-6 -13 -13 -24q-3 -6 -9 -19q-5 -11 -13 -23q-6 -10 -13 -20q-5 -8 -9 -15q-5 -9 -9 -17q-5 -10 -12 -22q-8 -14 -14 -23l-5 -6q-11 -17 -31.5 -20.5t-37 8.5t-20 32.5
t8.5 36.5l4 7q3 4 9 13l10 20q5 9 10 19l14 22q6 8 11 18q5 7 8 15q7 13 13 24q5 8 10 18q6 14 11 21q5 8 14 21l16 24q4 5 6 9l-1 1q-10 17 -16 29q-8 13 -15 28q-4 8 -14 21q-16 22 -22 33q-2 6 -8 19t-10 20q-2 3 -7 10q-10 13 -19 25t-18 26q-10 14 -17 27q-4 7 -12 17
q-8 9 -15 14l-12 9q-16 12 -18.5 32.5t9.5 37t32.5 19t36.5 -9.5l12 -9q16 -12 31 -30q14 -17 22 -32q5 -9 13 -19q8 -12 16 -23.5t17 -23.5q13 -16 18 -28q4 -6 10 -19q6 -12 9 -20q3 -5 11 -15q17 -22 25 -39q2 -4 3 -8l4 6l7 15q5 10 11 20q4 6 11 19q7 15 12 22
q4 7 11 20q7 12 11 20q5 9 13 22q7 12 10 19q5 8 16.5 28t20.5 33q7 9 9 14q5 10 18 27l10 13q12 16 32.5 19t36.5 -9z" />
    <glyph glyph-name="Y" unicode="Y" horiz-adv-x="594" 
d="M529 658q18 -9 25 -28.5t-2 -37.5l-5 -9q-6 -13 -22 -35q-14 -20 -18 -26t-10 -14.5t-18 -24.5q-8 -12 -19 -28q-12 -18 -18 -26q-4 -5 -11 -16q-8 -13 -20 -31q-10 -15 -19 -30t-17 -31q-9 -17 -18 -31q-7 -12 -10 -19l-4 -7q0 -7 -1 -11v-19q-1 -12 -1 -23
q0 -13 -1 -22v-18v-20q0 -9 -2 -27q-1 -17 -2 -25q-1 -4 -2 -13t-1 -25q-1 -17 -1 -27q0 -14 -1 -25l-1 -9q-1 -20 -16.5 -33.5t-36 -12t-34 17t-11.5 35.5v9q1 8 1 18q0 12 0.5 30.5t1.5 30.5q2 12 3 20q1 4 2 18t1 18v20q0 15 1 25v16q0 12 1 26q-15 8 -22 23l-3 6
q-3 5 -8 14q-6 12 -12 23q-7 13 -11 22q-3 7 -9 19q-8 14 -11 23q-2 5 -5 10q-5 9 -13 26q-6 13 -9 18q-6 10 -15 26l-12 24q-2 5 -6 11q-5 8 -13 23l-12 21q-3 5 -6 11q-7 9 -15 24q-6 11 -11 20l-5 9q-11 18 -5.5 38t23 30t37.5 5t30 -23l6 -9q6 -10 13 -23q5 -10 8 -15
q6 -9 11 -18q5 -7 13 -22q7 -14 11 -20q6 -10 10 -19q3 -6 11 -21q7 -14 11 -20q6 -10 15 -28q6 -14 10 -20q5 -10 9 -19q2 -5 8 -17q7 -14 11 -23q2 -4 5 -9q2 5 5 10q10 17 19 34q11 18 23 36q11 16 18 28q9 14 16 22q4 6 15 22q12 19 23 34q10 13 15 19q5 8 9 14
q5 8 19 28q12 16 14 22l5 9q9 18 28.5 24.5t37.5 -2.5z" />
    <glyph glyph-name="Z" unicode="Z" horiz-adv-x="599" 
d="M39.5 635.5q5.5 19.5 24 29.5t37.5 4l9 -2q2 -1 4 -1h12q10 0 28 -2q13 -1 20 -1q10 0 27 -1h21h18h46h12q10 1 20 1h22q12 0 21 1q13 1 26 1h17h13q10 1 22.5 1.5t19.5 0.5q22 0 35.5 -14t17 -27.5t2.5 -22.5q-2 -24 -21 -48q-11 -13 -20 -24q-8 -10 -14 -20
q-8 -10 -16 -23q-8 -11 -18 -25t-19 -26q-8 -11 -17 -23q-8 -11 -11 -16q-5 -9 -15 -22q-8 -11 -17 -23q-8 -11 -14 -20q-5 -9 -9 -15l-8 -14t-13 -21t-23 -33q-11 -16 -22 -33q-11 -18 -15 -24l-16 -24l-15 -24l-10 -18q-6 -10 -14 -24h21q16 -1 33 -1h31q8 -1 16 -1h17h20
q15 -1 33.5 -2.5t31.5 -4.5q9 -1 14 -2h16q15 0 32 -2q12 -1 18 -1h12q13 2 28 -1l9 -1q20 -3 32.5 -19.5t9.5 -36.5t-19.5 -32.5t-36.5 -9.5l-9 1q-4 1 -6 1q-10 -1 -20 -1t-27 1q-12 2 -23 2q-16 0 -26 1q-9 1 -22 3q-9 2 -23.5 3.5t-25.5 1.5h-18h-17q-12 0 -23 1h-24
q-19 0 -36 1q-17 0 -27 1q-9 0 -17 -1q-11 -1 -26 -2q-16 -1 -29 -1t-28.5 15t-22 34.5t9.5 39.5q2 2 3 5q5 11 12 21l8 14q5 11 14 26q8 12 13 20q5 9 11 19t18 29q11 17 15 23t15 23q12 19 25 38q12 16 20 28q8 13 11 18q4 7 7 13q5 8 12 19q7 12 17 25q9 13 18 25
q7 9 9 14q5 8 16 22q9 13 18 25q8 10 17 23t18 25q7 11 14 21q-4 0 -7 -1q-13 -1 -29 -1h-22h-13q-10 -1 -19 -1h-46h-16h-28q-14 1 -22 1q-11 0 -29 2q-14 1 -19 1h-14q-13 0 -29 5l-9 2q-20 6 -30 24t-4.5 37.5z" />
    <glyph glyph-name="bracketleft" unicode="[" horiz-adv-x="315" 
d="M277 690q-2 -20 -18 -33t-36 -11h-7q-4 1 -11 1h-33q-5 0 -20 -2q-8 -1 -14 -1v-17v-26v-20q1 -13 1 -26v-51q0 -14 -1 -23v-8q0 -6 1 -21v-23v-165q0 -18 0.5 -27.5t0.5 -18.5t1 -19q1 -12 1 -31v-24v-18v-16q1 -10 1 -28v-26q0 -4 1 -17q2 -17 2 -26v-62q16 -2 31 -4
q16 -2 23 -3h7l7 1q20 2 35.5 -11.5t17.5 -33.5t-11.5 -36t-33.5 -18h-7q-11 -1 -23 0q-9 0 -28 3q-16 2 -34 4q-20 2 -33 4q-17 3 -35 19.5t-16 43.5q1 5 1 10v83q0 4 -1 17q-2 17 -2 26v24q0 18 -1 25v21v16v27q0 15 -1 24q0 11 -0.5 21t-1 20.5t-0.5 29.5v165v20
q-1 16 -1 23q0 9 1 18v14v51v21q-1 13 -1 25v26q0 12 -1 19v9.5t1 12.5q2 18 12 37q19 32 51 34q5 1 13 2t27 3q20 2 30 2h33q12 0 21 -1l7 -1q20 -2 33 -18t11 -36z" />
    <glyph glyph-name="backslash" unicode="\" horiz-adv-x="446" 
d="M66 688q18 9 37.5 2t28.5 -25l5 -10q5 -10 12 -25.5t10 -23.5q2 -6 9 -23q9 -19 14 -30q5 -12 11 -27q6 -14 9 -22q3 -7 12 -27q7 -18 10 -23q3 -7 6 -15q4 -9 11 -27q8 -18 11 -27q2 -7 5 -14q2 -6 7 -20q6 -15 9 -22q3 -8 8 -23l9 -21t7 -14q5 -11 11 -30q6 -16 9 -23
q4 -10 7 -22q2 -7 7 -21q5 -15 8 -20q2 -7 8 -21.5t8.5 -21.5t9.5 -26q6 -18 12 -33q6 -17 9 -26q1 -4 5 -15q4 -12 9 -22l4 -10q8 -19 0.5 -38t-26 -27.5t-37.5 -1t-28 26.5l-4 11q-5 11 -11 26q-6 16 -8 24q-1 4 -6 17q-6 16 -12 35q-7 18 -9 24t-7.5 19.5t-7.5 19.5
q-4 7 -10 25q-7 19 -10 30q-1 6 -3 11q-3 8 -10 26q-5 14 -8 20q-4 9 -8 17q-4 9 -10 26q-6 15 -9 23q-3 7 -8 21q-6 15 -8 23l-6 14q-2 7 -9 24q-6 17 -9 22q-3 7 -6 13q-4 8 -12 29q-8 20 -11 26q-3 7 -9 22q-6 14 -11 25q-5 12 -13 30q-8 19 -11 26q-2 6 -8.5 20
t-10.5 23l-5 10q-9 18 -2 37.5t25 28.5z" />
    <glyph glyph-name="bracketright" unicode="]" horiz-adv-x="280" 
d="M39.5 665.5q-5.5 19.5 4.5 37.5t30 23l11 3q17 5 34 6h20h30q20 0 35.5 -12.5t21.5 -28.5t6 -33v-19v-21v-30q-1 -18 -1 -31q-1 -10 0 -14q0 -8 1 -23v-25q0 -8 -1 -18q-1 -6 -1 -11v-14v-25q-1 -15 -1 -22v-56q0 -15 1 -20q1 -9 2 -25q1 -18 1 -28q0 -6 1 -14v-21
q0 -8 1 -22v-13q2 -12 2 -22q0 -6 1 -18q1 -15 1 -23v-17q1 -12 1 -30q1 -16 2 -26q1 -6 1 -14t-1 -16q0 -6 -1 -18q-1 -10 -1 -25v-23q1 -15 1 -25t-1 -20q-2 -27 -21 -45q-21 -20 -48 -20q-6 0 -15 -1q-10 0 -20 -1q-13 -1 -23 -1h-24q-21 0 -35.5 14.5t-14.5 35t14.5 35
t35.5 14.5h24q6 0 16 1q6 0 13 1v4q-1 12 -1 31t1 33q1 11 1 17q1 5 1 9t-1 8q-1 8 -2 27q0 18 -1 31v21q0 5 -1 18q-1 15 -1 23v6q-2 9 -2 27q-1 15 -1 24v15q-1 11 -1 21q0 5 -1 19q-1 15 -2 23q-1 10 -1 30v56q0 9 1 26v21v14q0 9 1 19q1 8 1 14v18q-1 14 -1 20
q-1 9 0 24q0 11 1 28v29v15h-12q-4 0 -9 -2l-11 -3q-19 -5 -37.5 5t-24 29.5z" />
    <glyph glyph-name="asciicircum" unicode="^" horiz-adv-x="400" 
d="M74.5 296.5q-19.5 5.5 -30 23.5t-4.5 37l3 11q3 14 8 24q5 11 12 21q3 6 6.5 11.5t7.5 14.5q6 12 10 19q3 7 5 13q4 7 10 21l12 24q6 14 13 28q6 11 13 22q5 9 10 19q6 13 10 22q5 13 13 24q17 21 46.5 20.5t44.5 -18.5q12 -15 18 -35q3 -10 9 -29q3 -13 6 -22
q4 -10 7 -21q5 -13 10 -32q3 -16 7 -27l4.5 -16.5t5 -16t6.5 -20.5l6 -18q4 -11 7 -22q2 -7 5 -12l3 -9q8 -19 0.5 -38t-26.5 -27t-38 0t-27 27l-4 8q-4 11 -7 22q-3 10 -6 18q-3 10 -7 20q-3 10 -6.5 21t-5.5 17q-2 7 -6 19q-3 12 -8 30q-3 13 -5 22q-5 -8 -8 -16
q-5 -12 -12 -26t-9 -20q-4 -7 -7 -15q-4 -6 -10 -19t-11 -21q-5 -9 -10 -17l-4 -6q-1 -3 -3 -10l-3 -11q-5 -19 -23 -29.5t-37.5 -5z" />
    <glyph glyph-name="underscore" unicode="_" horiz-adv-x="548" 
d="M38 -23q-2 20 11.5 36t33.5 18h8q10 1 20 1h16q10 0 22 -1q12 0 20 -1q5 -1 11 -1h16q10 0 20 -1q8 0 18 -1q8 -1 11 -1q10 1 21 0q10 -1 20 -3q8 -1 15 -3h8h14q11 1 21 1h46q10 0 20 -1q4 0 10 -0.5t8 -0.5q8 -1 13 -1h18l7 -1q20 -2 33 -18t11 -36t-18 -33.5
t-36 -11.5l-7 1h-8q-9 0 -20 1q-3 1 -9 1t-9 1h-13h-46h-13q-11 -1 -22 -1q-13 0 -25 2q-8 1 -16 3q-5 1 -10 1q-6 1 -10 0q-9 0 -22 1q-11 1 -19 2h-11h-16q-11 0 -20 1q-7 1 -17 1q-9 1 -16 1h-16h-11l-8 -1q-20 -2 -36 11.5t-18 33.5z" />
    <glyph glyph-name="grave" unicode="`" horiz-adv-x="238" 
d="M69.5 710q18.5 7 37.5 -1t27 -27l2 -6q8 -8 15 -16l8 -8q7 -6 15 -13l9 -7q16 -13 18 -33.5t-11 -36t-33.5 -18t-36.5 10.5l-9 7q-9 8 -17 15q-10 9 -18 18q-4 5 -9 10q-15 14 -23 33l-3 8q-7 19 1.5 38t27 26z" />
    <glyph glyph-name="a" unicode="a" horiz-adv-x="547" 
d="M467 500q20 -2 32.5 -18.5t9.5 -36.5l-1 -10q-2 -12 -4 -22q-1 -10 -6 -30q-3 -18 -4 -25q-1 -8 -2 -20t-2 -34q-1 -21 -2 -33q0 -14 -3 -26q-1 -8 -2 -23q-2 -15 -2 -20q0 -9 -1 -21q-1 -10 -2 -27q-1 -15 -1 -22q-1 -8 -1 -20q-1 -13 -2 -25q-1 -10 -2 -16
q-1 -9 -3 -25q-2 -12 -3 -23q-1 -12 -2 -29l-1 -19q0 -20 -15.5 -34t-35.5 -13.5t-34 16t-14 35.5l1 18q1 19 2 33l-16 -10q-12 -7 -36 -15q-24 -7 -40 -9q-17 -2 -39 0q-20 1 -33 4q-12 3 -23 7q-9 3 -21 9q-13 6 -25 15t-22 18.5t-19 21.5q-8 11 -13 20q-5 8 -9 17
q-5 8 -9 19q-5 12 -8 24q-3 10 -7 28t-6 31q-3 15 -3 25v15v17q0 17 4 33q3 15 6 24q3 7 11 27q10 24 20 38q8 11 17 21q8 10 19 21t23 21q15 12 28 20q10 6 19 10q11 6 26 11q13 5 19 7q9 3 24 7q13 3 27 5t22 3h15q8 1 14 1q9 0 19 -2q9 -1 22 -4t23 -6.5t20 -6.5l9 -4
l6 -2q16 12 36 9zM380 172q1 10 1 16q1 9 1 14q0 10 2 30q2 19 4 31q1 6 1 12q1 12 2 35t3 36q1 13 2 23t5 29q-6 1 -11 3l-9 3q-7 3 -14.5 5t-16.5 5q-8 2 -12 2q-3 1 -6 1q-5 0 -12 -1h-9t-15 -2q-10 -1 -20 -4l-12 -3q-6 -2 -19 -7q-10 -3 -15 -6q-7 -4 -15 -8
q-6 -3 -13 -9q-9 -8 -17 -16t-14 -15q-6 -8 -12 -15q-3 -5 -8 -18q-8 -17 -10 -23q-1 -3 -3 -11q-1 -6 -1 -12v-17v-12q0 -4 2 -12q1 -11 4.5 -26.5t5.5 -22.5l4 -12q3 -7 6 -12l6 -12q3 -4 8 -11q4 -6 8.5 -10.5t9.5 -8t11 -6.5q8 -4 13 -5q4 -2 9 -3q7 -2 21 -3
q12 -1 18 0q7 1 22 6q12 4 17 6q6 3 12 8q5 3 21 16q12 11 16 15l6 9q9 13 23 18z" />
    <glyph glyph-name="b" unicode="b" horiz-adv-x="499" 
d="M99.5 712q20.5 0 35 -14.5t14.5 -35.5v-64v-20q-1 -9 -2 -22q-1 -11 -1 -17q0 -7 1 -20q1 -16 1 -23v-12v-11q7 3 15 6l24 8q14 5 28 8q12 3 29 5q22 4 38 2q14 -2 26.5 -6t28.5 -14q15 -9 31 -23q17 -15 27 -30q9 -12 16 -24q7 -13 17 -31q9 -19 16.5 -39.5t10.5 -29.5
q2 -8 4 -24q3 -20 2 -39v-21q0 -12 -1 -23q-2 -13 -6 -30q-5 -19 -12 -34q-3 -5 -6 -13q-6 -20 -18 -35q-8 -10 -17 -20q-9 -8 -23 -20q-14 -11 -26 -19q-9 -6 -22 -14q-17 -10 -34 -16q-14 -5 -27 -7q-13 -3 -33 -4q-20 0 -43 5q-22 4 -39 12q-14 7 -23 13q-7 4 -9 5
q-15 -14 -34 -14q-21 0 -35.5 15t-14.5 35v138q0 9 1 19q1 5 2 22t1 22q0 9 2 25q1 11 1 17q0 7 1 15v25v89q0 10 1 20q1 6 1 18q1 12 1 17v12q0 5 -1 19q-1 16 -1 24q0 9 1 24q1 12 2 21v14v64q0 21 14.5 35.5t35 14.5zM137 120q12 0 22 -6l7 -4q8 -5 17 -10q4 -3 13 -7
q7 -3 18 -6q11 -2 20 -2q10 0 15 1l15 5q7 2 14 7q12 7 20 13q8 4 18 13q11 8 15 12q4 5 9 10q1 2 2 6q5 15 12 28q2 4 4 12q3 10 3 15q1 7 1 14q0 10 1 26q0 9 -2 18q-1 12 -2.5 16t-6.5 19q-6 15 -13 30q-8 15 -13.5 25t-11.5 18q-3 4 -11 12q-10 8 -17 12q-6 4 -9 5t-7 2
q-3 0 -11 -1q-13 -3 -23 -5q-8 -1 -17 -4l-22 -8q-8 -3 -17 -7q-3 -2 -8 -6l-10 -9q-7 -7 -17 -11v-13v-31q-1 -7 -1 -13q0 -9 -2 -23q-1 -11 -1 -15q0 -9 -1 -29q-2 -20 -3 -27v-7v-75z" />
    <glyph glyph-name="c" unicode="c" horiz-adv-x="465" 
d="M418.5 415q-6.5 -19 -25.5 -27.5t-38 -1.5l-9 3q-7 3 -16 5q-11 3 -23 7q-11 3 -19 5q-7 1 -13 2h-20q-13 -1 -19 -2q-6 0 -15 -3q-8 -2 -13 -5t-12.5 -9t-11.5 -9l-8 -10q-5 -7 -9 -13l-8 -12t-6 -11q-1 -1 -2 -4q-2 -8 -7 -25q-4 -13 -4 -17q-2 -6 -2 -13q-1 -5 -1 -11
v-24v-15q1 -5 3 -11q1 -8 4 -18q3 -11 7 -21q2 -9 5 -16q2 -5 5 -10q3 -6 7 -12q2 -3 4 -5l11 -11q6 -5 15 -12q6 -5 10 -7q5 -2 11 -4q6 -1 19 -4q8 -2 15 -3q3 -1 12 -1t12 1q6 1 15 4q7 2 10 3q2 2 6 5q10 9 19 16q7 5 13 11l7 5q15 13 35.5 11t33.5 -17.5t11 -36
t-17 -33.5l-7 -5q-7 -7 -15 -13q-6 -4 -13 -11q-13 -11 -25 -18t-29 -12q-14 -4 -26 -6q-13 -3 -30 -3q-18 0 -30 2q-9 2 -19 4q-9 2 -20 5q-16 4 -30.5 11t-29.5 18q-11 9 -19 16.5t-15 14.5q-10 10 -18 22l-10 18q-6 10 -10 22q-4 10 -8 22q-3 11 -7 22q-3 13 -6 23
q-3 12 -4 21q-1 10 -1 28v24q0 12 1 23q1 9 3 18q2 10 7 29q5 14 6 21q4 13 10 25l10 18q5 8 11 16q5 6 10 14q7 10 15 18q9 10 23.5 21.5t27.5 18.5q14 7 31 12q16 5 28 6q11 2 30 3q20 1 33 -1q13 -1 26 -4q11 -2 24 -6q12 -3 23 -7q13 -3 23 -7l9 -3q19 -7 27.5 -26
t2 -38z" />
    <glyph glyph-name="d" unicode="d" horiz-adv-x="487" 
d="M389.5 711q20.5 0 35 -15t14.5 -35v-46q0 -4 1 -12q1 -12 2.5 -23.5t2.5 -18.5q1 -8 1 -17q1 -9 2 -24q1 -18 0 -30q-1 -5 0 -11q1 -11 1 -27q1 -18 0 -35v-20v-118q0 -17 -2 -35q-1 -13 -1 -24v-28q0 -17 -2 -30q-1 -6 0 -10q1 -12 1 -25q-1 -14 -1 -18v-15q0 -8 1 -17
v-18q-1 -9 -1 -16v-21q0 -20 -14.5 -34.5t-34.5 -14.5t-35 14.5t-15 34.5v16q-1 0 -2 -1q-9 -5 -18 -9q-8 -4 -17 -9q-15 -8 -29 -11q-9 -2 -17 -4q-15 -4 -31 -2h-7q-15 -2 -32 2q-12 3 -24 7q-15 6 -27 14q-9 6 -21 18q-13 11 -26 27q-14 17 -24 36t-15 35q-4 12 -6 20
q-4 10 -6 21q-3 12 -4 23q-1 10 -1 19v14q0 9 1 22q1 15 3 26q1 8 3 19q2 10 5 23q4 14 9 28q4 11 7 20q5 11 11 21q7 13 21 28q12 13 27 25t30 19q11 5 22 9q14 5 28 7q13 2 26 2q10 0 24 -1q14 0 25 -2q15 -2 31 -8l24 -12q7 -3 12 -4q1 -1 3 -1q-1 7 -1 12q-1 14 0 26v18
q-1 14 -1 22q-1 8 -2 14q0 6 -2 17l-2 22q-2 14 -2 25v46q0 20 14.5 35t35 15zM345 153q-1 10 1 21q1 8 1 18v28q0 16 1 33q2 13 2 26v74q-9 3 -19 7q-5 3 -11 4q-13 4 -29 12q-10 5 -19 8q-3 2 -5 2q-7 1 -17 2h-19q-5 0 -11 -1q-4 0 -9 -2q-7 -3 -15 -6q-4 -2 -10 -7
q-8 -6 -15 -14q-6 -7 -8 -9q-3 -6 -5 -11q-3 -7 -7 -17q-3 -8 -5 -16q-2 -11 -4 -20t-3 -17q-1 -5 -1 -14q-1 -10 -1 -16v-14q0 -4 1 -10q0 -4 1 -10l4 -12q2 -8 6 -21q3 -8 9 -19q5 -10 13 -19q8 -10 15 -17q8 -7 12 -10q1 -1 4 -2q6 -2 12 -3l1 -1q11 1 23 0h2q9 2 16 4
l6 2q10 5 18 9.5t16 8.5q7 4 15 9q12 7 25 12q1 1 3 2z" />
    <glyph glyph-name="e" unicode="e" horiz-adv-x="494" 
d="M140 259q-1 -3 -1 -8q-1 -11 -2 -23v-19l2 -20t2 -14q1 -5 4 -14q2 -9 5 -17q2 -8 8 -19q6 -13 10 -20q4 -6 10 -13q3 -5 10 -9q10 -7 17 -9q14 -6 25 -13q5 -3 10 -4q6 -3 14 -5q10 -3 21 -6q8 -2 11 -3q5 0 10 -1h13q4 0 13 3t17 7q8 5 11 7q5 5 11 12l8 10
q14 15 34.5 17t36 -11.5t17 -34t-11.5 -35.5l-9 -10q-9 -11 -18 -20q-11 -10 -29.5 -20.5t-38.5 -16.5q-22 -6 -39 -7q-14 0 -22 1q-8 0 -17 1q-10 2 -24 6q-11 3 -21 6q-12 3 -23 7q-12 5 -24 12q-5 3 -13 6q-15 6 -33 18q-20 13 -34 30q-10 13 -17 25q-7 11 -15 27
q-8 18 -12 30t-7 23t-4 19q-2 8 -4 22t-3 27q0 15 1 31q0 13 1 24q1 16 4 26q2 7 6 20q4 15 8 23l4 12t5 13q3 8 9 21q5 10 7 16q4 8 10 21q7 14 16 25q9 13 20 23q13 11 33 21q16 7 35 14q20 7 33 10q11 2 21 4q12 2 24 3q15 0 36 -4q18 -4 29 -8q15 -5 27 -13q9 -5 16 -10
q12 -8 26 -23q14 -16 21 -33q5 -11 9 -22q4 -13 6 -23q2 -12 2 -26q0 -21 -8 -40q-5 -10 -9 -19q-6 -11 -12 -20q-5 -8 -12 -16q-5 -7 -11 -14q-8 -9 -19 -19q-12 -11 -28 -18q-16 -8 -29 -11q-15 -4 -36 -2q-17 1 -28 4l-16 4t-17 6q-13 4 -35 19q-18 13 -29 21zM175 353
q12 -4 19 -11l9 -7q8 -7 17 -14q8 -7 23 -17q10 -6 14 -9q5 -2 10 -3q5 -2 11 -3q4 -1 12 -1q4 -1 6 -1q4 1 9 4q4 2 6 4q4 3 7 7l12 14q4 5 6 9q3 3 5 8q3 7 7 14q0 6 -1 10t-2 9q-2 7 -6 14q-1 2 -4 6q-4 5 -7 7q-6 4 -13 8q-3 2 -7 4q-6 2 -18 4q-7 2 -10 2l-12 -2
q-8 -1 -16 -3q-7 -1 -21 -6q-15 -6 -27 -11q-7 -3 -9 -5q-3 -3 -6 -7q-4 -5 -8 -13q-3 -6 -6 -11z" />
    <glyph glyph-name="f" unicode="f" horiz-adv-x="479" 
d="M39 419q-4 20 7.5 37t31.5 21l12 2q18 3 35 2h15h2v6q0 9 1 17q1 6 3 24t4 31.5t5 26.5q3 12 5 21q5 15 17 34q12 18 27 30q15 11 28 17q6 2 15 6q13 6 26 9q12 3 23 4q12 1 28 0t28 -4q10 -3 21 -7q9 -4 18 -7q8 -4 15 -7l6 -3q19 -8 26.5 -27t-1 -37.5t-27.5 -26
t-38 0.5l-6 3q-5 2 -14 5q-7 4 -15 6q-6 3 -11 4q-2 1 -9 1q-7 1 -11 0q-4 0 -9 -1q-5 -2 -11 -4q-9 -4 -16 -7q-2 -1 -4 -3q-4 -2 -7 -7l-3 -6q-2 -6 -4 -16t-4 -20.5t-4 -26.5q-2 -18 -2 -23q-1 -4 -1 -8v-10h10h22q6 0 9 1q10 2 20 3q12 1 21 1q8 1 15 1h6q20 0 35 -15
t15 -35t-15 -34.5t-35 -14.5h-6h-12q-5 -1 -12 -1q-8 -1 -15 -3q-12 -2 -26 -2h-22h-10v-7v-28q0 -13 1 -27q1 -16 1 -24v-19q0 -15 -1 -25q-1 -4 -1 -14t1 -15q0 -8 1 -28v-25q1 -10 2 -19q1 -13 0 -23q0 -7 1 -17q1 -12 1 -25v-31q0 -21 -15 -35.5t-35 -14.5t-34.5 14.5
t-14.5 35.5v31q0 10 -1 20q-1 13 -1 23q1 6 0 14l-2 20v31q-1 16 -1 20q-1 9 -1 24q0 13 1 23q1 6 1 16v19q0 6 -1 20q-1 16 -1 31v27v13q-12 -1 -24 0q-4 1 -10 0l-11 -2q-20 -4 -37 7.5t-21 31.5z" />
    <glyph glyph-name="g" unicode="g" horiz-adv-x="494" 
d="M412 509q20 -2 33 -18t11 -36l-1 -15q-1 -14 -2 -24t-1 -21q-1 -12 -2.5 -21t-3.5 -22q-1 -8 -1 -14q-1 -9 -1 -19t1 -22q1 -15 1 -28v-25q0 -11 1 -27q1 -20 1 -29v-21v-25v-28v-19v-25v-26q-1 -7 -1 -14v-21q-1 -14 -2 -22q0 -10 -3 -20q-1 -5 -1 -10q-1 -15 -6 -30
q-3 -10 -7 -22q-6 -16 -14 -30q-6 -10 -12 -19q-7 -10 -15 -20q-9 -12 -20 -21q-7 -5 -14 -11q-12 -11 -26 -18q-10 -5 -18 -8q-11 -5 -23 -7q-9 -2 -18 -3q-13 -2 -28 0q-14 1 -31 4q-16 4 -30 9q-21 6 -37 20q-8 7 -16 13q-8 7 -15 13l-6 6q-15 13 -16.5 33.5t12 36
t34 16.5t35.5 -12l6 -5q6 -5 14 -11q8 -7 17 -15q1 -1 3 -1q8 -3 20 -6q11 -2 18 -3h8q5 1 11 2q1 0 3 1q6 2 13 6q2 1 5 3l16 14l7 7q5 6 9 12q4 7 9 15q3 5 5 12q4 10 7 19q1 4 1 7q1 13 3 24q2 5 2 8q0 5 1 16q-9 -3 -18 -5q-10 -2 -20 -3q-12 -2 -25 -2t-26.5 1t-25.5 4
q-11 2 -19 3q-9 2 -20 6t-21 8q-13 5 -25 13q-8 5 -19 12q-18 11 -31 25q-10 10 -17 20q-8 11 -14 23q-3 6 -6 14q-5 11 -8 21q-2 7 -4 15q-3 10 -6 27q-2 16 -3 26q-1 9 -1 16q-1 10 -1 20q0 11 2 23l4 20q3 11 7 22q3 9 7 18q2 7 6 18q4 16 8 26q5 12 14 24q6 9 16 20
q9 12 17 20q9 9 21.5 18.5t23.5 15.5q9 5 21 10q12 4 21 8q9 3 18 5q10 3 19 5q11 2 31 2q22 1 40 -3q20 -3 34 -9q11 -4 20 -8h1q17 20 43 18zM160 336q-5 -21 -9 -31t-7 -19q-3 -6 -4 -11l-2 -12q-1 -4 -1 -8v-11q1 -7 2 -15q0 -7 2 -20q2 -11 3 -16q2 -6 4 -13q1 -3 3 -8
q4 -8 7 -15q1 -1 3 -4q4 -5 10 -12q3 -4 9 -7q13 -8 21 -14q5 -3 10 -5q7 -3 14 -5t11 -3q6 -2 15 -3q7 -1 15 -2q9 -1 19 -1q8 0 12 1q5 0 12 2q4 1 10 3q6 3 13 6l11 11q2 1 3 3v0.5v1.5q1 5 3 10v31v18q0 5 -1 22q-1 19 -1 34v25q0 10 -1 23q-1 14 -1 27q0 11 1 22
q0 13 2 27q2 12 3 19v2l-7 4q-8 4 -15 7q-8 3 -18 7q-5 2 -14 4q-9 1 -21 1q-11 0 -16 -1t-9 -2q-5 -1 -13 -4q-6 -2 -15 -6q-7 -3 -11 -5t-11 -7.5t-12 -9.5q-5 -5 -11 -13q-8 -9 -12 -15l-3 -4z" />
    <glyph glyph-name="h" unicode="h" horiz-adv-x="463" 
d="M117.5 714.5q19.5 -4.5 30 -22.5t5.5 -37l-3 -11q-2 -8 -2 -16q-2 -8 -2 -19q-1 -14 -2 -27q-1 -11 -2 -21t-1 -20v-27v-29v-8q15 7 27 10q10 3 22 6q16 4 29 6q14 1 29 -2q11 -1 27 -6q18 -5 30 -12q11 -6 20 -12q9 -7 22 -19q14 -13 23 -25q6 -9 12 -19q6 -11 12 -25
q5 -13 9 -23q5 -13 7 -28l5 -25q2 -12 3 -19q5 -15 5 -30v-20q1 -15 1 -26v-18q0 -8 1 -23q1 -18 0 -32q-1 -10 -1 -18q0 -12 -1 -21v-10v-18q0 -11 -1 -20q-1 -14 -5 -27l-2 -7q-6 -19 -24.5 -28.5t-37.5 -3.5t-28.5 24.5t-3.5 37.5l2 7v3q1 7 1 14v18q0 11 1 20v11
q0 11 1 24v22q-1 17 -1 27v18v22q-1 15 -1 24q0 1 -1 4q-3 12 -6 29q-2 14 -4 23q-1 6 -3 12q-3 9 -8 19q-3 8 -6 13q-3 6 -8 13q-2 3 -8 9q-8 7 -13 10q-4 3 -9 6q-3 2 -11 4q-9 3 -15 4h-5q-5 -1 -12 -2q-10 -3 -19 -6q-6 -1 -16 -6q-11 -5 -15 -8q-5 -3 -15 -11l-12 -9
q0 -1 -1 -1v-24q0 -11 1 -22q1 -14 1 -26q1 -15 0 -31q-1 -10 -1 -17q0 -9 2 -25q1 -19 1 -31v-21v-16v-18q0 -12 -2 -25q-1 -4 -1 -7v-47q0 -20 -14.5 -34.5t-34.5 -14.5t-35 14.5t-15 34.5v47q0 10 2 23q1 5 1 9v17v19v19q0 8 -1 23q-2 18 -2 29q0 13 1 29q1 10 0 19
q0 11 -1 23q-1 14 -1 29v24q0 14 1 22v12v19q0 15 1 29q1 12 1 25q1 10 1 21v29v29q0 12 1 24t2 25l2 22q1 14 2 27q2 13 5 27l3 11q5 19 23 29.5t37.5 6z" />
    <glyph glyph-name="i" unicode="i" horiz-adv-x="183" 
d="M58 692q14 14 35 14t35 -14l3 -3q14 -14 14 -35t-14 -35t-35 -14t-35 14l-3 3q-14 14 -14 35t14 35zM91.5 509q20.5 0 35 -14.5t14.5 -35.5v-49q0 -6 1 -13v-19v-46q0 -11 -1 -21q0 -6 -1 -12v-10v-12v-15q0 -10 -1 -21q-1 -6 -1 -12v-133q0 -9 -1 -19v-8v-52
q0 -20 -14.5 -34.5t-35 -14.5t-35 14.5t-14.5 34.5v52q0 9 1 18v9v133q0 10 1 20q1 7 1 13v15v15t1 15q0 7 1 14v11v46v11q-1 10 -1 21v49q0 21 14.5 35.5t35 14.5z" />
    <glyph glyph-name="j" unicode="j" horiz-adv-x="405" 
d="M265.5 667.5q14.5 14.5 35 14.5t35.5 -14l3 -3q14 -15 14 -35.5t-14.5 -35t-35 -14.5t-34.5 15l-3 3q-15 14 -15 34.5t14.5 35zM336.5 510.5q18.5 -7.5 27 -26.5t0.5 -37l-2 -5v-16q0 -11 -1 -20t-2 -17q-1 -6 -2 -11v-13q0 -11 -0.5 -18t-0.5 -15v-13v-77v-13
q1 -10 1 -24v-19v-18q-1 -7 -1 -13v-16v-11v-13q0 -9 -1 -18q-1 -6 -1 -14v-17q0 -9 -1 -20q0 -9 -1 -16q0 -9 -2 -23q-2 -11 -2 -17q-1 -8 -3 -20t-5 -21q-1 -5 -2 -13q-3 -13 -8 -29q-4 -11 -7 -19q-4 -11 -8 -20q-4 -10 -11 -20q-8 -12 -22 -24q-16 -15 -34 -20
q-10 -3 -20 -5q-13 -3 -28 -3q-12 0 -22 1q-13 1 -24 4q-12 4 -23 9t-22 13.5t-22 20.5q-13 13 -20 27q-6 10 -10 18q-3 7 -7 15q-6 13 -9 25l-2 6q-4 20 6.5 37.5t30 22.5t37.5 -6t23 -30l1 -7q1 -2 2 -5q4 -8 8 -15q2 -6 6 -13q2 -3 6 -7q5 -5 9 -8.5t7 -4.5q2 -1 5 -2
t7 -1q7 -1 14 -1h7q4 1 9 3l4 4q3 4 4 7q2 4 4 11q3 9 7 20q3 8 4 13q2 12 5 22q1 5 2.5 13t1.5 12q1 8 3 21q1 10 2 14q0 7 1 17v14v17q0 13 1 23q1 5 1 9v13v16v12q0 7 1 16v14v19q0 10 -1 16v21v77v20q1 6 1 11.5v14.5q0 13 1 22q1 10 2 19q1 6 2 11v9v17q0 17 6 33l3 7
q8 19 27 27t37.5 0.5z" />
    <glyph glyph-name="k" unicode="k" horiz-adv-x="466" 
d="M102.5 720q20.5 0 35 -14.5t14.5 -34.5v-56q0 -11 -1 -22v-15q0 -13 -1 -24q-1 -9 -1 -15v-35q0 -12 -1 -23v-15q0 -11 -1 -22q-1 -9 -1 -19l-1 -6q2 -13 1 -28l-2 -20v-12q1 -11 1 -22.5t-1 -25.5v-4.5v-5.5q1 -3 1 -6q5 4 11 9q14 10 21 17q9 8 23 21t20 19q8 8 24 22
q14 13 22 21q9 10 20 20q12 13 23 22q7 6 14 14q8 8 11 12l6 8q12 16 32.5 18.5t36.5 -9.5t19 -32.5t-9 -36.5l-6 -7q-7 -10 -18 -22q-11 -11 -22 -20l-16 -16q-10 -10 -19 -20q-11 -11 -28 -26q-15 -13 -20 -18q-4 -3 -9 -9q7 -9 14 -19q10 -14 19 -28q10 -15 16 -25
q4 -8 8.5 -15t11.5 -18q9 -13 17 -26t13 -21q4 -7 10 -18q7 -13 12.5 -24.5t9.5 -22.5q2 -8 4 -12l3 -7q8 -19 0 -38t-26.5 -27t-37.5 0t-27 26l-3 7q-4 8 -7 19q-2 7 -5.5 14.5t-8.5 15.5q-6 11 -10 18q-3 6 -10.5 17t-14.5 22q-9 14 -15 23.5t-12 19.5q-3 7 -10 18
q-8 11 -17 24q-5 6 -9 12q-10 -7 -17 -13q-11 -7 -19 -13l-10 -7q-8 -6 -19 -9v-6v-42v-18l-2 -18q-1 -6 -1 -10q0 -7 -1 -15v-12v-21q0 -21 -14.5 -35.5t-35 -14.5t-35 14.5t-14.5 35.5v21v18q1 7 1 13q0 9 2 19q1 5 1 10v13v42q0 9 1 19v12v19q-1 17 0 30q1 7 1 16
q1 12 2 20v9q-1 12 0 25v17t-1 16q0 13 1 26q0 10 1 21v7q-1 12 0 26q1 10 1 19q1 8 1 15q0 11 1 22v16v35q0 10 1 21q1 9 1 18v23q1 7 1 14v56q0 20 14.5 34.5t35 14.5z" />
    <glyph glyph-name="l" unicode="l" horiz-adv-x="187" 
d="M93 703q20 0 34.5 -15t14.5 -35v-10q0 -8 1 -13q0 -7 1 -21q0 -14 -1 -26q-1 -11 -1 -21q-1 -8 -1 -22q0 -18 -1 -29v-17q0 -12 -1 -23q-1 -6 -1 -14v-53v-20q-1 -7 -1 -12v-56v-12q1 -10 1 -20q0 -7 1 -15q1 -9 1 -18q1 -12 2 -17q0 -9 1 -17q1 -10 1 -20v-9
q2 -12 2 -24q0 -5 1 -11q1 -9 1 -20v-19q-1 -8 -0.5 -15t0.5 -14q1 -10 1 -21v-16q0 -13 -2 -24l-1 -8q-4 -20 -20.5 -31.5t-36.5 -8t-32 20t-9 36.5l2 8v7v16v13q-1 10 -1 20q-1 9 0 19v17q0 6 -1 12q-1 9 -1 19v8q-2 12 -2 25q0 6 -1 12q0 8 -1 17q-1 7 -1 17q-1 9 -2 19
q-1 12 -1 22v11q-1 10 -1 21v56q0 9 1 19v13v53q0 12 1 22q1 7 1 15v23q1 9 1 23q0 17 1 29q1 10 1 20q1 8 1 18q-1 11 -1 16q-1 8 -1 20v10q0 20 15 35t35 15z" />
    <glyph glyph-name="m" unicode="m" horiz-adv-x="749" 
d="M87 494q16 1 29 -7.5t20 -22.5q9 7 25 15q18 9 29 13q9 3 20 6q13 2 25 3t26 0q15 -1 32 -5q18 -4 33 -13q8 -5 15 -9q11 -6 22 -16q11 -9 19 -20q3 -2 5 -6q6 6 14 10q5 3 10.5 7t13.5 10l16 10q10 6 21 10q7 3 17 7q14 5 26 8q15 2 36 -1q14 -2 25 -5q15 -4 31 -14
q12 -7 21 -14q10 -7 18 -14q13 -10 23 -24q9 -13 14 -22q3 -6 8 -15q5 -11 10 -23t9 -26t6 -25q1 -10 2 -20.5t1 -19.5q0 -5 1 -16q1 -15 1 -34v-33v-21v-20q-1 -9 -1 -18q0 -14 -3 -32q-2 -14 -3.5 -27t-2.5 -24t-1 -22q-1 -9 -1 -14v-20q0 -20 -14.5 -35t-35 -15t-35 15
t-14.5 35v20q0 8 1 20l2 24q1 13 2.5 27.5t3.5 30.5q2 10 2 17q0 12 1 25v13v21v31t-1 28q-1 15 -1 24q0 5 -0.5 12.5t-1.5 13.5q-1 5 -3.5 13t-4.5 15q-3 7 -7 14q-5 9 -8 15q-1 3 -6 9q-3 4 -5 6q-6 5 -14 10q-6 5 -15 11q-3 2 -5 2q-6 2 -15 3q-2 1 -4 1q-3 -1 -7 -3
l-15 -5q-3 -2 -7 -4l-10 -6q-6 -5 -14 -10q-8 -6 -17 -11l-4 -4q-6 -6 -8 -10l-10 -15l-5 -7q1 -5 1 -9q0 -9 1 -22q1 -16 0 -29q0 -12 -1 -24q-1 -10 -1 -18v-21q0 -13 -1 -30q-1 -12 -1 -26q1 -21 -1 -38q-1 -11 -1 -15v-69q0 -20 -14.5 -35t-35 -15t-35 15t-14.5 35v69
q0 9 2 26q1 9 0 23q-1 21 1 39q1 13 1 21v21q0 13 1 26l2 20q0 8 -1 20q0 14 -0.5 22t-1.5 17q0 4 -2 10q-2 8 -5 16t-8 18q-2 5 -4 7q-4 5 -8 9q-4 3 -7 5q-7 4 -15 9q-2 1 -7 2q-8 2 -14 2q-7 1 -13 1q-4 -1 -9 -2q-6 -1 -12 -3q-4 -2 -15 -7q-11 -6 -15 -9q-7 -6 -16 -13
q-7 -5 -12 -10l-8 -9q-5 -6 -13 -10v-36v-30q-1 -15 -1 -21q0 -5 1 -14v-25t-1 -30q-1 -14 -1 -20v-18q0 -13 -1 -24q-1 -7 -2 -13v-11v-14v-10q1 -9 1 -19v-24q0 -20 -14.5 -35t-34.5 -15t-35 15t-15 35v24v10q-1 10 -1 19v14q0 8 1 17q0 8 1 18q1 5 1 13v18q0 10 1 28
q1 14 1 22v19q-1 12 -1 20t1 25v26v61v22.5t-0.5 24t-1.5 19.5v10q-2 20 12 35.5t34 17.5z" />
    <glyph glyph-name="n" unicode="n" horiz-adv-x="499" 
d="M90.5 503q20.5 0 35 -14.5t14.5 -34.5v-5q1 1 3 2q11 7 22 13q14 7 29 12q14 4 29 7q17 3 33 4q11 0 19 1q13 1 35 -2t36 -8q13 -5 27 -14q12 -8 22 -16q11 -10 19 -22q7 -10 13 -22q5 -10 9 -19q3 -8 7 -16q6 -14 9 -29q2 -11 4 -23q1 -9 3 -15q3 -13 2 -29v-23v-26
q0 -13 -2 -26q-1 -8 -1 -21q0 -19 -2 -36q-2 -15 -4 -26q-1 -5 -2 -8q0 -4 1 -8q1 -11 0 -24q-1 -9 -2 -16v-3q1 -9 1 -18v-34q0 -20 -14.5 -35t-35 -15t-35 15t-14.5 35v34q0 4 -1 10q0 11 1 21q0 6 1 14v8q-1 11 0 21q0 12 3 25q2 7 3 17t1 23q0 20 2 33q1 8 1 14v26v26v5
q-2 9 -4 21q-1 10 -3 19q-1 4 -3 7q-3 9 -7 18q-3 7 -7 15q-2 5 -5 8q-1 2 -4 5q-5 4 -10 7q-3 2 -7 4q-4 1 -14.5 2.5t-15.5 1.5q-9 -1 -23 -1q-9 -1 -17 -2q-10 -2 -18 -5q-6 -1 -12 -5q-8 -4 -16 -9q-4 -3 -11 -9q-3 -4 -5 -6l-3 -5q-10 -23 -34 -28v-69q0 -8 -1 -22v-11
q1 -8 1 -15q1 -10 0 -27q-2 -15 -2 -22q-1 -7 -1 -15v-22.5t-1 -20.5v-15v-19q0 -11 -2 -21v-10v-10q0 -20 -14 -35t-34.5 -15t-35.5 14.5t-15 34.5v10q0 13 1 23q1 4 1 9v19v22q1 8 1 17v17q0 13 1 26q1 10 2 23q1 7 1 10q-1 6 -1 11q-2 11 -1 27q1 11 1 17v96q0 10 -1 20
q-1 13 -1 26v17q-1 11 -1 20v25q0 20 14.5 34.5t35 14.5z" />
    <glyph glyph-name="o" unicode="o" horiz-adv-x="524" 
d="M287 478l14 -2q16 -3 29 -6q19 -4 34 -12q15 -7 29 -18t24 -23q7 -9 13.5 -17.5t11.5 -16.5l10 -16q5 -9 11 -20q6 -13 9 -25l4 -14q3 -11 4 -22q1 -7 2 -11q1 -8 2 -15q2 -12 2 -28v-21v-11q1 -13 -1 -24l-2 -16l-2 -12q-1 -8 -3 -18q-2 -11 -5 -22q-4 -11 -9 -21
q-6 -12 -14 -23q-7 -9 -13 -16q-10 -13 -24 -23q-9 -5 -19 -11q-12 -8 -25 -12q-9 -3 -19 -7q-15 -6 -27 -8q-10 -2 -21 -3q-11 -2 -27 -3q-18 -1 -29 0q-6 1 -12 1h-17q-14 0 -29 3q-20 5 -36 16l-16 12q-10 7 -18 14.5t-19 19.5q-14 15 -21 29q-6 11 -11 25q-4 12 -8 23
q-4 12 -6 21l-5 20q-4 14 -5 22q-2 9 -3 20q-2 14 -2 24v17q1 12 4 25q2 9 4.5 19t5.5 21q4 13 7 23q3 8 6 18q5 14 11 26.5t13 21.5q5 8 14 18q8 11 21 24q15 15 27 22l14 8q13 7 28 10q10 2 19 4q12 2 25 2q16 0 30 -4l7 -2q7 -2 13 -6zM250 388q-2 0 -2 1l-8 2h-3
q-4 0 -9 -1q-7 -1 -14 -3h-1l-12 -6l-7 -7q-8 -9 -14 -15q-6 -8 -10 -14q-3 -3 -6 -9t-5 -13q-4 -11 -6 -19q-2 -6 -5 -16q-3 -11 -5.5 -20.5t-4.5 -17.5q-1 -4 -1 -6v-13q0 -4 1 -11q1 -9 2 -15t4 -16q3 -11 5 -19q1 -6 4 -15q4 -10 7 -21q3 -8 6 -13q1 -2 5 -7
q8 -8 13 -12.5t11 -8.5q7 -6 15 -11q4 -1 7 -1h17q10 0 20 -1h15q13 1 21 2t15 2q3 1 10 3q11 5 21 8q5 2 8 4q7 4 14 9q1 1 2 1q5 6 10 13q3 5 5 9q3 5 4 9t2 9q1 6 2 11q1 7 2 16l2 12v7v21v16v10q-1 8 -3 15q-1 9 -2 21q-1 2 -1 4l-4 14q-1 3 -4 8q-3 8 -6 12q-3 5 -6 11
q-5 6 -10 13t-11 14q-3 4 -9 9q-6 4 -11 7q-4 2 -10 3q-12 3 -26 5l-16 3q-9 1 -18 7z" />
    <glyph glyph-name="p" unicode="p" horiz-adv-x="496" 
d="M140 12v-9v-19q1 -12 1 -21t-1 -21v-19v-109q0 -20 -15 -34.5t-35 -14.5t-34.5 14.5t-14.5 34.5v109v25q1 9 1 15t-1 16v24q0 9 -1 18q-1 12 -1 23v19v18q-1 13 -1 24v17v17q1 8 2 26q1 17 1 22v21q0 14 1 21v13q1 7 1 14q0 6 1 19t1 18v63q0 13 1 25v19v70q0 20 14.5 35
t35.5 15q15 0 27.5 -9t18.5 -24q8 3 20 7q13 4 23 6q13 4 26 4q11 1 26 1q14 0 26 -1q16 0 32 -5q13 -3 23 -7q12 -4 25 -11q13 -6 27 -14q19 -11 32 -26q10 -12 20 -26q13 -19 18 -38q3 -10 6 -21t6 -27q3 -17 5 -28q1 -12 1 -24t-2 -30q-2 -14 -3 -23q-1 -11 -3 -22
q-2 -9 -5 -23t-7 -29q-4 -14 -6 -22q-2 -10 -6 -22q-5 -13 -14 -27q-8 -13 -16 -22t-17 -18q-11 -11 -23.5 -19t-26.5 -14q-13 -4 -24 -7q-10 -2 -20 -3q-11 -1 -24 0q-10 0 -24 1q-13 1 -24 2q-14 1 -34 4q-21 4 -35 8q-3 1 -4 1zM137 120q1 0 1 -1l6 -3q2 -2 8 -3
q11 -4 22 -7q8 -3 22 -5q14 -3 23 -3q11 -1 25 -2q13 -1 22 -1q5 -1 10 0q5 0 9 1t9 3q4 1 8 3.5t7 6.5l12 12q3 5 8 11q3 5 4 8q2 5 3 11q2 9 6 24q4 13 6 26q3 12 5 21l2 12q1 10 3 25q1 12 1 18t-1 12q-1 7 -3 20q-3 14 -5 23q-3 10 -5 20q-1 3 -4 7q-7 9 -13 16
q-3 4 -8 6q-10 6 -19 11q-9 4 -16 6q-8 3 -17 6q-5 1 -9 1q-10 1 -22 1q-13 0 -20 -1q-5 0 -9 -1q-7 -1 -17 -5q-11 -3 -17 -5q-5 -2 -11 -5q-5 -2 -14 -8l-4 -2q-1 -2 -1 -4v-19v-63q0 -8 -1 -22t-1 -21q-1 -6 -1 -12v-14q-1 -5 -1 -18v-19q0 -8 -1 -27q-1 -18 -2 -26v-12
v-2z" />
    <glyph glyph-name="q" unicode="q" horiz-adv-x="502" 
d="M453 455q4 -12 3 -24l-1 -13q-1 -12 -2 -23q-1 -10 -1 -28v-43q0 -10 -1 -28v-23v-22v-29q0 -19 -0.5 -28.5t-1.5 -25.5q-2 -13 -2 -19v-18h1q15 -14 16 -34.5t-12 -35.5l-7 -8q0 -7 -1 -13q-1 -11 -1 -19v-95v-22q-1 -16 -1 -29q-1 -12 -1.5 -23t-1.5 -21q0 -10 -1 -20
l-1 -9q-2 -20 -18 -33t-36.5 -11t-33.5 18t-11 36l1 9q1 9 1.5 17.5t1.5 19.5q1 10 1 21t1 26v21v57q-8 -2 -16 -3q-15 -2 -32 -2q-12 1 -22 1q-14 0 -24 2q-10 1 -20 3q-14 2 -33 10q-16 7 -26 12l-18 9q-14 7 -31 21q-16 13 -25 23q-8 10 -15 19q-6 9 -16 27
q-10 21 -13 35q-1 6 -5 17q-5 18 -7 29q-1 10 -1 18q-1 6 -1 14q-1 12 -1 24q1 10 2 19q1 10 4 26q3 19 8 33q4 13 8 25q5 13 9 21q4 9 12.5 23t18.5 27q10 14 22 25q10 10 21 19q11 10 20 16q9 7 20 13q13 8 28 12l17 6q10 3 23 6q18 4 37 3h18q14 0 32 -3q17 -3 30 -7
q11 -4 19 -6q11 -4 25 -9l12 -5q22 -8 29 -31zM347 94v7q1 14 1 29v24q1 7 2 23l1.5 21t0.5 24v29v20q0 12 1 30v23v43q0 21 1 34v5l-15 5q-7 2 -18 4q-9 2 -15 2h-24q-4 1 -8 0q-10 -3 -17 -5l-17 -5q-3 -1 -7 -3q-7 -4 -13 -9q-5 -4 -13 -10q-8 -8 -16 -15q-6 -6 -12 -14
t-12 -18t-9 -14q-2 -5 -5 -14q-4 -9 -7 -19q-2 -9 -4 -21q-3 -13 -4 -20q0 -7 -1 -15v-9q1 -8 1 -16q1 -4 1 -10q1 -5 4 -14q4 -15 6 -24l6 -12q6 -11 8 -15q3 -5 8 -10q4 -4 14 -12q8 -7 13 -10q9 -5 18 -9q7 -3 19 -8q9 -4 13 -5q8 -1 15 -2q5 -1 13 -1q11 0 24 -1
q7 0 13 1q5 1 12 3q8 3 14 7z" />
    <glyph glyph-name="r" unicode="r" horiz-adv-x="439" 
d="M90 522q20 0 35 -14.5t15 -34.5v-6v-3q2 2 5 3q11 7 23 11q11 4 23 7q10 3 23 6q18 4 31 4t27 -3q8 -2 16.5 -4t17.5 -5q14 -4 30 -14q15 -10 25 -20q9 -8 16 -16q11 -13 18 -30l3 -9q7 -19 -1.5 -37.5t-27.5 -26t-38 1t-26 27.5l-3 9q-5 5 -9 10q-3 3 -10 7q-4 3 -6 4
q-7 2 -13 3l-14 4h-3q-4 0 -10 -2q-13 -3 -22 -5q-7 -2 -12 -4q-4 -1 -8 -3q-9 -6 -19 -10q-4 -2 -11 -7q-10 -6 -15 -10l-8 -4v-23q-1 -15 -2 -28v-16q0 -11 -1 -27q-1 -14 -1 -20v-20q-1 -9 -1 -16v-18v-16q1 -9 1 -17v-18v-30q0 -7 1 -15q1 -12 1 -23v-23q0 -20 -15 -35
t-35 -15t-34.5 15t-14.5 35v23q0 8 -1 16q-1 11 -1 22v30v14q0 8 -1 17v20v18q0 10 1 22v14q0 8 1 24q1 14 1 23v24q1 10 2 24v22v20v25v26q0 8 -1 19q-1 15 -1 23v6q0 20 14.5 34.5t34.5 14.5z" />
    <glyph glyph-name="s" unicode="s" horiz-adv-x="469" 
d="M429 399q-6 -19 -24.5 -28.5t-38.5 -2.5l-6 2q-8 2 -16 6q-8 3 -18 8q-5 2 -13 5l-22.5 7.5t-18.5 5.5l-8 2h-13t-14 -2q-8 -1 -11 -2q-8 -3 -17 -6q-2 0 -6 -2q-8 -5 -18 -11q-2 -1 -3 -2q-4 -5 -9 -13q-2 -3 -3 -5q-1 -3 -1 -6v-17q1 -5 3 -11l4 -8q1 -2 4 -6
q3 -3 11 -9q13 -10 21 -15q5 -3 11 -6q3 -2 6 -2q9 -2 18 -3q14 -2 24 -5q8 -2 19.5 -5t18.5 -5q12 -3 23.5 -9t22.5 -15q16 -13 24 -30q3 -7 6 -12q9 -17 9 -37v-19q0 -17 -3 -31q-4 -16 -11 -31q-5 -9 -12 -20q-8 -13 -18 -24q-8 -10 -19 -19q-14 -13 -33 -21
q-15 -6 -27 -9q-13 -3 -29.5 -4.5t-28.5 -0.5q-10 1 -27.5 5t-35.5 11q-17 6 -29 12t-28 15q-13 8 -20 11l-8 4q-18 9 -24.5 29t2.5 38t29 24.5t38 -2.5l7 -4q10 -5 25 -14q14 -8 22 -12t20 -8t23.5 -7t15.5 -3q3 0 11.5 0.5t12.5 1.5q5 1 12 4q4 2 6 4q6 5 11 10q4 5 8 11
q5 8 8 15l2 4q1 4 1 11v15q-2 3 -4 7q-2 2 -4 3l-4 2q-8 2 -18.5 5t-18.5 4q-5 2 -13 3l-22 4q-16 3 -31 10q-12 5 -23 13q-9 6 -23 16q-20 14 -31 28q-10 12 -16 24q-4 9 -8 19q-3 8 -5 16q-4 13 -4 28v20q1 16 4 29q4 15 15 32q9 14 17 24q12 13 29 23q10 7 19 12
q14 8 27 12q7 2 13 4q10 3 25 6q13 2 27.5 2.5t26.5 -0.5q14 -1 28 -5q9 -3 20 -6.5t23 -7.5q15 -5 26 -11q7 -3 11 -5q6 -2 10 -3l7 -2q19 -7 28 -25.5t3 -37.5z" />
    <glyph glyph-name="t" unicode="t" horiz-adv-x="433" 
d="M38 426q-2 20 11.5 36t33.5 18l7 1q12 1 32 -1h8q1 5 1 10q1 10 1 21q1 9 1 18v34q0 9 1 25q1 8 1 12q-1 10 -1 23t1 22l1 6q2 21 18 34t36 10.5t33 -18.5t11 -36v-6q-1 -4 -1 -12q0 -9 1 -15q1 -13 -1 -30q-1 -11 -1 -15v-34q0 -12 -1 -24t-1 -21q-1 -3 -1 -7h15
q12 1 20 1h43q20 0 34.5 -15t14.5 -35t-14.5 -34.5t-34.5 -14.5h-43q-7 0 -19 -1h-16v-22q0 -15 1 -29v-24.5v-20.5v-20q0 -9 1 -16q1 -11 1 -20v-9q1 -8 2 -22q0 -12 1 -19q1 -6 2 -15t3 -22q2 -15 3 -27q2 -5 4 -12q2 -5 4 -9q1 -1 3 -5h8q7 0 11 1q1 0 1 1q5 2 7 5
q7 6 14 15q1 2 1 4l2 6q4 20 21 31.5t37 7.5t31.5 -21.5t7.5 -36.5l-2 -7q-2 -10 -5 -19q-5 -16 -20 -32q-8 -9 -15 -16q-11 -12 -26 -21q-17 -11 -32 -14q-11 -2 -30 -3q-22 0 -35 3q-14 3 -29 12q-15 10 -26 25q-9 11 -14 22q-4 9 -7 18q-2 6 -5 13q-5 15 -5 31q0 3 -2 13
q-2 14 -3 24q-2 10 -3 19q0 9 -1 23q-1 11 -1 16q-1 9 -1 20q0 6 -1 13q-1 11 -1 23v20v18v24q-1 16 -1 32v24q-8 1 -17 2h-14h-7q-20 -2 -36 11t-18 33z" />
    <glyph glyph-name="u" unicode="u" horiz-adv-x="481" 
d="M403.5 505q19.5 -4 31 -21.5t7.5 -36.5l-2 -10q-2 -8 -2 -14q-1 -6 -1 -13q-1 -8 -1 -21q-1 -14 -2 -21v-15.5v-16.5q0 -10 -1 -26q-1 -14 -1 -23v-20q0 -6 1 -19q2 -16 2 -26v-21t-1 -23q0 -8 -1 -18v-23q1 -17 1 -26v-16q1 -11 1 -22v-21q0 -13 -1 -24v-9
q-2 -21 -17.5 -34.5t-35.5 -11.5q-16 1 -28 10.5t-16 24.5q-21 -13 -45 -16q-19 -2 -39 0q-13 1 -20 2q-8 0 -16 1q-13 2 -29 9q-11 5 -22 11q-13 7 -30 19l-30 24q-19 18 -28 33q-6 12 -11 28q-3 12 -7 23q-4 14 -7 35q-3 18 -5 28q-3 16 -3 34q0 12 -1 22q0 12 -1 21
q0 8 -2 25q-2 18 -2 28q-1 10 -1 24v59q0 10 1 19l1 7q2 20 18 33t36 11t33 -18t11 -36l-1 -7v-9v-59v-18q1 -8 3 -25q1 -18 2 -27q1 -10 1 -22q1 -14 1 -29q0 -8 1 -15q2 -11 5 -30q3 -14 5 -22q3 -11 7 -23q2 -5 3 -9q2 -3 7 -6q11 -10 23 -19q11 -8 18 -12q9 -4 16 -8
q1 0 2 -1q5 0 10 -1q8 0 23 -2q8 -1 16 0q2 0 5 2q11 7 18 12q5 4 10 7q3 3 10 12l10 13q1 0 1 1v26q1 10 1 22q1 8 1 16v18t-1 22q-2 16 -2 26v20q0 11 1 27q1 14 1 22v19.5t1 17.5q0 8 0.5 21t1.5 22q0 8 1 19q2 10 4 22l2 10q4 19 21.5 30.5t37 7.5z" />
    <glyph glyph-name="v" unicode="v" horiz-adv-x="495" 
d="M59.5 480q16.5 11 37 7t31.5 -20l6 -8q6 -9 14 -23q7 -12 11 -18q6 -9 14 -26q7 -12 10 -18q2 -4 6 -10q6 -9 11 -19q3 -7 9 -20q7 -14 11 -25q4 -10 12 -28q7 -18 12 -27q6 -13 13 -31q5 -13 8 -22q2 4 3 7q4 9 10 26q7 17 9 24q3 9 6.5 18t9.5 24q6 14 8 21q2 6 4 13
t7 23q4 14 6 21.5t5 17.5q4 10 7 19q3 6 9 20q4 8 5 12q2 6 4 15l2 10q5 20 22.5 31t37 6.5t30.5 -22t7 -37.5l-3 -10q-2 -11 -4 -18q-3 -10 -10 -27q-6 -13 -9 -19q-2 -5 -4 -11q-2 -7 -4 -13q-2 -8 -6 -22t-6 -23q-3 -11 -7 -20q-3 -9 -9 -24q-6 -14 -9 -21.5t-5 -15.5
q-3 -9 -10 -27t-10 -26l-6 -16q-4 -8 -7 -15l-9 -21q-6 -12 -9 -19q-4 -9 -7 -16q-2 -4 -5 -11q-5 -14 -14 -29q-3 -2 -8.5 -6t-20 -11t-27 -8.5t-25 6.5t-18.5 28q-2 7 -3 14q-2 6 -4 13q-3 8 -6 21q-3 11 -5 21q-3 8 -6 19q-4 12 -8 21q-3 9 -9 24q-5 13 -9 22
q-6 12 -15 32l-12 30q-3 9 -8 20l-9 18q-2 5 -5 9q-6 9 -10 17q-4 7 -11 21q-5 11 -8 15q-6 8 -14 22q-7 12 -11 19l-6 7q-11 17 -7 37.5t20.5 31.5z" />
    <glyph glyph-name="w" unicode="w" horiz-adv-x="712" 
d="M74.5 516.5q19.5 5.5 37.5 -5t23 -29.5l3 -10q2 -7 8 -24q8 -19 11 -26q3 -9 9 -26q3 -11 5 -15q4 -8 7 -15q4 -8 7 -17t6 -17t8 -20q5 -14 8 -23q3 -11 5 -23q1 -6 4 -18q2 -6 3 -11q3 8 7 17q9 21 13 30q4 7 11 23q7 15 9 21q3 7 5 14q2 8 6 21l6 21q3 9 9 23
q4 10 5 14q2 8 8 23q11 27 35 29.5t43.5 -7.5t24.5 -19q11 -19 16 -29q3 -9 7 -19q3 -9 9 -28q6 -17 9 -27q4 -10 11 -32q7 -20 11 -31q5 -13 9 -23q2 -8 9 -26q6 -18 9 -25q2 -5 8 -19l1 -3q1 4 3 9q9 23 13 36q4 11 12 39q8 29 11.5 41.5t15.5 56.5t15 53q2 8 5 17
q0 2 1 4v6q0 20 14.5 35t34.5 15t35 -15t15 -35v-7q0 -13 -5 -30q-3 -11 -6 -20q-2 -8 -14 -50q-12 -43 -15 -55q-4 -13 -12 -42q-8 -31 -13 -46q-5 -13 -14 -37q-10 -26 -14 -35q-3 -5 -7 -18l-9 -24q-5 -10 -17 -30q-1 -2 -4 -4.5t-10.5 -9.5t-15.5 -12t-18.5 -8t-19.5 -2
t-18 9.5t-15 25.5q-4 9 -7 19q-2 5 -6 13q-7 13 -12 24q-4 10 -8 21t-9 23q-4 12 -7 19q-3 8 -10 27t-11 30q-2 8 -6 18q-5 12 -12 34q-4 10 -6 18q-2 -3 -2 -5q-4 -10 -12 -27q-7 -16 -12 -25q-3 -7 -11 -26q-8 -18 -10 -25q-3 -11 -8 -22q-4 -11 -9 -21q-3 -6 -9 -20
t-9 -22q-2 -6 -6 -23q-6 -23 -11 -33.5t-28 -16t-45.5 2.5t-24.5 29q-1 4 -2 9q-2 10 -5 22q-1 9 -3 13q-3 9 -7 28q-4 18 -7 35q-2 12 -3 17l-4 14q-3 8 -6 23q-4 15 -5 24q-1 5 -3 10q-2 7 -6 19q-5 13 -8 21q-3 7 -6 15l-4 12q-3 5 -5 10q-5 10 -12 29q-4 15 -7 21
q-3 8 -10 27q-8 21 -12 33l-2 10q-6 19 4.5 37t30 23.5z" />
    <glyph glyph-name="x" unicode="x" horiz-adv-x="461" 
d="M409.5 495q13.5 -15 12.5 -35.5t-16 -34.5l-8 -7q-5 -4 -11 -13q-8 -11 -18.5 -27.5t-15.5 -25.5q-6 -10 -18 -31t-38 -65q-4 -7 -7 -13v-1q6 -7 19 -25q11 -16 16 -23l15 -20q11 -14 18 -26q6 -10 10 -17q2 -3 7 -10q8 -11 15 -21q6 -12 11 -23l5 -10t6 -10l4 -7
q11 -17 6.5 -37t-22 -31t-37.5 -6.5t-31 21.5l-4 6q-5 8 -10 18t-9 19q-2 4 -5 9q-3 6 -8 12l-14 21q-3 6 -9 15q-4 8 -12 17q-8 12 -15 20q-5 7 -12 17q-6 -10 -9 -16q-4 -6 -7 -11q-3 -7 -10 -22q-9 -16 -17 -29q-7 -10 -13 -20q-7 -11 -12 -19l-10 -16l-5 -8
q-10 -17 -30 -22t-37.5 5.5t-22.5 30.5t6 38l4 7q5 8 10.5 17t12.5 19q7 12 14 23q6 8 11 19q7 13 11 21q4 10 11 20q4 6 15 25q9 14 17 28q-9 14 -14 21q-7 10 -18 29q-8 13 -12 19q-7 9 -14 20q-6 10 -10 19q-3 5 -16 23q-13 20 -22 31q-12 15 -18 27l-5 8q-10 17 -4.5 37
t23.5 30t37.5 4.5t29.5 -23.5l5 -8l9 -12q12 -16 27 -37q16 -24 21 -34q4 -6 8 -13t8 -13q8 -10 19 -30q1 -2 2 -3q13 21 20 34q12 21 18 31q6 11 18 30t22 32q12 17 25 28l8 8q15 13 35.5 12t34 -16z" />
    <glyph glyph-name="y" unicode="y" horiz-adv-x="515" 
d="M443 519q19 -6 29 -24.5t4 -37.5l-2 -6q-1 -5 -2 -17q-2 -18 -3 -25t-2 -24q-1 -14 -3 -26q0 -10 -2 -20q-1 -13 -3 -27t-2 -20q0 -10 -2 -30q-2 -18 -2 -26q-1 -10 -2 -17v-17q0 -17 -1 -26v-11t-1 -15q7 -4 11 -10q13 -15 11.5 -35.5t-16.5 -33.5l-8 -7v-8
q0 -14 -1 -29q-1 -14 -1 -30q-1 -18 -2 -26q0 -9 -1.5 -22t-2.5 -20q-1 -8 -4 -19q-2 -10 -5 -20q-4 -14 -12 -28q-7 -15 -23 -35q-15 -18 -24 -26l-12 -12q-11 -11 -24 -19q-11 -6 -23 -10q-15 -6 -38 -6q-21 0 -34 3q-6 2 -19 5q-15 4 -26 8q-7 2 -12.5 5t-10.5 7.5
t-7.5 6.5t-8.5 8.5t-9 9.5l-21 22q-14 15 -13.5 35.5t15 34.5t35 13.5t34.5 -14.5l22 -23q9 -9 15 -14q4 -1 11 -3q13 -3 19 -5h9h7q3 1 5 3q2 1 4 3q7 7 14 13q4 5 15 18q9 11 12 17q3 7 5 11l4 14q1 7 2 11q0 6 1.5 17.5t2.5 18.5q0 6 1 22q0 8 1 17q-6 -1 -12 -1
q-10 0 -21 1t-19 2q-10 1 -28 4q-19 3 -30 6q-13 4 -26 11q-6 4 -9 5q-9 3 -18.5 8t-27.5 18q-22 15 -33 31q-5 7 -13 17q-10 12 -18 22q-11 13 -19 28q-6 11 -9 19q-5 10 -12 35q-5 22 -8 38t-4 25t-1 18q0 6 -1 22v33q1 11 1 16v21q1 16 2 26q1 6 2 16q1 9 1 14v9
q0 20 15 35t35 15t34.5 -15t14.5 -35v-9q0 -12 -1 -26q-2 -12 -3 -19q-1 -3 -1 -13v-19q0 -8 -1 -21v-23q1 -19 1 -27q0 -4 0.5 -8.5t2.5 -16.5q2 -13 7 -31q4 -14 6 -19t7 -14q3 -6 8 -12q8 -10 17 -21q10 -13 18 -23q2 -3 9 -7q12 -9 16 -11q5 -2 8 -4q10 -3 22 -10l6 -3
q5 -1 19 -4l22.5 -3t14.5 -1q6 -1 13 -1q4 1 13 3q1 0 2 1q1 3 1 6v18q1 14 1 22v17q1 6 1 19q0 17 1 26q0 7 1 15q1 9 2 28q2 17 2 24q1 11 3 29q2 17 3 27q1 9 2 17q1 11 2 26q2 17 2 24q1 8 3 27q3 24 6 35l2 6q6 19 24.5 29t37.5 4z" />
    <glyph glyph-name="z" unicode="z" horiz-adv-x="531" 
d="M252 507q3 0 11 1q7 1 15 2q12 2 29 4q12 1 19 3q13 2 26 3q10 1 15 1q9 1 19 1q20 0 38.5 -18t17.5 -41q-2 -17 -14 -40q-7 -13 -13 -22q-6 -12 -16 -24l-10 -14q-7 -11 -19 -28l-17 -25.5t-17 -27.5q-12 -19 -23 -32q-7 -8 -16 -21q-11 -15 -17 -24q-7 -10 -15.5 -21.5
t-16.5 -22.5q-6 -9 -15 -22q-7 -10 -10 -17q-7 -13 -15 -24q-2 -4 -4 -6h23h18q15 1 35 -2l15 -1q12 0 21 -1q7 -1 22 -1q17 -1 23 -1q5 -1 14 -1q10 0 16 1q11 0 22 -1h10h9l7 1q20 2 36 -11t18 -33t-11 -36t-33 -19h-7q-9 -1 -19 -1q-9 0 -19 1h-8q-9 -1 -21 -1
q-11 0 -18.5 0.5l-22.5 1.5q-17 1 -26 1q-5 1 -10 1q-11 0 -30 2q-12 2 -18 1h-23h-43q-17 0 -23 -1h-15q-6 -1 -21 -2q-2 0 -5.5 0.5t-12.5 2t-17 4.5t-17 8.5t-13.5 13t-4.5 19.5t7 27q6 14 18 26q4 6 11 14l16 22q7 8 10 13q5 7 11 15l5 10q6 13 18 30q10 14 17 25
q8 10 16 21.5t14 20.5q7 10 18 25q13 17 23 28q5 7 13 20q10 17 18 29t19 28q10 13 15 22q-5 -1 -9 -2q-13 -2 -26 -3q-11 0 -16 -1h-26q-12 -1 -27 -1q-16 0 -26 1q-7 1 -15 1q-12 0 -28 2q-11 2 -18 2h-25q-21 0 -35.5 14.5t-14.5 34.5t14.5 35t35.5 15h25q14 0 31 -3
q11 -1 17 -1q11 -1 20 -1q7 -1 19 -1t22 1h30z" />
    <glyph glyph-name="braceleft" unicode="{" horiz-adv-x="389" 
d="M347 657.5q-5 -19.5 -23 -29.5t-38 -5l-7 2h-3t-6 -1q-7 -2 -17 -7q-4 -2 -7 -4q-3 -3 -7 -10q-6 -11 -8 -16q-2 -6 -5 -16l-5.5 -22t-4.5 -21q-1 -9 -3 -23q-1 -17 -2 -28v-18q0 -12 -2 -25q-2 -12 -3 -21q-1 -4 -1 -7q0 -8 -1 -18q-1 -13 -5 -31q-4 -15 -8 -25
q-4 -13 -10 -24q-5 -8 -9 -16q-2 -3 -5 -7q15 -15 22 -34q4 -12 7 -27q2 -10 5 -19q3 -14 4 -26q1 -9 2 -19t1 -18t1 -23q2 -17 2 -31q0 -7 1 -14q3 -13 5 -26q1 -8 4 -14q3 -10 7 -23q3 -9 6 -15q3 -7 7 -14t15 -20q10 -13 18.5 -21t17.5 -14q9 -7 13 -9l1 -1l8 -1
q19 -5 30 -22.5t6.5 -37.5t-22 -30.5t-37.5 -6.5l-8 2q-14 4 -27 11q-8 4 -21 14q-15 10 -28.5 23t-28.5 32q-14 18 -21.5 29.5t-12.5 23.5q-6 12 -10 27q-4 12 -7 22q-5 13 -7 28q-2 11 -5 22q-3 18 -3 35q0 11 -1 25q-1 16 -2 24q0 8 -0.5 16t-1.5 16q-1 4 -2 11
q-3 12 -6 25l-2 10q-2 1 -3 2l-16 8q-3 2 -4 2q-8 1 -12 1q-24 1 -24 26t11 50l11 24q5 1 8 2l6 3q5 3 10 7q2 2 3 4q4 6 7 11q2 4 3 8q3 7 6 20l3 12v11q0 12 2 24q1 6 3 16q1 8 1 13v24q1 12 3 30q1 20 4 33q2 13 5 25t6 25q4 16 8 27q5 12 16 30q12 21 23 32q12 11 33 21
q18 9 33 13q17 5 33 5q15 0 28 -4l8 -2q20 -5 30 -23t5 -37.5z" />
    <glyph glyph-name="bar" unicode="|" horiz-adv-x="180" 
d="M93 681q20 0 34.5 -14.5t14.5 -35.5v-41v-21q0 -8 -1 -14v-12v-15q0 -9 -1 -19v-11v-54q0 -9 -1 -20q-1 -6 -1 -12v-35v-20q-1 -9 -1 -16v-32q0 -4 1 -10v-21v-18q0 -6 1 -12q1 -11 1 -19v-61v-13q1 -10 1 -20v-95q0 -10 -1 -19v-8v-13q0 -9 -2 -24q-1 -9 -1 -15v-42
q0 -20 -14.5 -34.5t-35 -14.5t-35 14.5t-14.5 34.5v42q0 11 2 26q1 10 1 13v13q0 9 1 18v9v95v12q-1 10 -1 21v61q0 4 -1 11q-1 10 -1 20v18v13q-1 10 -1 18v32q0 10 1 22v14v35q0 10 1 20q1 7 1 12v54q0 10 1 19v11v15v16q1 7 1 15v16v41q0 21 15 35.5t35 14.5z" />
    <glyph glyph-name="braceright" unicode="}" horiz-adv-x="376" 
d="M93 589q-20 -2 -36 11t-18 33l-1 6q-2 23 13.5 40.5t32.5 21.5q15 3 30 2q14 -1 29.5 -6t29.5 -14q15 -8 27 -21q16 -15 23 -32q5 -12 11 -31q6 -21 6 -45q1 -17 1 -29v-61v-14q1 -10 1 -16q1 -5 3 -19q2 -13 4 -19t5 -11q3 -8 7 -16q5 -9 8 -16q3 -4 6 -9q2 -2 6 -5
q8 -7 14 -12q10 -3 18 -6q28 -14 25.5 -36t-15.5 -41.5t-20 -21.5q-3 -1 -7 -3q-6 -2 -9 -5q-3 -2 -8 -9q-5 -5 -7 -10q-4 -9 -6 -15t-4 -13q-1 -7 -3 -16q-1 -7 -1 -12q0 -9 -1 -20q0 -11 -2 -29q-1 -20 -4 -33q-2 -10 -4 -21t-5 -27t-6 -26q-2 -8 -5 -18q-4 -13 -10 -26
q-5 -7 -10 -17q-8 -13 -20 -27t-24 -25q-22 -19 -46 -21q-13 -2 -25 0h-7q-20 2 -33.5 18t-11.5 36t18 33.5t36 11.5l6 -1q6 6 12 13t9 12q5 8 9 15q2 3 3 7q2 7 4 15q2 6 4 20q3 14 5 25q2 12 4 22q2 7 3 22q1 18 2 27v14q0 12 2 26q2 13 4 24q3 11 7 22q4 12 10 26
q8 17 21 32q1 2 3 4q-7 7 -12 14q-6 9 -12 19l-9 18l-10 20q-5 11 -8.5 23t-6.5 31q-3 18 -4 26t-2 20v20v61q0 11 -1 27q0 11 -3 20q-3 12 -5 17q-1 1 -2 3q-5 4 -9 7q-1 0 -2 1q-12 -10 -27 -11z" />
    <glyph glyph-name="asciitilde" unicode="~" horiz-adv-x="584" 
d="M545 236q-5 -19 -17 -34q-10 -13 -22 -22q-8 -5 -15 -10q-13 -9 -29 -14q-12 -4 -23 -7q-9 -2 -17 -3q-14 -3 -27 -3q-16 0 -31 5q-11 4 -24 13q-15 8 -26 20q-10 10 -20 23q-9 12 -14 19q-6 9 -14 25q-7 13 -12 22q-2 6 -6 11q-2 4 -5 7q-2 1 -3 2q-2 1 -5 2q-6 2 -11 3
t-10 1h-12t-12 -1l-8 -2l-8 -4q-6 -3 -15 -8q-4 -3 -9 -8t-7 -8q-1 -1 -1 -3q-3 -6 -4 -13q-1 -2 -1 -4q0 -5 1 -15q2 -13 3 -20q1 -8 2 -18l2 -4q9 -19 2.5 -38.5t-24.5 -28.5t-37.5 -2.5t-28.5 24.5l-4 7q-7 15 -9 34q0 8 -1 13q-1 7 -3 20q-2 16 -2 28q0 14 4 29
q2 10 6 20q5 15 13 27q7 10 19 22q13 13 28 22q10 6 19 11q10 6 22 10q12 5 27 7q12 1 23 2h19q11 -1 22 -2.5t23 -5.5q16 -5 27.5 -12t22.5 -17q10 -10 18 -23q7 -11 13 -22q3 -8 9 -19q5 -10 8 -14q5 -6 12 -17q6 -8 11 -12q3 -3 7 -6q3 -2 6 -3q2 0 5 1q8 1 17 3
q4 1 11 4q4 1 6 2q5 4 11 8l1 1q-1 9 -1 12q-2 5 -3 9l-2 6q-7 20 2 38.5t28 25t38 -2.5t25 -28l3 -7q3 -9 5 -19q3 -12 4 -27q1 -17 -2 -32z" />
    <glyph glyph-name="exclamdown" unicode="&#xa1;" horiz-adv-x="185" 
d="M60 466q14 14 34 14t34 -14l3 -3q14 -14 14 -34t-14 -34t-34 -14t-34 14l-3 3q-14 14 -14 34t14 34zM144 -16q-3 -9 -4 -15q-1 -8 -1.5 -15.5t-0.5 -11.5v-17q-1 -10 -2 -19l-2 -12v-12v-11q0 -19 -14 -33.5t-34 -14.5t-34 14.5t-14 33.5v11q0 12 1 21q0 8 2 16q0 5 1 11
v12q0 7 1 18.5t2 22.5q2 12 5 23q1 2 1 4q1 5 1 13v73q0 11 -1 16q0 4 -1 13l-2 24t-1 20v13v11q-2 12 -3 24q-1 14 0 28q0 13 2 22q0 7 1 13l1 6q2 19 17.5 31.5t35 10.5t32 -17.5t10.5 -35.5v-6q-1 -6 -2 -14q-1 -5 -1 -15q-1 -8 0 -16l2 -20q1 -13 1 -22v-13q0 -5 1 -15
q0 -9 2 -18q1 -12 1 -21q1 -8 1 -19v-73q0 -12 -1 -21z" />
    <glyph glyph-name="cent" unicode="&#xa2;" horiz-adv-x="465" 
d="M260 601.5q19 -3.5 30 -19.5t8 -34l-2 -12q-1 -8 -1 -12v-16q0 -10 -1 -21v-3q5 -1 10 -3q2 -1 7.5 -3t8.5 -3q17 -6 28 -14q7 -5 16 -11q11 -9 22 -20.5t18 -23.5q5 -10 12 -23l6 -13q9 -17 3 -35t-23 -26.5t-35.5 -2.5t-27.5 23l-6 12q-5 11 -9 18q-2 3 -6.5 8t-8.5 8
l-14 10q-2 1 -7 3q-11 4 -16 6q-2 0 -5 0.5t-4 0.5q-6 -1 -16 -2q-9 -1 -14 -3q-6 -1 -17 -6q-9 -3 -12 -5q-6 -4 -13 -10t-13 -12t-11 -12t-10 -13q-2 -3 -4 -8q-4 -12 -8 -20q-2 -4 -5 -11q-2 -8 -4 -14q-1 -5 -2 -12q-1 -10 -1 -18q-1 -6 -1 -17q-1 -11 -1 -29
q0 -14 1 -22q2 -13 3 -21l2 -8t6 -16q4 -11 7 -15q6 -7 20 -22q11 -14 20 -21q6 -5 12 -7q7 -3 10 -3q8 -1 14 -2h18q13 0 17 1l21 3q7 1 10 3q11 7 19 11q2 2 6.5 6t6.5 7.5t5 9.5q2 7 2 13l1 12q1 19 15.5 32t33.5 11.5t32 -16t12 -33.5l-1 -12q-1 -18 -7 -35
q-6 -18 -14 -31t-20.5 -25t-25.5 -20q-8 -4 -18 -10q-18 -10 -41 -14q0 -1 -1 -1v-1v-14q0 -5 1 -11q1 -9 1 -19q0 -12 -3 -23l-1 -7q-4 -19 -20 -29.5t-34.5 -7t-29.5 20t-7 34.5l1 7q1 2 1 5q0 6 -1 11q-1 10 -1 19v12q-2 0 -5 1q-14 1 -32 9q-19 7 -36 22q-14 11 -31 30
q-15 17 -23 27q-11 14 -20 36q-8 19 -10 29q-3 10 -4 20l-3 18q-2 15 -2 37q0 19 1 32q0 13 1 22q1 8 2 19q1 13 4 24q2 11 6 22q5 12 9 21q2 4 5 13q6 16 16 29q6 10 13 18q8 9 17 18t20 19l20 15q11 7 30 15q11 4 18 7q0 7 1 16q1 8 1 14v16q0 11 2 27l2 12
q4 19 19.5 30.5t34.5 8z" />
    <glyph glyph-name="sterling" unicode="&#xa3;" horiz-adv-x="548" 
d="M39 299q-3 19 8 34.5t30 18.5l13 2q15 3 26 3q7 0 14 1q4 1 8 1v7q-1 11 -1 24q0 10 -1 19q0 10 -1 15q-1 9 -1 23q0 12 1 25t4 25q2 12 5 24t9 27q6 17 14 30q7 11 15 19.5t20.5 19t26.5 19.5q15 10 29 16q20 8 37 8h25q21 -1 38 -5q14 -4 29 -9q17 -6 28 -14
q11 -7 27 -21t29 -29t22 -30q12 -19 15 -35q2 -12 2 -26v-9q0 -19 -13.5 -32.5t-32.5 -13.5t-33 13.5t-14 32.5v9v7q-1 2 -3 5q-6 9 -14 19t-19 19q-11 10 -16 13q-3 2 -11 5q-10 3 -19 6q-7 2 -18 2h-20q-1 0 -2 -1q-8 -3 -16 -8q-9 -6 -16.5 -12t-11 -10t-6.5 -9
q-2 -4 -5 -11q-4 -11 -6 -19t-4 -17q-2 -8 -2 -16q-1 -8 -1 -17t1 -13q0 -7 1 -19t1 -25v-18q1 -4 1 -7q14 0 23 -1h11h83q19 0 32.5 -14t13.5 -33t-13.5 -32.5t-32.5 -13.5h-83h-19q-3 1 -11 1v-15v-20l-2 -20q0 -11 -1 -22q-1 -15 -5 -33q-4 -14 -7 -29q-4 -17 -9 -31
q-1 -4 -3 -7q6 1 13 2l24 3t22 1h29h25h17h26t25 -1q12 -1 21 -1h29h19l9 -1q19 -2 31.5 -16.5t11 -33.5t-16.5 -31.5t-34 -11.5l-8 1h-12h-29q-12 0 -26 1q-12 1 -22 1h-21h-20h-25h-28q-10 0 -15 -1q-6 0 -19 -2q-15 -2 -25 -4q-13 -1 -25 -1q-4 0 -17 -2q-16 -2 -23 -4
l-8 -2q-19 -3 -35 7.5t-20 29.5q-1 2 -1 4q-11 28 9 50l6 7q6 6 10 11l6 8l8 14q2 5 5 12t5 19q4 14 7 29q3 11 3 19q1 9 1 18q1 13 2 23v14v8v1h-1q-11 -2 -21 -2q-6 0 -15 -2l-13 -2q-19 -3 -34.5 8.5t-18.5 30.5z" />
    <glyph glyph-name="yen" unicode="&#xa5;" horiz-adv-x="581" 
d="M85.5 116.5q-4.5 18.5 5.5 35t29 21.5l8 2q13 3 28 3q8 0 26 1h32h28q1 11 1 22v41q0 4 -1 10h-55h-30q-21 1 -29 1h-18q-7 0 -14 -1h-8q-19 -2 -33.5 10.5t-16 31.5t11 34t31.5 16l8 1q10 1 21 1h18q10 0 32 -1h27h20l-4 6q-5 9 -11 20q-5 9 -13 25q-8 15 -12 20
q-8 15 -13 24q-4 7 -7 12q-5 9 -11 17l-18 27t-19 28q-6 9 -13 18q-10 12 -18 24q-6 8 -11 14l-6 7q-12 15 -10 34t16.5 31t34 10.5t31.5 -16.5l6 -8q8 -9 16 -20q5 -8 12 -17q10 -12 18 -24q8 -11 20 -29l18 -27q7 -10 13.5 -20.5t10.5 -18.5q3 -5 8 -15q7 -10 15 -27
q9 -16 14 -26q5 -9 9 -16l4 -6h1q5 8 9.5 15.5t8.5 14.5q4 5 11 18q8 16 18 28q7 9 14 20q9 13 18 25q8 11 18 26q9 15 14 22q5 9 13 20q7 10 16 24q11 19 24 34l11 12q12 14 31.5 15.5t34 -11t15.5 -32t-11 -33.5l-11 -12q-8 -9 -15 -21q-10 -17 -18 -28q-7 -10 -11 -16
q-5 -9 -15 -25q-11 -17 -21 -30q-9 -11 -16 -23q-9 -13 -18 -23q-5 -7 -10 -16q-7 -14 -12 -23l-10 -16l-10 -16l-2 -2q11 0 26.5 -0.5t23.5 -1.5t17 -1q12 -1 23 -3q6 -1 10 -1q5 0 14 1l10 1q18 1 33 -12t16 -31.5t-11.5 -33.5t-31.5 -16l-10 -1q-11 -1 -20 -1
q-11 0 -23 2l-16 2q-10 1 -19 1q-7 1 -20 2h-22q-11 0 -27 1h-2q1 -3 1 -5v-41q0 -8 -1 -17q10 1 17 1h19q11 0 23 1q19 2 36 0q13 -2 19 -2q5 -1 12 -1h9q19 0 32.5 -13.5t13.5 -32.5t-13.5 -33t-32.5 -14h-9q-12 0 -20 1q-7 1 -21 2q-9 1 -18 1q-15 -2 -30 -2h-20
q-4 0 -16 -1v-6v-14q1 -12 1 -22v-23q0 -19 -14 -32.5t-33 -13.5t-32.5 13.5t-13.5 32.5v23q0 7 -1 16v20v1h-29h-28q-20 -1 -30 -1q-3 0 -6 -1l-9 -2q-18 -4 -34.5 6t-21 28.5z" />
    <glyph glyph-name="section" unicode="&#xa7;" horiz-adv-x="545" 
d="M461 424q-19 0 -32.5 13.5t-13.5 32.5v6q-1 3 -2 8q-3 14 -5 28q-1 5 -2 8q-2 4 -4 9q-4 5 -10 13l-14 20q-3 4 -5 5q-4 3 -9 6l-9 3q-6 2 -12 2q-10 2 -26 5q-9 2 -13 2h-18q-6 0 -18 -2l-21 -3q-8 -2 -19 -4q-6 -1 -13 -4q-6 -3 -13 -9t-14 -14q-7 -10 -12 -18
q-2 -4 -5 -15q-2 -13 -3 -22q0 -9 0.5 -14.5t3.5 -14.5q3 -7 7 -13q6 -8 13 -14q11 -10 19 -15q6 -5 18 -12q13 -7 25 -12q13 -5 25 -10q14 -5 29 -11q12 -5 25 -9q14 -4 31 -9q23 -7 36 -14q8 -4 15 -8q9 -5 18 -11q13 -8 26 -23q12 -15 20 -31q7 -14 10 -24q4 -11 5 -24
q1 -12 1 -22v-17q-1 -11 -4 -22.5t-9 -24.5q-5 -12 -10 -22l-6 -12q-5 -10 -13 -21q-7 -10 -17 -19q9 -9 16 -18q6 -8 11 -16q7 -12 11 -27q2 -9 4 -16q2 -8 3 -17q2 -11 2 -25v-21q0 -22 -9 -40q-5 -8 -12 -18q-8 -11 -21.5 -25.5t-23.5 -22.5q-11 -10 -22 -16
q-10 -6 -19 -11q-10 -5 -21 -9t-23 -7t-26 -5q-18 -3 -36 -1q-13 1 -25 3q-13 3 -21 5q-6 1 -12 3q-10 2 -27 8.5t-32 15.5q-14 8 -26 17q-14 10 -32 29q-20 21 -33 46l-14 28q-4 9 -6 18l-2 7q-5 18 4.5 35t27.5 22t35 -4.5t22 -27.5l2 -6q1 -3 2 -7q3 -5 12 -22
q6 -13 17 -24q13 -14 20 -19q8 -6 18 -12q9 -5 19 -9t14 -5q6 -1 13 -3q6 -1 15 -3q10 -2 20 -3h10q10 2 19 4q8 2 13 4t10 5q7 3 14 8q5 2 10 7q6 5 16 15q9 10 13 15q2 3 4 7v19v10q-1 6 -3 11q-1 6 -3 14q0 1 -1 2q-3 5 -6 9q-2 3 -7 8t-12 9q-9 6 -21 13t-22 13
q-7 4 -12 6q-9 3 -19 6.5t-19 6.5q-12 4 -23 8q-13 4 -32 12q-21 9 -41 21q-19 11 -33 20q-15 11 -29 23q-13 12 -23 23q-9 10 -16 20q-13 17 -17 35q-4 17 -2 35l4 22q3 9 7 22q6 19 19 35l14 18q11 15 30 27q-11 11 -19 22q-13 18 -20 38q-6 18 -8 32t-1 32q1 16 6 37
q5 23 14 40q7 14 19 30q14 17 30 30q17 13 35 21q16 7 32 10q10 2 17 3q9 2 26 5q19 3 31 3h17q14 0 34 -4q13 -2 21 -4q10 -1 20 -4q13 -3 27 -9q14 -7 25 -16q14 -10 24 -25q7 -9 13 -18q9 -11 15 -21q7 -11 11 -23q5 -13 8 -29q1 -9 3 -18q5 -18 5 -30v-7
q0 -19 -14 -32.5t-33 -13.5zM220 313q-6 -3 -12 -4l-10 -2q-6 0 -12 -3q-5 -1 -12 -6q-5 -4 -7 -6q-7 -9 -15 -20q-3 -2 -4 -6q-3 -10 -5 -16q-1 -5 -2 -12q6 -8 13 -16l15 -15q9 -8 19 -15q12 -7 28 -17q15 -9 30 -15q16 -7 25 -10q11 -4 21 -7q11 -3 23 -8l21 -7l14 -6
q6 3 14 6q4 2 9 6l4 4q4 5 5 8q4 8 9 16q2 6 6 13q3 7 4 11t1 7v10v12q-1 5 -2 7q0 3 -4 10q-3 5 -8 11q-4 5 -6 6q-5 4 -10 6q-8 5 -17 9q-4 3 -18 7q-18 5 -32 10q-15 4 -31 11q-14 5 -27 10t-27 11z" />
    <glyph glyph-name="copyright" unicode="&#xa9;" horiz-adv-x="765" 
d="M284 579q-7 -2 -13 -5q-6 -2 -12 -6q-9 -5 -20 -14q-13 -11 -22 -19l-12 -12q-4 -5 -12 -16l-18 -26q-7 -9 -12 -19t-9 -21q-4 -13 -6 -22q-2 -8 -3 -13q-1 -8 -3 -21q-2 -11 -4 -28q-1 -13 -1 -26q1 -12 2 -16l5 -25l4 -20q2 -6 5 -17q2 -10 5 -18l6 -16q4 -11 9 -22
q3 -9 6 -17q3 -6 10 -18q11 -16 17 -28q4 -9 8 -16q4 -6 12 -19q7 -10 15 -18q8 -9 17 -15q10 -8 19 -15q4 -2 14 -6q15 -6 23 -9q5 -2 19 -4q14 -3 26 -2q16 1 25 1q8 1 20 4q12 2 23 5q14 5 29 9q14 5 23 8q6 1 14 5l18 9q5 3 13 9q9 7 19 15l17 17l12 12q4 6 7 10
q6 9 11 16q3 4 6 11q5 9 8 16.5t8 21.5t7 20l2 10q1 10 5 23l2 12q1 4 1 9v41q0 7 -1 14q0 2 -1 7q-1 8 -3 13q-4 9 -7 25l-6 21t-6 20q-3 11 -8 20q-4 10 -7 14q-4 9 -11 23q-4 7 -8 13q-7 9 -13 18q-5 6 -10 11q-5 6 -10 10q-6 5 -13 9q-9 7 -19 15q-5 4 -14 8
q-10 5 -22 9q-13 5 -19 6q-10 2 -20 5q-7 2 -15 4q-4 1 -6 1h-16q-11 0 -26 2q-10 1 -17.5 1t-12.5 -1q-4 0 -12 -2l-10 -3q-16 -4 -32 2zM366 682q6 -1 12 -1q10 -2 16 -2h16q13 0 29 -3q11 -3 21 -6q6 -2 13 -3q11 -3 29 -9q19 -6 34 -14q17 -9 30 -19q9 -6 16 -12
q10 -7 19 -13q9 -8 19 -18q9 -10 18 -22q6 -8 13 -17q9 -13 17 -29q5 -11 8 -16q6 -10 12 -24t11 -30t8 -25q2 -8 5 -21q3 -12 6 -18q3 -11 6 -23q3 -16 3 -27q1 -7 1 -16v-41q0 -10 -1 -18q-1 -11 -5 -26q-3 -11 -4 -16q-1 -10 -4 -20l-9 -27q-6 -17 -10 -27t-10 -22
q-7 -14 -14 -24q-4 -5 -9 -14q-7 -10 -16 -20q-8 -9 -16 -17l-19 -19q-14 -13 -28 -23q-15 -11 -27 -17l-20 -10q-15 -7 -28 -11q-9 -3 -24 -7q-14 -5 -27 -9q-16 -5 -34 -9q-17 -3 -30 -4q-11 -1 -30 -2q-23 -1 -46 3t-36 9q-10 3 -27 10q-21 8 -35 19q-10 7 -21 15
q-14 11 -27 24q-15 14 -27 33q-11 16 -17 26q-4 9 -9 19q-4 8 -13 21q-11 18 -16 30q-5 11 -9 22q-4 10 -7 19q-5 11 -9 23q-4 11 -7 24q-3 11 -5 18q-2 8 -5 25q-3 14 -5 21q-3 13 -4 34q-1 22 2 44q2 19 5 32q1 11 2 17q2 10 5 23t8 30q6 18 14.5 34.5t19.5 31.5
q9 13 19 27q11 15 18 23q8 9 19 19t26 23q16 13 30 22q16 10 31 16q13 4 30 8q13 3 24 6q5 1 8 3l9 5q14 7 30 5t28 -13zM503.5 341q-19.5 -7 -38 2t-25.5 28l-3 10q-1 3 -5 8q-7 10 -12 17q-4 4 -7 8q-4 0 -8 1q-9 0 -21 -1q-6 -1 -9 -2q-7 -4 -12 -7l-6 -6q-4 -5 -8 -12
q-3 -5 -4 -12l-4 -30q-2 -13 -3 -19q-1 -3 -1 -10q0 -11 1 -20q0 -6 1 -14q2 -11 4 -23q1 -7 4 -14q2 -5 4 -9l2 -2q6 -4 9.5 -5.5t6.5 -2.5q10 1 19 2q2 0 3 1q6 2 12 5q5 2 10 5q3 2 10 8q4 3 7 6l3 5q11 17 31 21.5t37 -6.5t21.5 -31t-5.5 -37l-5 -7q-8 -13 -25 -26
q-14 -13 -25 -19q-8 -5 -18 -9q-8 -4 -17 -7q-14 -6 -29 -7q-7 -1 -16 -2q-22 -4 -40 2q-9 4 -19 8q-13 6 -28 16q-18 13 -28 29q-6 11 -12 26t-9 32q-3 13 -5 25q-2 15 -2 29q-1 9 -1 21q0 14 2 23q1 7 3 22q2 14 4 29q4 24 14 43q10 18 21 31q13 14 26 23q10 7 23 13
q18 10 42 12q20 2 37 1q19 0 35 -5q22 -7 37 -23q7 -8 14 -16.5t16 -21.5q12 -17 18 -33l4 -10q6 -19 -2.5 -37.5t-28 -25.5z" />
    <glyph glyph-name="guillemotleft" unicode="&#xab;" horiz-adv-x="472" 
d="M417 457.5q15 -12.5 17.5 -32t-9.5 -35.5l-9 -11q-8 -10 -13 -17q-7 -9 -16 -17l-13 -14q-7 -7 -22 -23q-17 -16 -24 -23q-5 -4 -13 -12q-3 -2 -6 -5q14 -17 21 -26q8 -11 15 -20q8 -10 15 -20q5 -7 10 -13q6 -8 15 -19q9 -13 16 -23q3 -6 8 -11l5 -8q13 -15 10.5 -35
t-17.5 -32.5t-35 -10t-32 17.5l-6 8q-8 9 -15 20q-4 7 -11 16q-7 10 -13 17q-7 8 -14 18q-5 8 -11 16q-7 9 -15 19t-23 29q-18 22 -24 32q-9 18 -5.5 37.5t14.5 31.5q7 8 15 15q7 6 15 15q11 10 19 16l18 18l21 21l13 14q5 5 9 10q5 7 14 18l8 11q13 15 33 17.5t35 -10z
M281.5 463.5q13.5 -14.5 12.5 -34.5t-15 -34l-8 -7q-5 -4 -11 -12q-11 -13 -24 -27l-25 -25l-23 -23q-10 -9 -25 -25l-19 -19q6 -9 13 -18q12 -17 19 -28q5 -9 10 -17q7 -10 12 -21q5 -10 11 -21q6 -14 9 -24q1 -3 2 -5l3 -3l7 -8q14 -14 14 -34t-14 -33.5t-34 -13.5t-34 14
l-8 8q-13 13 -19 26q-5 10 -9 21q-1 3 -4 11l-9 18t-8 14q-5 8 -11 18q-5 8 -15 22q-11 16 -20 29t-14 21q-10 22 -5.5 40.5t16.5 30.5l15 15q8 8 23 24l27 27t22.5 22t23.5 24q10 10 17 18q11 15 22 25l8 7q14 14 34 13t33.5 -15.5z" />
    <glyph glyph-name="registered" unicode="&#xae;" horiz-adv-x="745" 
d="M404 659q21 -3 31 -4q16 -3 40 -14q21 -9 39 -20q15 -9 23 -13t15 -8q9 -4 17 -9q7 -4 17 -9q14 -8 25 -19q8 -7 15.5 -15t15.5 -19t13 -18q4 -6 9 -12q8 -12 21 -45q13 -31 16 -43q2 -11 4 -26t2 -28v-21q1 -15 1 -23q-1 -8 -2 -20q0 -8 -1 -15q0 -13 -3 -26
q-2 -7 -4 -16q-2 -12 -5 -22q-1 -4 -1 -10q-2 -14 -5 -25q-1 -5 -3 -13q-3 -14 -7 -24q-4 -12 -11 -23q-4 -7 -8 -15q-4 -6 -8 -13q-6 -12 -14 -23q-7 -9 -16 -20q-9 -10 -19 -21q-14 -15 -29 -21q-9 -4 -20 -8q-12 -4 -23 -7q-9 -2 -17 -4q-8 -1 -15.5 -2.5t-14.5 -2.5
t-18.5 -3t-19.5 -3l-18 -2l-18 -2q-11 -1 -21 -1h-12q-6 -1 -14 -2q-13 -2 -25 -1q-9 0 -19 1q-11 0 -23 3q-13 2 -24 6q-9 3 -16 6q-12 5 -28 16q-15 10 -28 23q-8 8 -16 15t-13 11q-10 7 -23 20q-13 11 -20 19t-16 19q-6 9 -14 19q-10 12 -17 26q-8 13 -14 27q-5 12 -9 21
q-4 11 -7 27q-2 10 -5 20q-4 15 -5 35q-1 14 -1 24q0 11 1 27q2 14 3 22.5t3 22.5q2 15 4 26.5t5 25.5q4 17 13 35q6 13 10 23q7 15 14 28q8 12 16 23t15 19q5 6 13 16q12 13 26 22q6 5 11 8q7 6 17 13q11 8 21 14q11 7 21 11q9 4 22 9t21 7l20 5q11 2 23 5q16 4 30 5
q17 1 30 -2l6 -1q11 -3 21 -11zM328 579q-8 -2 -14 -4q-10 -2 -15 -3.5t-15 -5t-16 -6.5q-5 -2 -11 -6q-7 -4 -15 -10t-14 -10q-8 -7 -18 -13q-3 -2 -7 -7q-8 -9 -14 -16q-4 -4 -9.5 -11.5t-10.5 -16.5q-5 -8 -9 -17q-5 -12 -12 -27q-4 -9 -6 -17q-3 -11 -4.5 -21t-3.5 -23
t-3 -20t-2 -21q-1 -10 -1 -16q0 -8 1 -22q0 -10 2 -16q3 -13 6 -25q1 -8 3 -11q3 -7 8 -19q4 -9 9 -19q5 -8 10 -15q9 -11 15 -20q6 -7 10 -12q5 -5 15 -14q9 -9 15 -13q9 -6 20 -16q10 -10 21 -20q6 -6 14 -12q7 -5 10 -6q6 -3 12 -5q5 -2 12 -3t13 -2h15q4 -1 9 0
q10 2 19 3h20q6 0 14 1q9 1 16 1q6 1 14 2q9 1 19 3q11 1 17 2.5t13 2.5t15 3q6 1 14 3q6 1 13 4l12 4l2 2q7 8 15 18q8 9 13 15q4 5 6 9q4 10 10 19l10 16q2 4 3 7q2 4 3 11q2 11 5 20q1 3 1 8q1 13 4 25q2 7 4 16q2 11 4 21q1 3 1 7q1 10 2 21q1 8 1 13t-1 17v25
q0 8 -2 18q-1 9 -2 16q-2 7 -11 30q-8 19 -12 26q-5 7 -9 14q-4 5 -10 13q-7 8 -11.5 13.5t-10.5 11.5q-3 2 -7 4q-9 6 -16 9l-14 8q-9 4 -17.5 8.5t-25.5 14.5q-14 9 -31 16q-12 5 -17 7q-9 1 -28 3t-29 2h-11q-13 0 -25 8zM287 521q14 0 26 -8q13 2 27 2q16 0 32 -2
q13 -2 23 -3h16q13 -1 24 -2q10 -2 21 -5q14 -3 26 -11q9 -5 19 -13q13 -11 22 -25q6 -12 10 -25q5 -16 3 -36q-3 -14 -7 -27q-5 -15 -13 -29q-10 -14 -24 -26q-10 -8 -20 -13q-2 -2 -4 -3l2 -4q9 -16 16 -27q9 -16 14 -27q3 -8 5 -15q4 -10 7 -19l2 -7q5 -18 -4 -34.5
t-27 -21.5t-34.5 4.5t-21.5 26.5l-2 7q-1 6 -3 11l-6 16q-2 3 -7 11q-7 13 -17 30q-8 13 -12 19q-10 -1 -22 -1h-11q-5 0 -10 1q-1 -6 -1 -14q-1 -11 -1 -21q-1 -8 -1 -14v-40q0 -18 -13.5 -31.5t-31.5 -13.5t-31.5 13.5t-13.5 31.5v40q0 9 1 20q1 10 1 21q1 11 2 21v13v65
q0 9 1 22v21q-1 15 -1 24v10q-1 5 -2 13t-1 19l-1 8q-1 19 12 33t31 15zM394 361h1q9 4 20 8q6 2 9 4q6 4 12 9q3 2 4 4q2 4 4 7l2 12q0 2 -1 3l-1 1q-5 4 -9 6q-1 1 -2 1q-6 2 -11 3q-5 0 -13 1q-12 0 -23 1q-9 1 -24 3q-12 1 -23 1h-1v-2q0 -7 1 -19q1 -16 0 -31
q-1 -11 -1 -17v-3q4 1 9 1h11h15q9 6 21 7z" />
    <glyph glyph-name="degree" unicode="&#xb0;" horiz-adv-x="331" 
d="M178 570q-12 -3 -22 1q-2 0 -5 -0.5t-6.5 -1.5t-4.5 -2h-1q-3 -3 -4 -7q-2 -3 -3 -5l-2 -10q-1 -4 -2 -9v-11v-11q1 -1 1 -2t2 -4q4 -4 8 -9q3 -3 8 -7q4 -3 6 -4l2 -1h6q7 3 15 5q2 1 5 3q6 4 11 8q3 2 4 4q2 3 4 7q2 3 3 6v6q0 5 -1 13q-1 6 -2 11q-2 5 -4 11l-1 1
t-3 2q-8 3 -14 6zM176 659q14 3 28 -3l6 -2q6 -3 16 -7q18 -7 31.5 -20t20.5 -29q5 -11 8 -22q4 -12 6 -26q1 -13 1 -23q0 -12 -2 -25q-3 -14 -10 -27q-6 -13 -14 -23q-8 -11 -19 -19q-8 -7 -17 -13q-13 -8 -25 -12q-7 -3 -13 -5q-15 -6 -31 -6q-10 0 -19 1q-12 2 -24 7
q-11 4 -25 14q-13 10 -22 20q-8 8 -14 17q-9 12 -13 24q-5 12 -6 25q-1 9 -1 20q0 10 1 20q1 9 3 19q1 8 4 16q3 11 10 23q5 11 12 20q12 17 31 25q12 5 23 8q6 1 14 3q21 5 40 0z" />
    <glyph glyph-name="plusminus" unicode="&#xb1;" horiz-adv-x="508" 
d="M52 65q1 20 16 33t34 12h9q9 -1 17 -1h15q7 0 26 -1h36h19q9 1 17 2q7 0 17 1t15 1q9 1 23 1q13 0 29 -1q17 0 28 -2q7 -1 13 -2q8 0 16 -1q11 0 19 -1q4 -1 7 -1h7q19 0 33.5 -14t14.5 -34t-14.5 -34t-33.5 -14h-7q-9 0 -19 1q-5 1 -12 1q-10 1 -19 2q-9 0 -21 2
q-5 1 -17 2h-24h-13q-7 -1 -19 -2t-17 -1q-4 0 -9 -1q-11 -1 -34 -1h-39q-17 1 -22 1h-16q-11 0 -21 1l-9 1q-20 1 -33 15.5t-12 34.5zM38.5 367.5q2.5 19.5 18 32t35.5 9.5h6q7 -1 17 -2l24 -3q16 -1 21 -1q10 0 25 -2q11 -1 16 -1h18v1q0 14 2 29q1 9 1 15.5v12.5
q-1 10 -1 21q0 7 -1 17l-2 12q-2 20 10.5 35.5t32 17.5t35.5 -10.5t18 -31.5l1 -13q2 -15 2 -27v-13q1 -10 1 -21q0 -12 -1 -26q-2 -9 -2 -18v-5h40q12 0 26 -1t25 -2q7 -1 12 -1l7 -1q20 -1 33.5 -16t12.5 -34.5t-16 -33t-35 -12.5l-7 1q-9 0 -20 2q-7 1 -18 2h-20h-46
q-1 -3 -1 -6q-1 -6 -1 -15v-24q-1 -7 -1 -13q0 -11 -1 -20q0 -7 -1 -21q-1 -13 -1 -19v-7q1 -20 -13.5 -34.5t-34 -14.5t-33.5 14t-15 34v7q0 9 1 25t2 24v12q0 10 1 20v17q0 14 2 25h-12q-9 0 -25 2q-11 1 -16 1q-8 0 -28 2q-19 1 -30 2q-9 2 -15 2l-7 1q-19 3 -31.5 18.5
t-10 35z" />
    <glyph glyph-name="uni00B2" unicode="&#xb2;" horiz-adv-x="431" 
d="M74 504q-19 5 -29 22t-5 36l1 7q3 11 8 22q5 13 16 27q9 13 20 23q11 9 24 18q14 10 30 16q14 6 32 10q21 6 37 4q8 -1 15 -1q15 -2 31 -8q18 -7 32 -20q15 -13 25 -34q8 -15 12 -30q7 -20 6 -35q0 -8 -1 -18q-1 -15 -8 -32l-8 -22q-6 -14 -18 -29q-8 -12 -16 -21
q-7 -9 -16 -18q-8 -7 -19 -19q-9 -8 -16 -14h7q11 0 21 1q15 1 29 0q10 -1 17 -1h20q13 -1 24 -3l9 -2q19 -3 30.5 -19.5t8 -36t-19.5 -31t-36 -7.5l-8 1q-6 1 -13 2h-16q-9 0 -21 1h-18q-13 -1 -27 -1h-18q-8 0 -16 1h-15h-21q-11 -1 -17 -1q-9 -1 -22 -1q-26 -1 -43 30
t0 55q8 9 13 16q7 11 20.5 25.5t26.5 24.5q9 8 16.5 14t18.5 16.5t17 16.5t11 12t12 15q5 7 6 11l8 18q1 4 1 6q1 6 1 11q0 2 -1 4q-3 9 -7 18q-2 3 -3 4q-1 2 -3 3q-3 1 -5 1q-7 1 -14 1q-3 0 -6 -1q-11 -2 -19 -6q-7 -3 -13 -7q-7 -5 -12 -9q-4 -4 -8 -9t-5 -7
q-2 -5 -3 -9l-2 -7q-5 -19 -22 -29t-36 -5z" />
    <glyph glyph-name="uni00B3" unicode="&#xb3;" horiz-adv-x="385" 
d="M58 550q-16 11 -19.5 31t8.5 36l4 7q5 6 9 13q11 16 35 32q20 13 35 18q16 6 31 7q13 2 27 1q11 -1 22 -3q14 -2 24.5 -6t20.5 -10q12 -7 24.5 -19t19.5 -26q8 -14 12 -29q2 -9 3 -16q3 -12 3 -24q0 -10 -1 -19q-2 -12 -6 -24q-4 -13 -13 -26q-2 -3 -5 -7q4 -2 8 -5
q20 -10 32 -27t14 -38q2 -16 0 -30q-1 -10 -2 -19q-3 -16 -16 -35q-8 -13 -16.5 -23t-17.5 -19q-10 -10 -22 -18q-11 -7 -21 -12q-9 -5 -19 -9q-12 -5 -22 -8q-12 -3 -28 -5q-18 -2 -33 1q-14 3 -29 9q-13 6 -21 11l-7 4q-17 9 -22.5 28.5t4 36.5t29 22.5t36.5 -4.5l7 -4
l12 -6q5 -2 9 -3h6q6 1 10 2l12 4q7 3 12 6q5 2 11 6l10 8q5 6 10 11.5t10 13.5q1 2 2 3q0 5 1 11v1q-8 4 -15 8q-5 3 -11.5 5t-16.5 4q-13 2 -22 4h-7q-3 -2 -6.5 -3.5t-14 -2.5t-18 2.5t-13.5 16.5t-6 36q0 17 4 28.5t9.5 15t10.5 4.5t9 0l4 -1q12 4 21.5 8t15.5 7
q5 3 8.5 5t9.5 7q3 2 4.5 4t2.5 4v2q1 4 1 9q0 2 -1 4q-1 7 -3 15q0 1 -1 3t-4 5t-5 4q-3 2 -5 2.5t-8 1.5q-7 2 -14 2h-9q-4 0 -8 -2q-5 -2 -16 -9q-5 -3 -8 -5q-5 -8 -9 -15l-5 -6q-11 -16 -31 -19.5t-36 7.5z" />
    <glyph glyph-name="uni00B5" unicode="&#xb5;" horiz-adv-x="476" 
d="M381.5 494q19.5 0 33.5 -14.5t14 -33.5v-68v-13q0 -5 1 -10q1 -9 0 -27q-1 -11 0 -20q1 -12 1 -29v-83v-16q1 -11 1 -21v-26q14 -24 0 -48l1 -1v-21v-20q0 -8 1 -12l1 -6q2 -20 -10.5 -35.5t-31.5 -18.5q-17 -2 -31.5 7.5t-20.5 25.5v-1q-12 -5 -24 -8q-16 -5 -32 -5h-21
q-16 0 -27 2q-9 2 -18 5q-6 2 -13 3q-7 2 -20 6q-2 1 -9 3q-12 3 -23 9q-6 2 -11 6q0 -7 -1 -14l-2 -12v-20q-1 -11 -1 -18v-38v-17v-19q-1 -9 -2 -17t-2 -17l-2 -8q-4 -19 -20.5 -30t-35.5 -7.5t-30.5 20t-7.5 36.5l1 7q1 5 2 9q0 6 1 14v13v16v38q0 8 1 21v21q1 12 3 23
q1 5 1 9v19q1 7 1 18v71q0 10 1 19v11v59q0 10 1 20q1 8 1 15q1 4 1 12q0 11 2 25q1 12 1 21q1 10 2 19q0 8 1 17q1 7 1 15v66q0 13 2 25l1 7q4 19 20.5 30t36 7.5t30.5 -20.5t7 -36l-1 -7v-6v-66q0 -11 -1 -21q-1 -9 -2 -19q0 -8 -1 -18t-2 -23q-1 -11 -1 -18q0 -12 -1 -20
q-1 -6 -1 -14q-1 -5 -1 -11v-59q0 -10 -1 -19v-3q6 -7 11 -14l6 -6q7 -6 13 -10q9 -6 17 -13q3 -3 4 -3q3 -2 6 -3q9 -2 17 -4q7 -2 13 -4l14 -4q4 -2 9 -2q3 -1 9 -1h21q2 0 4 1q8 2 16 5q4 2 8 5q9 8 16 13l7 7v42q0 6 -1 14v23v83q0 13 -1 24q-1 13 0 30v13q0 10 -1 18
v14v68q0 19 14.5 33.5t34 14.5z" />
    <glyph glyph-name="periodcentered" unicode="&#xb7;" horiz-adv-x="174" 
d="M52 363q14 14 34 14t34 -14l3 -3q14 -14 14 -34t-14 -34t-34 -14t-34 14l-3 3q-14 14 -14 34t14 34z" />
    <glyph glyph-name="guillemotright" unicode="&#xbb;" horiz-adv-x="463" 
d="M221 453.5q15 12.5 35 10t32 -17.5l10 -11q9 -12 14 -19q5 -6 14 -18q9 -11 14 -16l9 -11q8 -10 14 -16q6 -7 18 -23q14 -16 20 -27q5 -7 10 -12q17 -21 15 -48q-2 -15 -12 -36q-8 -17 -18 -31q-8 -12 -22 -30q-14 -19 -23 -29q-5 -7 -9 -12q-5 -7 -9.5 -14t-11.5 -18
l-8 -12q-10 -17 -30 -21t-36.5 6.5t-20.5 30t6 35.5l7 12q8 11 13.5 19.5t10.5 16.5q7 9 16 20q6 7 19 24t19 26q5 6 9 14q-2 3 -3 5q-5 7 -16 21q-12 14 -17.5 20.5t-13.5 15.5q-7 9 -10 12q-5 6 -15 18.5t-15 18.5q-4 6 -13 17l-9 12q-13 15 -10.5 35t17.5 32.5z
M87.5 453.5q18.5 6.5 36.5 -2.5t25 -27l2 -6q1 -3 5 -8q11 -15 16 -24q3 -5 8 -13q4 -7 8 -15q3 -5 10 -16q9 -12 19 -29q11 -16 17 -24q6 -9 11 -16q21 -31 0 -68q-8 -14 -18 -25q-6 -6 -18 -20q-12 -13 -27 -31q-16 -18 -23 -26q-7 -9 -16 -18q-8 -9 -14 -17l-6 -8
q-13 -15 -32.5 -17t-35 10.5t-17.5 32.5t11 35l6 8q6 8 16 18q8 11 16 19q7 8 22 26q16 18 29 32q8 10 13 15q-6 9 -14 22q-11 16 -19 28q-9 14 -14 24q-3 5 -6 11q-5 7 -10 15q-2 4 -10 15q-13 18 -18 32l-2 6q-6 19 2.5 37t27 24.5z" />
    <glyph glyph-name="onequarter" unicode="&#xbc;" horiz-adv-x="660" 
d="M599 400q15 -13 17 -33t-11 -35l-6 -7q-1 -5 -2 -11q-1 -10 -1 -14v-23q1 -17 2 -24q1 -10 1 -29v-26q0 -10 -2 -27q0 -7 -1 -15q26 -13 26 -42q0 -30 -28 -43v-7v-24q0 -11 -1 -30q-1 -16 -1 -22v-7q0 -20 -14.5 -34t-34 -14t-33.5 14t-14 34v7q0 10 1 29q1 16 1 23v24
q-1 0 -2 -1q-18 -1 -36 -1h-59q-14 0 -29 1q-12 1 -27 14.5t-21.5 32.5t9.5 40q7 9 18 22q12 13 23 24q8 8 12 13l21 27q14 17 24 29q9 12 13 18q7 10 23 30q14 17 27 34q14 19 26 33l11 14q13 15 33 17t35 -11zM495.5 625q18.5 -7 27 -25.5t1.5 -36.5l-3 -7q-5 -12 -21 -36
q-13 -19 -20 -28q-4 -5 -12 -18q-10 -15 -14 -22q-5 -10 -16 -26t-16 -24q-4 -7 -13 -21t-17 -27q-8 -14 -13 -23q-4 -7 -14 -23q-9 -15 -13 -22t-12 -23q-9 -16 -14 -24q-3 -6 -11 -20q-8 -17 -13 -25q-3 -5 -9 -17q-8 -16 -13 -25q-5 -8 -13 -19q-7 -11 -17 -26
q-9 -14 -13 -21l-4 -10q-9 -17 -28 -24t-36.5 1.5t-24.5 27.5t2 37l5 10q6 13 18 32q11 16 19 27q6 10 10 15q3 5 9 18q8 16 13 24q3 5 10 19q8 15 12 22q5 9 13 24l13.5 24t14.5 24q10 17 14.5 24t11.5 21q9 14 18 30q10 15 15 23q5 7 15 23q10 15 14 22q5 9 16 25
q11 18 17 26q5 6 17 24q8 11 11 16l2 6q7 18 25 26.5t36.5 1.5zM39.5 552q-5.5 19 4.5 36.5t29 22.5l8 2l6 3l16 8q3 2 8 7q10 8 14 13q5 6 9 12q10 16 31.5 17.5t40 -8.5t22.5 -26t2 -42q-1 -22 -2 -31q-1 -6 -1 -12q-1 -6 -2 -18q0 -14 -1 -27q-1 -14 -2 -22v-10
q0 -8 -1 -21q0 -13 -2 -30q-1 -16 -2 -27q-1 -13 -1 -22q-1 -9 -2 -19v-11q-2 -19 -17 -32.5t-34.5 -12t-32.5 16.5t-12 35l1 10q0 11 1 20t1 20q1 13 2 30q2 15 2 26q1 12 1 19q0 9 1 17q0 6 1 18q0 8 1 16q-12 -6 -23 -9l-7 -2q-19 -6 -36.5 4t-23 29zM500 160q1 9 1 19
q2 13 2 19v3q-10 -11 -21 -26q-9 -10 -14 -17q10 0 19 1q8 1 13 1z" />
    <glyph glyph-name="onehalf" unicode="&#xbd;" horiz-adv-x="725" 
d="M406 230.5q-18 7.5 -25.5 26.5t-0.5 37l4 9q7 16 20 31q10 12 22 22.5t24 18.5q13 8 28 14q13 5 31 10q22 6 37 6t34 -6q20 -5 34 -15q18 -12 28 -29q3 -4 8 -11q11 -16 17 -34q7 -21 5 -40q-2 -17 -11 -35q-7 -15 -17 -31q-9 -13 -16 -23q-7 -8 -15 -19q-10 -12 -23 -25
t-24 -22q-6 -4 -16 -15q-7 -8 -13 -14h14q11 0 19 1q15 1 30 -2q10 -1 19 -2q6 -1 12 -1h8q20 0 34 -14t14 -34t-14 -34t-34 -14h-8q-12 0 -24 2q-10 1 -21 2q-5 1 -10 1q-11 -1 -25 -1h-20l-24 -3q-17 -2 -25 -3q-7 -1 -22 -4q-21 -4 -30 -4q-21 -2 -32.5 10t-12.5 29t1 31
t5 17l12 15q9 12 16 20q9 14 24 28l16 16q7 8 20 22q16 18 28 27q6 5 15 14q10 10 16 17q8 10 13 17t12 18q7 10 11 19l2 4q-1 4 -4 7q-6 9 -11 17q-3 2 -7.5 3t-7.5 2l-12 -3q-14 -4 -22 -7q-6 -2 -10 -5q-6 -3 -12.5 -9t-12.5 -13q-3 -4 -4 -6l-4 -9q-8 -18 -26.5 -26
t-36.5 -0.5zM510.5 606q13.5 -14 13 -34t-14.5 -34l-6 -5q-4 -5 -15 -20q-14 -19 -19 -27q-5 -9 -17 -26q-11 -17 -17 -26t-13 -18q-5 -8 -10 -15q-5 -9 -11 -18q-5 -8 -9 -16q-5 -8 -11 -18q-6 -12 -18 -31q-12 -18 -17 -27q-4 -6 -7 -12q-5 -8 -14 -25q-8 -15 -13 -24
t-10 -17q-4 -6 -7 -13q-4 -8 -14 -25q-9 -15 -12 -20.5t-5 -11.5q-4 -8 -12 -22q-7 -13 -11 -20l-8 -14q-3 -6 -8 -15l-10 -18q-5 -8 -11 -16l-4 -7q-11 -16 -31 -19.5t-36 7.5t-19.5 31t7.5 36l5 6q3 6 7 12t8 14q5 9 9 16l6 12l12 21q6 12 9 17l7.5 15t13.5 24q9 16 12 22
l10 18q4 6 8 13q4 8 13 25q9 15 13 22q5 10 11 20q5 8 17 26q10 17 15 26q6 10 11 19q5 10 12 20q5 9 11 17q6 11 14 21l11 16.5t16 23.5q11 17 16 26q7 10 22 32q18 23 27 32l6 6q14 13 34 12.5t33.5 -14.5zM41.5 569q-7.5 18 0 37t25.5 26l7 3q3 1 9 6q10 6 18 12q2 1 4 5
q8 10 14 17t23.5 13t38 1t28.5 -27q5 -15 5 -32v-20v-19q0 -10 -1 -25q-1 -13 -2 -29t-2 -29q0 -12 -1 -22v-21v-23v-16v-17q1 -14 -2 -26v-6v-19q0 -20 -14.5 -34t-34 -14t-33.5 14t-14 34v19q0 10 2 22v7v19v21v18v24q1 12 1 25q1 14 2 30v5q-2 -1 -4 -1l-6 -3
q-18 -8 -37 -0.5t-26.5 25.5z" />
    <glyph glyph-name="questiondown" unicode="&#xbf;" horiz-adv-x="427" 
d="M211.5 343q19.5 2 35 -10t18.5 -32l1 -14l3 -21q1 -11 1 -20v-13q0 -14 -3 -26q-5 -18 -20 -33q-6 -7 -13.5 -14t-14.5 -14q-9 -8 -22 -17q-8 -4 -15 -10q-6 -5 -12 -11q-3 -4 -4 -7q-4 -7 -10 -20q-5 -10 -8 -21q-4 -10 -5 -17l-4 -18q-2 -8 -3 -15q-1 -4 -1 -10
q0 -11 -1 -22v-6q1 -4 3 -10q2 -8 5 -16q2 -5 7 -12q2 -3 4 -4q8 -5 15 -9q9 -4 15 -7t12 -5q4 -2 11 -4t13 -2h4q11 4 17 5q4 2 8 3q6 3 14 6l2 2q5 6 9 11q4 7 10 18q6 10 7 14q2 4 3 11v8l-1 7q-1 20 12 35.5t32.5 17t34.5 -11.5t17 -32l1 -8q1 -14 -1 -30q-3 -16 -7 -28
t-13 -29q-8 -14 -15 -24q-8 -12 -19 -25q-16 -16 -33 -24q-8 -3 -14 -6q-9 -4 -19 -6q-7 -3 -19 -6q-21 -6 -39 -4q-14 1 -28.5 5t-25.5 9l-14 6t-16 8q-11 6 -23 12q-18 12 -33 32q-11 16 -17 32q-5 12 -8 24q-4 13 -6 22q-2 12 -1 27q1 10 1 18q0 12 2 23l4 20q2 9 4 19
q2 11 7 26q6 16 13 32q7 14 11 23q7 13 19 27q10 11 22 21t24 18q7 4 10 7q6 5 11 10l8 8v10v7q-1 8 -3 23l-2 14q-2 19 10.5 35t32 18zM199 474q14 14 34 14t34 -14l3 -3q14 -14 14 -34t-14 -34t-34 -13.5t-34 13.5l-3 3q-14 14 -14 34t14 34z" />
    <glyph glyph-name="Agrave" unicode="&#xc0;" horiz-adv-x="624" 
d="M349.5 686.5q-12.5 -15.5 -32.5 -17.5t-35 10l-10 8q-8 7 -22 16q-19 13 -37 30q-18 18 -27 33l-6 10q-10 17 -5 36.5t22 29.5t36.5 5t28.5 -22l6 -10q3 -4 12 -14q11 -10 23 -18q17 -12 29 -21l10 -8q15 -12 17.5 -32t-10 -35.5zM220 523q7 21 10.5 30t6.5 17
q4 10 13 30l9 20q8 18 26.5 25t36.5 -1q10 -4 17 -12q22 -6 31 -27l4 -7q3 -8 11 -27q7 -17 12 -29q6 -13 16 -38q9 -23 14 -35q6 -14 12 -40q6 -24 10 -36q3 -11 11 -38q8 -28 11 -37q3 -11 7 -27q4 -12 8 -23.5t12 -33.5q9 -23 13 -32t6 -13q3 -6 9 -17q7 -13 14 -29
q5 -12 8 -19t6 -15q4 -9 11 -32q6 -19 8.5 -27t6.5 -19l4 -11q7 -18 -1.5 -36.5t-27 -25t-37 2t-24.5 26.5l-4 12q-5 12 -8 21q-2 8 -7 24h-15h-29q-11 0 -20 -1q-7 0 -28 -2q-24 -3 -38 -3q-10 -1 -24 -1q-14 -1 -36 0h-34q-12 1 -33 1q-20 1 -31 1q-13 0 -30 1h-13
q-3 -8 -7 -19l-6 -16q-7 -18 -25 -26.5t-36.5 -1.5t-27 25.5t-1.5 36.5l6 16q6 16 10 27q4 9 5 15q3 11 12 34q7 18 10 26q3 13 12 36q9 22 15 35q4 8 11 31q8 26 17.5 51t14.5 38q5 12 16 36q10 22 14 34q4 13 11 33t12 33zM434 140l-2 4q-4 8 -9 20q-5 11 -14 35
q-10 25 -14 39q-5 12 -9 26q-4 16 -7 25q-3 11 -11.5 38.5t-11.5 40.5t-10 37q-5 20 -8 29q-5 11 -14 35q-7 17 -12 28l-2 -8q-8 -25 -13 -37q-4 -12 -11 -32t-12 -34q-5 -15 -16 -41q-11 -23 -15 -34q-5 -11 -13.5 -34.5t-16.5 -47.5q-9 -28 -15 -42q-5 -9 -12 -29
q-6 -14 -9 -23h10q12 0 34 -1q21 0 33 -1h33q19 -1 30 0h25l30 3q24 3 36 3q9 1 20 1h6z" />
    <glyph glyph-name="Aacute" unicode="&#xc1;" horiz-adv-x="623" 
d="M245.5 682.5q-11.5 15.5 -9 35.5t18.5 32l6 4q6 5 25 20q20 16 37 29q11 8 16 14l9 11q12 15 32 17.5t35.5 -10t17.5 -32.5t-11 -35l-8 -11q-13 -16 -34 -31q-15 -12 -34 -27q-20 -16 -27 -21l-6 -5q-16 -12 -36 -9t-31.5 18.5zM327 657q19 4 35.5 -7t20.5 -30l5 -24
q5 -23 8 -32q2 -11 8 -32q5 -21 11 -45q7 -24 10 -36q3 -10 10 -33q7 -24 10 -34q3 -9 11 -31t15 -40q8 -20 12 -31t7 -21q2 -8 8 -24q7 -17 12 -32q6 -17 8 -25q2 -4 6 -15q5 -13 11 -28t13 -32q6 -15 9 -23q4 -10 11 -28q3 -9 5 -13l5 -7q11 -16 7 -35.5t-20 -31
t-35.5 -7.5t-30.5 20l-5 6q-8 12 -16 35q-6 16 -10 24q-3 7 -7 18q-2 -1 -5 -2q-11 -3 -22 -4q-7 0 -20 -2q-15 -1 -31 -2h-24q-8 -1 -26 0q-15 1 -31 1q-19 0 -30 1q-10 0 -31 2q-20 2 -31 3h-24q-12 -1 -17 -1l-8 -3q-6 -1 -13 -1l-4 -10q-5 -14 -11 -26l-4 -9
q-9 -18 -28 -24t-36.5 2.5t-24 27.5t2.5 37l4 9q4 6 7 16q5 12 11 28t9 23q2 7 8.5 26t12.5 40q7 24 11 37q4 11 11 34q8 25 13 36q5 13 16 35q9 19 14 28q3 9 11 27q7 20 9 28q3 9 10 27q7 19 11 30q4 9 9 25q7 18 12 30q4 10 14.5 30.5t18.5 34.5l8 16q11 21 35 25
q11 15 29 19zM426 153v1q-1 5 -6 18q-5 15 -12 32q-6 18 -10 28q-2 8 -6 17q-3 10 -10 29q-8 20 -16 43q-9 23 -12 34q-4 11 -11 35t-11 36l-9 36q-6 20 -10 38q-2 -5 -4 -7q-3 -8 -8 -23q-7 -17 -11 -28q-3 -9 -9 -26q-7 -18 -9 -27q-4 -9 -12 -31t-13 -33t-15 -31
q-9 -18 -13 -27q-3 -8 -10 -30q-8 -23 -12 -36q-3 -10 -9 -32q-2 -7 -4 -13q20 1 32 0t34 -3q20 -2 28 -3h24q18 0 35 -1q15 -1 21 -1q6 1 21 1q14 1 25 2t21 2h1z" />
    <glyph glyph-name="Acircumflex" unicode="&#xc2;" horiz-adv-x="621" 
d="M161 652.5q-14 13.5 -14.5 33.5t13.5 34l8 9q12 12 24 21q8 5 18 12q11 8 21 16q10 7 19 13q5 4 9 8l17 17q32 28 75 6q20 -10 42 -30q17 -16 31 -30q14 -13 20 -19l7 -6q14 -13 14.5 -33.5t-12.5 -34.5t-33.5 -15t-34.5 13l-6 6q-7 6 -22 20q-13 14 -29 28q-3 3 -6 5
q-8 -7 -17 -13q-8 -6 -18 -13t-20 -15q-11 -8 -20 -14q-5 -3 -10 -9l-8 -8q-14 -14 -34 -14.5t-34 13zM407 39q-16 1 -18 1q-12 0 -24 1q-10 1 -23 1q-12 1 -18 1q-9 0 -23 1q-12 0 -28 1h-29q-10 1 -28 1h-28h-28l-18 1q-3 0 -6 1l-2 -8l-2 -7q-6 -18 -24 -27.5t-36.5 -3.5
t-28 23.5t-3.5 36.5l2 7q3 9 7 20q4 8 7 16q3 9 13 30q9 18 13 27q4 11 13 32q8 18 11 27q4 15 13 36q7 16 11 25q4 11 13 34q8 22 13 37q3 10 12 33t16 45q8 25 13 37q4 10 12 33q9 24 14.5 36.5t15.5 33.5q9 20 14 31l5 10q9 17 26.5 23.5t34.5 -0.5q17 6 34 -2.5
t24 -25.5l5 -12q5 -12 13.5 -33.5t13.5 -32.5q6 -14 16 -39q9 -24 14 -35q5 -13 13 -37t15 -46q6 -20 11 -31q4 -13 13 -39q8 -23 16 -43q10 -24 14 -37q3 -8 9 -25q7 -18 11 -28q6 -13 14 -37q6 -20 10 -28q4 -10 9 -20l5 -12q9 -17 2 -36t-25 -27.5t-36.5 -1.5t-27.5 25
l-2 4h-9h-39q-9 0 -35 3zM453 132q-5 12 -12 30q-8 21 -12 33q-2 7 -10 27q-10 23 -19 49q-8 25 -12 36q-5 14 -13 36q-6 21 -14 44q-7 22 -11 31q-6 13 -15 37q-9 23 -13 33t-8 18q-1 -3 -2 -5q-4 -11 -13 -33q-8 -24 -13 -36q-4 -9 -11 -31q-8 -24 -17 -49l-12 -31
q-5 -15 -13.5 -38.5t-12.5 -33.5q-5 -12 -13 -31q-7 -15 -9 -24q-4 -14 -15 -38q-3 -8 -6 -14h11h28q20 0 31 -1h27q18 -1 32 -1q11 -1 18 -1q8 0 23 -1q13 -1 24 -1q9 -1 18 -1q14 0 34 -2q15 -2 19 -2h11z" />
    <glyph glyph-name="Atilde" unicode="&#xc3;" horiz-adv-x="652" 
d="M196.5 632q-19.5 -1 -34.5 13t-16 33v8q0 17 6 34q3 7 5 14q3 9 7 20q5 16 13 27q6 9 13 18q9 11 20 19q16 12 38 16q20 3 40 -1q15 -4 28.5 -10t24.5 -13q5 -4 9 -6q8 -5 21 -14q12 -7 21 -12l1 -1q5 -1 8 -1l2 10t1 10l-1 9q0 20 13.5 34.5t33 15t34.5 -13t15 -33.5
l1 -9q0 -13 -2 -26q-1 -11 -4 -22q-4 -16 -12 -31q-13 -22 -35 -31q-11 -5 -22 -7q-12 -3 -25 -2q-11 0 -24 2q-18 3 -35 14q-9 6 -22 14q-11 7 -17 10q-7 5 -17 11q-4 3 -8 5q-5 2 -11 3h-1l-1 -1q-4 -5 -7 -10q-1 -1 -3 -6q-3 -10 -6 -18t-6 -17v-5q1 -20 -12.5 -34.5
t-33 -15.5zM448 175l-1 1q-5 12 -9 21q-4 10 -10 28q-7 18 -10 30q-3 9 -5 17q-3 8 -10 30q-8 20 -11 31q-4 10 -8 19q-5 12 -10 25q-5 14 -13 39q-7 24 -11 36q-3 10 -13 34q-6 13 -11 26q-2 -3 -3 -5q-3 -7 -10 -24q-7 -18 -11 -29q-4 -13 -12 -33t-17 -41l-12 -28
q-4 -7 -12 -24q-7 -17 -11 -25q-3 -8 -5 -13q-2 -7 -9 -26l-6 -18q-3 -15 -7 -26q-4 -8 -6 -15q-3 -7 -6.5 -14.5t-11.5 -26.5q0 -2 -1 -4q8 2 18 2q13 2 22 3q12 1 24 1h19q8 0 24 2q19 2 27 2q11 2 39 3t36 1h31q7 0 17 1h5zM487 90q-12 -10 -27 -10l-12 -1q-12 -1 -22 -1
h-31q-5 0 -31 -1t-33 -2q-9 -1 -28 -3q-21 -2 -34 -2h-19q-7 0 -14 -1q-9 -1 -23 -2q-11 -1 -20 -3q-10 -3 -16 -4l-6 -2q-11 -3 -21 -1q-2 -5 -4 -11q-3 -10 -6 -18q-3 -6 -6 -14l-3 -9q-7 -18 -25.5 -26t-37 -1t-26.5 25.5t-1 36.5l3 8q3 8 6 15q2 6 5 14q4 10 7 20
q3 8 7 18q4 13 8 24q4 9 6 16q2 6 4 14q3 11 12 33q8 18 11 25.5t6 14t5 13.5l2 6q2 13 11 36l8 24q3 8 8 19q4 10 12 28q8 17 11 24t12 26q8 19 15 37q7 19 12 31q4 13 12 32l12 30q5 9 14 27q10 19 14 27q5 8 9 16l5 8q8 14 23 20t30 2q31 2 46 -25l7 -12q8 -15 20 -38
q11 -24 22 -50q11 -28 16 -42q4 -12 11 -36q7 -23 11 -34t8 -21q6 -12 10 -24t11.5 -33.5t10.5 -30.5q3 -10 6 -21q3 -9 8 -25q6 -15 8 -21q4 -9 10 -22q4 -11 9 -21q6 -11 11 -22l10 -22q5 -10 10 -23q4 -10 8 -17q6 -11 10 -19q4 -9 8 -21l2 -4l4 -6q10 -17 5.5 -36.5
t-21 -30t-36 -5.5t-30.5 21l-4 7q-7 11 -11 24q-2 5 -4 9q-3 6 -8 15q-6 12 -12 26v2z" />
    <glyph glyph-name="Adieresis" unicode="&#xc4;" horiz-adv-x="628" 
d="M369 775q14 14 34 14t34 -14l3 -3q14 -14 14 -34t-14 -34t-34 -14t-34 14l-3 3q-14 14 -14 34t14 34zM167 783q14 14 34 14t34 -14l3 -3q14 -14 14 -34t-14 -34t-34 -14t-34 14l-3 3q-14 14 -14 34t14 34zM441 105q-1 3 -2 5q-4 15 -12 41q-7 26 -11 38q-5 14 -14 45
q-8 27 -19 54q-10 28 -17 44q-7 18 -19 51q-11 33 -16 47q-4 13 -16 41q-10 25 -16 38q-3 -10 -9 -28q-7 -19 -11 -34q-3 -10 -11 -31q-6 -19 -9 -28q-3 -13 -13 -37q-8 -21 -12.5 -32.5t-9.5 -25.5l-8 -22q-5 -13 -8.5 -24.5t-6.5 -21.5t-6 -23q-4 -15 -12 -38
q-7 -24 -12 -37q-4 -10 -6 -18q0 -1 -1 -2q16 -1 26 -1h43q26 -1 54 -1q29 0 43 -1h34q24 0 45.5 0.5t31.5 0.5zM474 11h-2l-8 -1q-10 -1 -22 -1q-8 0 -29 -1h-49h-40q-11 1 -37 1q-29 0 -57 1h-40q-14 0 -38 1l-16 1q-1 -2 -1 -3l-2 -9q-5 -20 -22 -30.5t-36 -6t-29.5 21.5
t-6.5 36l2 9l5 20q3 7 7.5 22.5t7.5 24.5q3 8 6 18q3 9 5 17q3 13 9 28q4 11 11 33q6 21 10 33q3 15 7 27q3 11 7 23.5t9 26t10 25.5q5 13 9 25q5 12 13 33q7 19 10 27q3 13 11 35q7 19 9 29q4 13 11.5 35.5t12.5 34.5t14 32q7 17 10 24q4 9 7 17l3 7q9 18 27.5 25t36.5 -1
q8 -4 14 -10q14 -1 25.5 -10t16.5 -23l2 -7q2 -7 8 -23q5 -15 11 -27q6 -13 18 -44q13 -30 18 -46q4 -14 16 -46q11 -31 17 -47q7 -17 18 -46q12 -29 21 -61q9 -29 13 -42q5 -14 12 -41l12 -39q4 -12 10 -31q7 -19 10 -29q3 -9 6 -17t9 -23q7 -16 10 -22l6 -12l4 -7
q9 -17 3 -36t-23.5 -28.5t-36.5 -3.5t-28 23l-4 7q-4 8 -7.5 16t-11.5 25z" />
    <glyph glyph-name="Aring" unicode="&#xc5;" horiz-adv-x="671" 
d="M332 756q-7 7 -11 10q-4 2 -11 5q-6 2 -10 3h-8h-7q-1 0 -4 -1q0 -3 -1 -4v-6q1 -8 2 -18q0 -4 1 -6q1 -5 5 -11q2 -5 5 -8q1 -1 2.5 -2t3.5 -1h3t3 1q7 4 11 7q2 1 2 2q1 1 1 2l2 8q4 11 11 19zM206 834q17 20 38 27q14 6 25 8q10 1 23 1q10 0 19 -1q12 -1 31 -7.5
t31 -15.5q12 -7 25 -20q17 -16 24 -31q8 -18 8 -41l-1 -11q-1 -19 -16 -33l-2 -9q-5 -15 -14 -29q-9 -13 -23 -24q-11 -8 -25 -15q-17 -9 -31 -11.5t-31 0.5q-19 2 -35.5 10.5t-29.5 22.5q-11 13 -19 29q-7 13 -11 24q-5 14 -6 30q0 9 -1 16q-1 11 0 23q1 10 3 20
q3 18 18 37zM480 117q-4 8 -9 21q-10 20 -14 29t-9 21q-4 10 -14 31q-9 20 -15 30q-7 13 -19 39q-12 23 -25 47q-14 27 -28 55q-12 27 -18 41q-5 10 -10 23q-5 -9 -8 -16q-4 -11 -14 -37t-13 -37q-5 -15 -16 -43q-10 -24 -13 -36q-5 -14 -14.5 -41.5t-14.5 -40.5t-20 -51
q-11 -26 -17 -40q5 1 8 1q12 2 30 2q17 0 29 -1q7 0 16 1q20 1 30 1h14q7 0 23 1q15 0 21 1q10 1 28 0q16 -1 23 -1h24q13 -1 26 -1t19 1zM519 25q-7 -2 -15 -3t-17 -1q-9 -1 -25 -1q-15 0 -31 1h-20q-9 0 -27 1h-7h-6.5h-2.5q-8 -1 -25 -1.5t-27 -0.5h-17q-4 0 -18 -1
q-21 -2 -34 -1q-6 1 -20 1q-13 -1 -19 -1q-9 -1 -29 -4l-22 -3q-5 -1 -10 0q-2 -3 -2 -5q-3 -8 -5 -13q-3 -10 -7 -19l-3 -7q-8 -18 -27 -25t-36.5 1t-25 26.5t0.5 36.5l3 7q2 4 3 9q3 9 8 20q4 11 13 30q8 16 15 35q8 19 13 31q4 13 20 50q14 37 19 49q5 13 14 38.5
t13 38.5q5 15 16 43q10 24 13 34q4 15 15 43q11 29 16 42q6 12 15 32q8 18 11 26q4 12 15 33l10 18q9 17 28 23t36 -3q16 -9 23 -26q9 -7 14 -17l7 -14q7 -14 18 -40q10 -24 16 -37q6 -14 19 -40q11 -26 24 -50q15 -26 27 -51q11 -23 17 -34q8 -14 18 -37q11 -22 15 -34
q5 -11 9 -19q3 -8 12 -28q10 -19 14 -30q4 -10 8 -19l8 -18q3 -8 11 -26t11 -25q2 -6 7 -17q4 -9 6 -13l4 -6q11 -17 6 -36.5t-21.5 -29.5t-36 -5.5t-29.5 21.5l-4 6q-6 9 -12 23q-6 12 -9 19q0 1 -1 3z" />
    <glyph glyph-name="AE" unicode="&#xc6;" horiz-adv-x="914" 
d="M734 660q10 -2 23 -2q17 -1 26 -1q9 -1 17 0q6 0 10 1l8 1q20 4 36.5 -7t20.5 -30t-7 -36t-30 -21l-8 -1q-13 -3 -26 -3q-11 -1 -23 0q-11 0 -29 1q-21 1 -34 4q-5 1 -13 1q-13 0 -23 1q-9 1 -23 2q-13 1 -24 1h-44q-17 0 -30.5 -0.5t-24.5 -1.5q-5 0 -21 -1v-6
q1 -15 2 -26q1 -12 2 -27q1 -18 1 -29v-12v-62v-15q12 0 23 -1t24 -1h31l30 -2q13 0 30 -1q13 -1 22 -1q8 0 14 1q10 1 19 1h15h6q20 0 34 -14.5t14 -34t-14 -33.5t-34 -14h-6h-14q-6 0 -12 -1q-10 -1 -21 -1q-12 0 -28 1q-14 1 -29 1.5t-31 1.5h-26q-16 0 -30 1q-7 1 -16 1
v-69q0 -10 -1 -31v-20q1 -11 1 -20v-20v-34q0 -5 1 -12h2q14 1 22 1h17h26q15 -1 29 -2q13 -2 20 -3q4 0 20 -1q17 -1 24 -1q12 0 23 -1q5 -1 18 -1h20h54q20 0 34 -14.5t14 -34t-14 -33.5t-34 -14h-54h-23q-18 1 -27 2h-11q-9 0 -28 1q-21 1 -29 2q-6 1 -18 2q-11 1 -21 2
h-23h-17h-17q-12 -1 -23 -1q-13 -13 -31 -13q-19 0 -33 13.5t-15 32.5q-6 13 -4 28q1 5 4 10q0 6 -1 15q-1 13 -1 22v34v7h-10h-44q-16 0 -28 2q-7 1 -17 2q-7 1 -13 2q-5 1 -15 1h-25l-12 1q-9 0 -18 4l-6 -8q-8 -13 -13 -20q-5 -6 -8 -12q-4 -7 -8 -15q-6 -10 -13 -20
q-8 -12 -18 -22q-6 -6 -10 -12q-4 -4 -10 -14q-7 -12 -14 -22q-5 -10 -12 -19l-5 -8q-11 -17 -30.5 -21t-36 7t-20.5 31t7 36l6 8l10 16q5 9 13 22q9 15 17 25q7 9 17 18q4 5 7 9q5 7 8 13q5 7 8 15q5 9 12 18q5 8 14.5 21.5t16.5 22.5q6 8 13 20q9 13 19 27q8 13 14 22
q5 9 15 26.5t14 23.5q3 6 9 16q6 11 16 31q12 23 24 39q9 12 19 30q10 19 13 24q4 8 12 21q7 11 15 24q8 11 11 17q6 9 16 21q5 8 9 14q6 12 13 22q1 1 1 2v6q-1 20 12.5 34.5t33.5 15.5h8q6 1 16 2q15 2 33 3q16 1 22 1q8 1 23 1q16 1 35 1h44q16 0 33 -1q14 -2 22 -2
q7 -1 17 -1q16 0 27 -3zM425 239v123v20q-1 16 -1 24v46q-5 -8 -7 -12q-3 -7 -16 -29q-12 -23 -24 -39q-8 -11 -17 -28q-10 -20 -16 -31q-7 -12 -11 -19q-3 -6 -14 -24q-9 -16 -15 -25q11 -1 19 -1q8 -1 18 -3l16 -2q5 -1 14 -1h44q3 0 9 1h1z" />
    <glyph glyph-name="Ccedilla" unicode="&#xc7;" horiz-adv-x="524" 
d="M171 -48q-10 16 -6 34t18 29q-11 5 -22 12q-15 8 -25 15t-25 22q-14 15 -22 25q-7 9 -18 25q-12 18 -16 29q-4 10 -8.5 27t-6.5 30q-1 11 -1 32q-1 19 -1 32t1 34t1 32q1 13 2 36q1 24 2.5 36.5t6.5 39.5q6 29 11 44q4 12 13 34q10 23 15 34q7 12 20 30q14 20 24 29
q9 9 27.5 21.5t30.5 17.5q15 7 36 10q19 3 33 1q10 -1 28 -4q21 -4 33 -9q11 -4 31 -14q17 -9 24 -13q14 -6 36 -26q22 -19 36 -42q12 -20 19 -40q6 -17 9 -26t5 -18l2 -7q6 -19 -4 -36.5t-29 -22.5t-36.5 5t-22.5 29l-2 7q-2 6 -4 13t-8 23q-5 12 -12 24q-6 10 -17 20
q-9 8 -14 11q-9 4 -27 14q-15 8 -21 10q-4 2 -15 4q-14 2 -20 3q-4 0 -11 -1q-6 -1 -9 -2q-6 -3 -17.5 -10.5t-15.5 -11.5q-3 -3 -11 -14q-9 -13 -12 -19q-4 -7 -12 -26q-8 -20 -11 -30q-3 -8 -7 -30q-5 -23 -6 -33t-2 -30q-1 -22 -2 -34q0 -12 -1 -33q-1 -20 -1 -30
q0 -11 1 -29q0 -18 1 -25q1 -6 3 -16q3 -9 4 -13q2 -4 9 -14q9 -14 13 -20q4 -5 14 -15q9 -9 13 -12q6 -4 17 -10q9 -6 17 -8q9 -3 13 -4q5 -1 16.5 -3t18.5 -3q3 0 9 1q10 2 20 5q8 3 17 9q12 9 24 20q10 9 16 18q8 12 12 20q2 4 6 16q4 15 7 26l2 12q5 19 22 29.5t36 6
t29.5 -21.5t6.5 -36l-3 -12q-3 -13 -8 -31q-6 -22 -14 -36q-6 -10 -16 -26q-13 -19 -32 -36q-16 -15 -32 -27q-20 -14 -42 -22q-2 0 -4 -1q8 -8 15 -17q12 -18 16 -32q3 -11 5 -25q2 -19 -4 -41q-7 -23 -25 -44q-13 -15 -29 -28q-19 -16 -38 -22q-22 -7 -47 -4l-13 2
q-20 3 -32 19t-9 35.5t19 31.5t36 9l13 -2h3q3 2 8 6q9 7 17 16q4 5 4 7q1 4 1 5q0 4 -1 7q-1 2 -3 5q-3 4 -6 6q-2 1 -3 2q-3 0 -8 -1q-4 -1 -6 -1l-6 -4q-17 -10 -36.5 -5.5t-29.5 21.5z" />
    <glyph glyph-name="Egrave" unicode="&#xc8;" horiz-adv-x="503" 
d="M274.5 704.5q-11.5 -16.5 -31 -20t-35.5 7.5l-45 31q-7 4 -20 13t-17.5 12t-11 9t-11.5 12l-5 7q-13 15 -11 35t17.5 32.5t35.5 10.5t32 -18l4 -4q10 -8 41 -30l45 -31q16 -11 20 -30.5t-7.5 -36zM314 561q-17 -3 -44 -5q-31 -3 -57 0q-22 2 -41 3q-18 2 -36 2h-2v-24
q0 -18 1 -60q2 -44 2 -69q0 -17 1 -27q8 2 17 3q10 2 26 2q15 1 22.5 1t19.5 -1q10 -1 15 -1q9 0 24 -1q10 -1 21 -1h21q4 0 7 1l8 1q19 4 36 -7t21 -30t-7 -36t-31 -21l-7 -1q-13 -3 -25 -3h-23q-17 0 -31 1q-10 1 -14 1q-8 0 -20 1q-10 1 -15 1t-18 -1q-12 0 -17 -1
q-4 0 -8 -2l-9 -2q-7 -2 -14 -2v-21q1 -29 1 -39v-19q0 -12 -1 -22v-18q0 -15 -1 -28q-1 -12 -1 -26q-1 -12 0 -21h9q15 1 23 1q5 0 11 1q7 0 18 1q10 1 16 1q9 1 23 1q13 0 29 -1h30q19 0 34 -2q6 -1 11 0q13 2 26.5 3.5t25.5 1.5q14 0 27 -3l8 -1q20 -4 31.5 -20.5
t8 -35.5t-20 -30.5t-35.5 -8.5l-9 2q-5 1 -10 1q-8 0 -17.5 -1t-19.5 -3q-18 -3 -37 0q-10 1 -23 1q-18 0 -34 1h-25h-13q-7 -1 -19 -2q-10 -1 -19 -1q-9 -1 -17 -1h-20q-16 -1 -26 0q-7 0 -22 2q-7 0 -13.5 2t-18.5 7t-20 17t-8 30v15v15q-1 14 0 32q0 15 1 28q1 10 1 22
q0 16 1 26v14v19q0 8 -1 37v43q1 9 1 31v35q0 13 -1 37q0 23 -2 68q-1 43 -1 63v26q0 11 1 20q1 15 11 36q8 17 25 30t41 10q7 -1 23 -2l40 -2q21 -2 43 -4q18 -2 39 1q25 2 41 4q27 3 44 5q22 2 38 0l10 -1q20 -3 32 -19t9.5 -35t-18.5 -31.5t-35 -9.5l-10 1q-5 1 -16 0
q-16 -2 -42 -5z" />
    <glyph glyph-name="Eacute" unicode="&#xc9;" horiz-adv-x="510" 
d="M210 681q-12 15 -10 35t17 32l7 6q7 6 19 16l24 22q8 7 11 11l6 8q12 16 32 19t35.5 -8.5t18.5 -31t-8 -35.5l-6 -9q-9 -12 -25 -26q-12 -11 -25.5 -22.5t-20.5 -17.5l-8 -6q-15 -12 -35 -10t-32 17zM56 616q-1 20 12.5 34.5t33.5 15.5h7q5 0 14 1q12 2 28.5 2t37.5 -3
l19 -2q10 0 29 -1q17 -2 33 -2q17 -1 34 -1t26 1q11 1 20 1q11 1 20 1q5 0 13 1h19h7q20 1 34 -13.5t14 -34t-14 -33.5t-33 -15h-7h-14q-11 -1 -19 -1h-13q-10 -1 -21 -2q-12 -1 -32 -1q-18 0 -36 1q-19 0 -39 2q-16 1 -20 1q-10 0 -31 3q-9 1 -17 1q-1 -6 -1 -8v-26v-31
v-22q0 -11 -1 -34q-1 -22 -1 -33q0 -14 -2 -38q-1 -9 -2 -16q8 0 15 1h28h26q9 0 26 -1t31 -2q10 -1 15 -1q2 0 5 1q11 3 27 4l14 2q20 2 35.5 -10.5t18 -32t-10 -35t-32.5 -17.5l-13 -2q-11 -1 -16 -2q-13 -4 -27 -4q-10 0 -25 1q-12 2 -27 2q-15 1 -21 1h-26h-24
q-5 0 -11 -1l-7 -1q-5 -1 -9 -1v-45q0 -11 -1 -24q0 -10 -2 -28q-1 -19 -2 -28q0 -10 -1 -21q-1 -8 -2 -22q-1 -4 -1 -7h7q14 -1 22 -1q11 -1 29 -4q16 -3 26 -4q7 -2 28 -4.5t30 -3t27.5 -1t25.5 -0.5q11 0 30 -3q13 -1 22 -1q10 -1 19 -1q1 0 2 1l5 1q18 6 36 -3t24 -27.5
t-3 -36.5t-27 -24l-7 -2q-13 -5 -30 -5q-11 0 -22 1q-11 0 -30 2q-14 2 -19 2q-9 0 -29 0.5t-31 1.5t-34.5 3.5t-33.5 4.5q-9 2 -25 4q-13 3 -17 3q-9 0 -23 1h-12q-6 -1 -16 -2h-3q-13 -7 -27 -6q-20 2 -32.5 18t-10.5 35l1 8q1 7 1 17q1 10 1 16q0 8 1 24q1 15 2 25l2 18
q0 9 1.5 27t2.5 29v17v55q0 13 3 33q2 18 4 30q1 6 1 13q0 14 2 39q2 19 2 27q0 12 1 35t1 33v21v31v28q0 9 2 22q-10 13 -10 28z" />
    <glyph glyph-name="Ecircumflex" unicode="&#xca;" horiz-adv-x="494" 
d="M97.5 673q-11.5 16 -8.5 36t19 31l15 12l30 22q14 11 23 20q11 10 17.5 16.5t11.5 12.5q12 14 32 18.5t38 -3.5q17 -8 35 -29q11 -13 25 -28q15 -16 27 -29q5 -6 8 -8l7 -3q18 -9 24 -28t-2.5 -36.5t-27.5 -24t-37 2.5l-8 4q-16 8 -34 28q-12 13 -27 28q-8 9 -15 17
l-8 -8q-13 -12 -30 -26l-32 -24l-15 -11q-16 -11 -36 -8.5t-31.5 18.5zM50 9q-4 16 4 32q-12 12 -13 29l-1 8q-1 8 -1 18q-1 12 1 31q1 12 0 25q-2 18 -2 28v68v28q1 11 1 19v28q0 23 1 35q0 13 1 35q1 21 1.5 31t0.5 19v29v52q0 12 2 31l1 18q1 3 1 7q-10 14 -9 31
q1 19 16 32.5t34 12.5h11q12 -1 24 -1q10 -1 16 -1q7 0 15 -1q9 0 24 -2q12 -1 16 -1h20q17 0 27 -2h7q6 0 19 1q17 2 25.5 2t24.5 -2q12 -1 26 -1.5t20 -0.5h22q19 0 33.5 -14.5t14.5 -34t-14.5 -33.5t-33.5 -14h-22q-8 0 -24.5 0.5t-30.5 2.5q-11 1 -15 1q-5 0 -18 -1
q-16 -2 -25 -2q-11 0 -22 1q-4 1 -14 1h-20q-9 0 -26 1q-13 2 -20 2q-3 0 -7 1v-10q-2 -16 -2 -24v-52v-32q0 -9 -0.5 -20t-1.5 -32q0 -5 -1 -9h8q12 1 25 2q12 1 24 1q12 1 19 1h39h13q15 2 25.5 2h20.5h19h23l9 -1q19 -2 32 -17t11.5 -34.5t-16.5 -32.5t-35 -12l-8 1h-16
h-19h-17t-18 -1q-12 -1 -24 -1h-39q-5 0 -15 -1q-11 0 -23 -1q-11 0 -21 -1l-11 -1h-7q-1 -5 -1 -10v-25v-68q0 -6 1 -21q2 -20 0 -39v-19q0 -9 1 -16v-8q1 -3 1 -6h18q7 -1 21 -2h15q11 1 21 1q7 0 25 1q21 2 30 2h18q15 1 23 1h20h22q10 1 24 3q20 2 33 0l8 -1
q19 -2 31.5 -18t10 -35.5t-18.5 -31.5t-35 -10l-8 1h-1.5t-4 -0.5t-5.5 -0.5q-16 -2 -28 -2q-13 -1 -28 -1h-20q-5 0 -18 -1h-23q-5 0 -23 -2q-20 -1 -31 -1q-8 0 -15 -1q-12 -1 -29 1q-13 1 -19 1h-20q-10 0 -14 -1l-9 -2q-19 -4 -36 6.5t-21 30.5z" />
    <glyph glyph-name="Edieresis" unicode="&#xcb;" horiz-adv-x="516" 
d="M269 784.5q14 13.5 34 13.5t34 -14l3 -3q14 -13 14 -33.5t-14 -34t-34 -13.5t-34 14l-3 3q-14 13 -14 33.5t14 34zM76.5 788.5q13.5 13.5 33.5 13.5t34 -13l3 -4q14 -13 14 -33.5t-14 -34t-34 -13.5t-34 14l-3 3q-13 14 -13 34t13.5 33.5zM39 592q-4 19 7 36t30 21l13 2
q15 3 24 4t30 3q20 2 29 3q12 2 35 2h34h36q22 0 31 1q10 1 18 2q9 1 19 2h9q20 2 35 -11t17 -32.5t-11 -35t-33 -16.5l-9 -1l-16 -2q-10 -1 -22 -2t-38 -1h-36h-33q-19 0 -26 -1q-9 -1 -30 -3q-6 -1 -12 -1q-1 -7 -1 -11q0 -7 2 -30q1 -23 2 -36q2 -14 3 -27q1 -15 3 -46
q0 -14 1 -23q12 0 33 -1q22 -1 31 -1h26q21 0 34 -1q9 -1 28 -2h20q20 0 34 -14.5t13.5 -34.5t-15 -33.5t-34.5 -13.5l-20 1q-22 0 -34 1q-9 1 -26 1h-30q-9 1 -31 2h-27v-26v-29q1 -20 1 -31v-17q0 -9 -1 -25v-31q0 -18 -1 -26q0 -9 -1 -20q-1 -5 -1 -11q8 0 17 1
q10 0 30 2q23 2 34 2q7 0 26 2q22 2 35 3q11 0 29 1q17 1 23 2q10 1 29 2q15 1 21 1q4 1 13 3l12 4q19 5 36.5 -5t22.5 -29t-4.5 -36.5t-28.5 -22.5l-12 -3q-16 -4 -27 -6q-10 -1 -29 -2q-15 0 -21 -1q-10 -1 -29 -2q-19 -2 -31 -2q-11 0 -30 -2q-21 -2 -32 -3q-7 0 -28 -2
q-23 -2 -36 -2q-10 -1 -18 -1q-10 -1 -18 -2l-7 -1q-22 -2 -38 14q-24 9 -30 34l-2 10q-3 15 -3 34q0 15 1 28q1 8 1 14q1 7 1 22v35q1 14 1 22v18q0 7 -1 25v33v71q0 12 -1 25t-2 45q-1 29 -3 41q-1 13 -2 27q-2 14 -3 39q-2 26 -2 36q0 11 2 26q-4 7 -6 15z" />
    <glyph glyph-name="Igrave" unicode="&#xcc;" horiz-adv-x="273" 
d="M209.5 699q-11.5 -16 -31 -19t-35.5 9l-6 4q-4 3 -12 7q-15 8 -28 17q-14 11 -24 22q-9 9 -18 20l-7 9q-12 16 -9.5 36t18 32t35.5 9.5t32 -18.5l7 -9q6 -7 11 -13q5 -5 12 -10q7 -6 15 -10q15 -7 24 -14l6 -5q16 -11 19 -31t-8.5 -36zM191.5 637.5q19.5 -1.5 32.5 -17
t11 -35.5v-7q-1 -9 -3 -22q-2 -9 -2 -13q0 -7 -2 -24q-1 -13 -1 -17v-16v-19q0 -12 -1 -22q0 -7 -2 -25q-1 -17 -1 -24q0 -10 -1 -18v-13l-2 -20q-1 -6 -1 -17q0 -15 -1 -25q-1 -5 -1 -19q-1 -15 -1 -30q-1 -15 -2 -23v-12v-41v-15q-1 -7 -1 -15q-1 -4 -1 -16v-24
q0 -11 -1 -31q-1 -17 -1 -22v-15v-7q0 -20 -14.5 -34t-34 -14t-33.5 14t-14 34v7v15q0 9 1 29q1 16 1 24v24q0 15 1 23q0 6 1 11v12v41q0 13 1 22q0 5 1 17q0 14 1 30q1 17 2 26v15q0 16 2 27q0 7 1 12v16q1 6 1 15t2 28q1 18 2 27v13v19v14q0 9 1 27q2 15 2 21q0 10 3 24
q2 9 2 14l1 7q1 20 16.5 33t35 11.5z" />
    <glyph glyph-name="Iacute" unicode="&#xcd;" horiz-adv-x="255" 
d="M58.5 684q-14.5 13 -15 33t12.5 35l8 9l19 19q7 5 13.5 12.5t20.5 24.5l15 20q12 15 32 17.5t35.5 -9.5t17.5 -32t-10 -36l-15 -19q-16 -21 -25.5 -31t-18.5 -18q-7 -6 -13 -13l-8 -9q-14 -15 -34 -15.5t-34.5 12.5zM106.5 660q19.5 0 33.5 -14t14 -34v-6q0 -10 -1 -22
q-1 -8 -2 -15q-1 -6 -1 -15q0 -13 -1 -22q0 -5 -1 -20q-1 -17 -1.5 -27.5t-2.5 -27.5q-1 -15 -1 -23q0 -11 -1 -26q-1 -12 -1 -19v-13v-8q1 -9 1 -28v-170q0 -11 -1 -22q-1 -10 -2 -22q-1 -13 -1 -19q-1 -7 -1.5 -17t-1.5 -24q-1 -11 -1 -16v-7q0 -20 -14 -34t-34 -14
t-34 14t-14 34v7q0 8 1 23q1 14 2 23q0 8 1 17q0 7 1 21q1 13 3 23v13v170v16q-1 12 -1 20v16t2 24v18q0 11 2 29q1 17 1 27q1 11 2 27q1 18 2 25v12q0 14 1 25q1 9 3 18v9v6q0 20 14.5 34t34 14z" />
    <glyph glyph-name="Icircumflex" unicode="&#xce;" horiz-adv-x="394" 
d="M51.5 673.5q-13.5 13.5 -13.5 34t14 33.5l10 10q12 12 21.5 20t20.5 15q6 4 13 10q10 7 18 14q6 4 13 11q27 26 59 18q8 -2 13.5 -4t10 -5.5t7 -6l7 -7l6.5 -6.5l34 -34l29 -29q7 -8 14 -14l10 -7q16 -12 18.5 -32t-9.5 -35.5t-32 -18t-35 9.5l-10 7q-13 10 -26 23
q-9 10 -27 28l-25 25l-14 -12q-11 -9 -21 -15q-7 -5 -13 -9.5t-14 -13.5l-10 -10q-14 -14 -34.5 -13.5t-34 14zM176.5 660q19.5 2 35 -11t16.5 -32l1 -7q1 -9 1 -19v-57v-20q1 -11 2 -25q1 -16 0 -44q-1 -25 -1 -39v-29q0 -13 1 -26v-38q1 -22 1 -37q1 -16 1 -27q1 -9 1 -17
q1 -12 2.5 -32.5t1.5 -29.5q1 -8 1 -18q1 -11 0 -32v-22q1 -10 1 -24l1 -13q1 -19 -12.5 -34t-33 -16t-34.5 12.5t-16 32.5v14q-1 12 -2 21q-1 12 0 33q1 16 0 23v19q-1 8 -2 27.5t-2 29.5l-2 24q0 10 -1 25q0 16 -1 40v37q-1 14 -1 28v28q0 16 1 43q1 24 0 36q-1 14 -1 25
q-1 12 -1 25v57v10l-1 7q-2 19 11 34.5t32.5 17.5z" />
    <glyph glyph-name="Idieresis" unicode="&#xcf;" horiz-adv-x="365" 
d="M243 782q14 14 34 14t34 -14l3 -3q14 -14 14 -34t-14 -34t-34 -14t-34 14l-3 3q-14 14 -14 34t14 34zM52 801q14 14 34 14t34 -14l3 -3q14 -14 14 -34t-14 -34t-34 -14t-34 14l-3 3q-14 14 -14 34t14 34zM175.5 661.5q19.5 2.5 35.5 -9.5t19 -32l1 -9q2 -13 2 -24v-21
q1 -17 1 -27v-20q0 -10 -1 -29v-25q0 -9 -0.5 -19.5t-1.5 -28.5q-1 -17 -2 -26q0 -10 -1 -21q-1 -10 -3 -29q-2 -18 -2 -23v-40q0 -18 -1 -30q-1 -9 -2 -25q-1 -15 -1 -22v-15t0.5 -20t1.5 -22q1 -11 1 -28v-81q0 -19 -14.5 -33.5t-34 -14.5t-33.5 14.5t-14 33.5v81
q0 13 -1 22q0 11 -1 24q0 13 -0.5 22t-0.5 17q0 10 1 28t2 28q1 7 1 21v40q0 10 2 32l3 30l2 16q0 10 1 27q1 16 1.5 25t0.5 17v28q1 17 1 26v20q0 8 -1 23v25q0 4 -1 10l-2 10q-2 20 10 36t31.5 18.5z" />
    <glyph glyph-name="Eth" unicode="&#xd0;" horiz-adv-x="667" 
d="M214 7q-12 -7 -26 -6q-19 1 -32.5 16.5t-11.5 34.5l1 12q0 11 0.5 23.5t0.5 21.5q0 10 2 29q1 17 1 27q0 11 1 22q0 9 1 27.5t1 28.5v52v16h-7q-8 1 -17 1t-21 1q-9 1 -14 1h-7q-20 0 -34 14t-14 33.5t14 34t34 14.5h7q8 0 20 -1t19 -1q7 -1 17 -1h6q1 11 0 17
q0 11 -1 32q-1 20 -1 31q-1 12 -1 22v24v50q0 32 27 51q13 9 31 15q15 5 26 7q6 0 17 3q17 3 31 4h24h20h17q13 0 36 -2q26 -3 45 -9q18 -6 39 -17l28 -14q8 -5 20 -14t32 -29q19 -19 28 -31q10 -13 18 -28q8 -13 14 -28q7 -16 9 -25q2 -7 6 -24q6 -21 7 -39q1 -13 2 -19
q0 -8 1 -23q0 -16 -1 -25q-1 -6 -2 -21q-2 -17 -3 -25q-1 -6 -3 -21q-2 -18 -5 -30l-8 -24l-8 -24t-10 -24q-7 -16 -16 -34q-11 -18 -23 -35q-12 -16 -28 -34q-17 -19 -39 -36q-19 -16 -27 -21q-11 -8 -29 -15t-45 -9q-23 -3 -47 -1q-24 1 -49 5q-23 4 -33 6t-18 5l-7 2
q-8 2 -15 7zM242 94q8 0 14 -2l7 -2q5 -2 12 -3.5t28 -4.5q19 -4 37 -4q18 -1 35 0q13 1 19 3.5t8 3.5q6 4 22 18q15 12 27 25q14 15 23 27t16 25t12 24q5 13 8 20q3 8 7 21q4 12 6 19q1 5 3 17q2 16 3 23q1 5 2 20q2 16 2 22q1 4 1 14q-1 11 -1 16q0 6 -2 20q0 9 -4 22
q-4 17 -6 23q-1 4 -4 13q-4 10 -10 19q-4 8 -9 14q-6 8 -22 24q-14 14 -20 19q-7 5 -11 7q-6 3 -23 12q-15 8 -26 11q-10 4 -25 5q-18 2 -25 2h-18h-20h-21q-6 0 -14 -2q-14 -3 -23 -4l-2 -1v-27v-23v-18q1 -12 2 -33q0 -19 1 -29q1 -12 0 -29q15 -1 19 -1q6 0 11 1
q6 0 21 1q17 1 30 1h12q19 0 33.5 -14.5t14 -34t-14.5 -33.5t-34 -14h-12q-10 0 -23 -1q-14 -1 -20 -1q-8 -1 -18 -1q-7 0 -22 1v-10v-52q0 -12 -1 -31.5t-1 -30.5q-1 -9 -1 -19q-1 -11 -2 -30q-1 -16 -1 -23v-15z" />
    <glyph glyph-name="Ntilde" unicode="&#xd1;" horiz-adv-x="567" 
d="M147.5 619.5q-18.5 6.5 -27.5 24.5t-2 37l2 6q3 10 10 23q10 19 27 32q22 18 46 18q14 1 29 -3q11 -3 22 -7q14 -5 27 -12q11 -7 21 -15q6 -5 15 -11q4 -3 6 -4q3 0 5 -1q1 0 2 1q3 0 5.5 2t6.5 6l8 10q12 15 32 17t35 -10.5t17 -32.5t-10 -35l-8 -10q-13 -16 -28.5 -26
t-33.5 -14q-18 -5 -33 -4q-11 1 -23 5q-16 4 -34 16q-13 9 -23 16q-4 4 -10 7q-5 3 -9 5l-8 2q-3 -4 -3 -6l-2 -6q-7 -19 -25 -28t-36.5 -2.5zM108 621q18 7 36.5 -1t25.5 -27l4 -9q2 -5 10 -20q11 -17 17 -26q6 -11 19 -32q15 -27 18 -31q4 -8 19 -28q16 -23 24 -34
q6 -9 19 -28q15 -20 30 -41t22 -31q8 -11 22 -33q13 -22 19 -32q6 -9 18 -28q8 -12 13 -19v31q0 16 1 46l4 60t3 42q0 12 1 36q1 23 1 35t-1 36v30q-1 10 -3 26q-1 14 -2 24q-2 12 -2 23l-1 9q0 19 13.5 34t33 16t34 -12.5t15.5 -33.5l1 -9q0 -7 1 -16q2 -11 3 -27
q1 -14 2 -26q1 -13 1 -37q1 -25 1 -37q0 -13 -1 -38q-1 -24 -1 -37q-1 -14 -3 -45q-2 -29 -4 -57q-1 -28 -1 -42v-126q0 -33 -9 -53q-11 -24 -43.5 -28t-48.5 16q-6 7 -12 13q-14 12 -24 29q-8 12 -12 20q-4 6 -12 19l-12 21q-3 6 -16 24q-13 21 -20 32q-6 9 -19 30
q-12 20 -18 29q-7 9 -21.5 29.5t-29.5 40.5q-15 21 -23 32q-6 10 -21 30q-17 24 -24 37l-18 30q0 -9 1 -21q1 -22 2 -34q1 -14 1 -37v-32v-34q1 -24 -1 -38v-19q-1 -12 -1 -32v-30v-29q-1 -17 -1 -23v-38v-20q0 -16 -2 -26l-1 -6q-4 -20 -20 -31.5t-35.5 -8.5t-31 19.5
t-8.5 36.5l1 6q1 3 1 12v18v38q0 7 1 26v26v30q0 21 1 33q0 14 1 27q1 9 0 29v34v32q0 20 -1 30q-1 13 -2 36q-1 24 -1 37v58q0 7 -1 18q-1 12 -1 19l-1 9q-1 20 12 35t32 17q12 1 23 -4q2 0 3 1z" />
    <glyph glyph-name="Ograve" unicode="&#xd2;" horiz-adv-x="584" 
d="M307 698q-15 -13 -35 -11.5t-33 16.5l-8 9q-4 5 -13 11q-15 12 -24 20q-12 12 -21 29l-6 11q-10 18 -4 37t23.5 28.5t36.5 3.5t28 -23l6 -11q2 -4 4 -6q5 -4 14 -12q17 -12 28 -25l8 -9q13 -15 12 -35t-16 -33zM335 561h-2q-11 3 -22 5q-8 1 -23 1q-18 0 -32 -2
q-8 -1 -12 -2q-6 -2 -12 -5t-20 -9q-8 -5 -15 -10q-9 -8 -21 -20q-9 -9 -16 -23q-7 -12 -9 -17q-2 -9 -6 -26q-4 -15 -6 -29l-3 -27q0 -6 -1 -13q0 -8 -1 -27v-22.5t1 -19.5q1 -17 2 -26q0 -9 1 -25q0 -14 1 -31q1 -15 2 -21q1 -4 5 -16q6 -13 16 -31q8 -14 12 -19
q4 -4 14 -10q15 -10 23 -14q11 -5 27 -12q10 -4 14 -6q9 -1 18 -4q6 -2 18 -3l14 -2q10 1 20 0q8 -1 14 -1q6 -1 12 -1q4 0 11 1t18 6q9 4 13 8q8 7 18 18q9 10 12 14q2 4 7 15t11 27q5 13 6 23q2 13 3 22q1 6 1 18q0 15 0.5 32.5t1.5 34.5q1 14 0 27q-1 16 -1 26v21
q-1 11 -1 15q-1 6 -4 22q-2 14 -3 17q-1 5 -8 20q-6 16 -9 20q-3 6 -8 13q-6 8 -17 23q-6 9 -16 17q-7 6 -11 8q-11 4 -22 11l-9 5zM388 641l9 -6q6 -3 10 -4q15 -6 36 -23q21 -16 35 -37q10 -15 16 -23q7 -10 12 -19q7 -10 16 -31q8 -21 11 -30q3 -10 6 -29q3 -17 4 -23
q1 -9 2 -26v-25q0 -8 1 -22q1 -17 0 -36q-1 -16 -1.5 -32t-0.5 -31q0 -16 -1 -28q-2 -11 -4 -26q-3 -19 -11 -41q-7 -19 -14 -34q-7 -17 -13 -26t-20 -26q-14 -16 -27 -27q-16 -14 -39 -24t-41 -13q-18 -2 -29 -2q-7 0 -14 0.5t-16 1.5q-6 1 -11 0q-10 0 -29 3q-18 2 -30 5
q-7 2 -13 3q-12 3 -33 12q-17 8 -29 13q-14 7 -34 20q-22 14 -33 26q-10 11 -25 37q-13 24 -21 44q-8 21 -10 33q-2 10 -4 31q-1 20 -1 37q-1 13 -1 21q-1 8 -2 23q-1 16 -1 25v29q1 18 1 27q1 11 2 21q1 8 3 25q2 21 8 42q4 18 7 28q3 14 16 38q14 25 32 44q15 16 29 27
q16 13 35 22l21 10.5t15 6.5q13 6 38 8q20 3 42 3q24 0 40 -3q13 -2 27 -5l12 -3q11 -2 22 -11z" />
    <glyph glyph-name="Oacute" unicode="&#xd3;" horiz-adv-x="577" 
d="M281.5 688q-16.5 11 -20.5 30.5t7 35.5l8 11q11 18 31 33q12 9 25 20l15 13q15 13 35 12t33 -16t11.5 -35t-16.5 -33l-14 -12q-16 -14 -31 -26q-7 -5 -10 -9l-7 -11q-11 -17 -30.5 -20.5t-36 7.5zM292 573l-12 -2q-16 -3 -30 -5q-8 -2 -10 -3q-6 -2 -13 -6q-8 -5 -17 -11
t-15 -11l-14 -14q-4 -4 -9 -12q-8 -13 -13 -22q-3 -7 -8 -21q-5 -15 -8 -26q-3 -12 -5 -21q-1 -8 -2.5 -26.5t-1.5 -29.5v-22v-18q0 -7 1 -18q1 -13 2 -20q1 -4 1.5 -8.5t0.5 -7.5l2 -8q2 -7 7 -20q4 -12 6.5 -18t4.5 -12q4 -8 9 -22q4 -13 9 -25q3 -10 7 -20q3 -8 10 -19
q5 -8 9 -11q8 -6 22 -14q14 -7 26 -11q14 -5 21 -6q1 -1 5 -1l9 1q7 2 17 4l12 3q3 1 9 4q11 5 20 10q7 2 21 11q17 10 26 15q2 1 5 4q5 5 11 13l12 16q3 4 5 12q4 11 6 21q2 12 5 28q3 15 4 21.5t1 12.5v16v43q0 18 1 27q1 5 1 21q1 18 1 27v16q-1 8 -2 20q-1 11 -3 21
q-1 12 -2 25q-1 5 -2 9q-3 10 -5 19l-2 4q-4 5 -8 9q-6 5 -12 9q-9 5 -20 11q-13 7 -21 12q-5 3 -18 9q-7 3 -11 5q-10 1 -22 5l-12 3q-5 1 -11 4zM363 653q12 -4 27 -11t24 -12q6 -4 18 -10q13 -7 24 -14q14 -8 27 -19q14 -13 24 -28q11 -17 15 -33q2 -7 4 -15q5 -15 6 -31
q0 -10 1 -18q2 -11 3 -24q2 -13 2 -23q1 -11 1 -23q0 -11 -1 -30q0 -20 -1 -28q-1 -4 -1 -17v-43v-24q-1 -8 -2 -17t-4 -27q-3 -16 -6 -30q-4 -15 -9 -30q-6 -21 -16 -36q-8 -12 -16 -22q-9 -12 -19 -21q-12 -13 -26 -21q-8 -4 -24 -14q-19 -11 -31 -16l-16 -8
q-13 -6 -24 -10l-20 -5q-9 -2 -15 -3q-11 -3 -26 -3q-19 -1 -34 2l-27 9q-20 6 -42 18q-21 11 -35 22q-17 13 -31 36q-12 18 -18 33q-5 13 -10 27q-3 11 -7 22q-5 11 -7 18q-4 8 -6.5 15t-7.5 20.5t-8 22.5q-3 13 -5 25q0 4 -2 16q-1 8 -2 23q-2 15 -2 27v18v22q0 15 2 37
q2 23 4 36t6 27q4 16 10 35q7 21 15 34q5 11 14 26q11 19 24 31q9 10 19 18q10 9 24 18q13 9 23 15q12 7 22 11q14 6 33 9q13 3 29 5q18 4 32 5q19 2 35 -2l9 -2q14 -3 24 -13z" />
    <glyph glyph-name="Ocircumflex" unicode="&#xd4;" horiz-adv-x="583" 
d="M161 663q-18 8 -25 27t1 37l4 9q9 20 26 34q9 8 21 17l25 20q10 8 13 12q9 12 20 22q15 12 32.5 13t28 -3.5t19.5 -11.5q16 -12 27 -22l18 -18q12 -12 21 -23q8 -8 15 -16l7 -7q14 -14 13.5 -34.5t-14.5 -34t-34 -13t-34 14.5l-7 8q-8 8 -18 19q-7 8 -17 18l-15 15
q-5 -5 -13 -12q-17 -15 -29 -24q-10 -7 -17 -13l-4 -9q-8 -18 -27 -25.5t-37 0.5zM288 558h-8q-5 0 -15 -1q-16 -3 -29 -6q-6 -1 -14 -6q-12 -7 -27 -20q-13 -11 -24 -26q-12 -17 -19 -30.5t-9 -19.5q-1 -4 -3 -14q-3 -15 -4 -22q-1 -6 -2 -19v-22v-51q0 -6 1 -20
q0 -12 2 -29t3 -24q1 -6 3 -16.5t5 -24t6 -28.5q3 -13 8 -25q5 -13 10 -24q2 -6 7 -13q7 -8 13 -14q5 -4 7 -6q6 -3 20 -11q13 -7 18.5 -9t18.5 -5q11 -2 16 -2h19h13q6 1 14 3q6 2 22 8q14 5 24 14q12 9 24 23q14 17 18 22.5t10 15.5q5 8 8 16q4 10 6 17q2 9 6 25
q4 15 5 21q1 7 3 22t3 22t2 20t1 29t-1 22q0 6 -2 21q-2 17 -2 25q-1 4 -3 16q-3 14 -6 26q-2 9 -7 19q-4 9 -13 20q-10 12 -17 18.5t-20 14.5q-14 9 -22 13q-12 6 -22 10q-8 4 -17 7q-16 6 -30 18zM288 654q30 10 52 -12l9 -10l1 -1q14 -5 26 -11q10 -4 21 -10
q14 -6 34 -19q20 -12 33 -24t27 -30q16 -20 25 -39q9 -18 13 -36q4 -15 7 -31q4 -19 5 -29q0 -5 2 -20q2 -18 2 -27q1 -9 1 -27q0 -20 -2 -36q-1 -16 -2 -24l-3 -24t-4 -25q-1 -10 -6 -28q-4 -17 -7 -27q-3 -12 -8 -26q-7 -16 -16 -32l-14 -21q-6 -10 -22 -28
q-19 -23 -39 -38q-21 -17 -47 -27q-23 -9 -36 -12q-12 -3 -20 -4q-10 -2 -29 -2h-21q-10 0 -31 4q-20 3 -34 8q-14 6 -33 16q-16 9 -23 13q-10 6 -23 18q-11 12 -22 25q-13 16 -20 33q-6 13 -12 29q-7 18 -11 37q-4 16 -7 31t-5 27t-4 19q-1 8 -3 26q-2 20 -3 37
q-1 15 -1 24v51v25q1 18 2 28q2 10 5 29q5 21 9 32q3 8 13 26q10 20 26 43q18 25 41 44q21 17 39 28q21 13 42 18q15 3 34 6q23 4 38 3h1z" />
    <glyph glyph-name="Otilde" unicode="&#xd5;" horiz-adv-x="577" 
d="M141.5 674.5q-17.5 8.5 -24.5 27t1 36.5l3 7q2 5 3 8q3 10 8 21q6 12 16 28q14 21 30 32q18 12 39 13q17 1 42 -8q22 -8 38 -19q10 -6 22 -14q10 -6 16 -8q12 -5 26 -12q5 -2 8 -3h4t6 1q4 2 7 4l2 10q3 20 19.5 31.5t35.5 8t30.5 -19.5t8.5 -36l-2 -12q-4 -20 -14 -35
q-10 -16 -25 -26q-12 -8 -28 -14q-18 -7 -33 -8q-14 -1 -26 1q-14 2 -34 11q-12 6 -20 9q-14 6 -31 16q-14 9 -26 17q-5 3 -15 7q-6 -9 -8 -14q-3 -5 -4 -9q-3 -9 -7 -20l-4 -7q-8 -18 -27 -25t-36.5 1.5zM304 555q-4 1 -6 1q-7 0 -19 -2q-18 -4 -25 -5q-4 -1 -9 -3
q-9 -4 -24 -11q-16 -8 -24 -11q-2 -1 -8 -5q-4 -3 -12 -14q-10 -13 -18 -27q-8 -16 -13 -29q-4 -11 -6 -20q-2 -11 -4 -24q-1 -17 -2 -25v-10q1 -8 2 -24q1 -15 2 -21q1 -7 3 -24q2 -14 3 -19q2 -10 4 -26q2 -14 3 -20q1 -5 2 -12q1 -4 5 -17l8 -20t9 -21q7 -14 12 -22
q5 -7 11 -14t12 -12q5 -4 11 -7q4 -2 16 -4q13 -3 18 -3h12q8 1 20 3q13 3 28 7t29 10q16 6 25 10q5 2 16 10q10 6 14 11q6 7 10 13t11 17l10 22q3 9 4 21q2 15 2.5 22.5t1.5 12.5q0 9 1 18q1 5 2 16q2 13 2 18v9.5t1 11.5q0 9 -1 24q-1 17 -3 27q-1 9 -7 23q-6 20 -12 38
q-5 14 -9 24q-3 7 -11 21q-8 11 -16 18t-12 9q-7 4 -24 13q-18 8 -27 13l-9 4q-4 2 -9 5zM397 616q13 -7 20 -10q13 -7 31 -23q19 -16 33 -38q14 -21 20 -36q6 -14 12 -33q5 -16 11 -34q8 -23 11 -39q2 -15 4 -36q1 -21 1 -36q-1 -13 -1 -20q-1 -8 -2 -22.5t-3 -22.5v-8
q-1 -7 -1.5 -15.5t-2.5 -26.5q-3 -22 -10 -42q-7 -18 -16 -35q-9 -16 -16.5 -26.5t-17.5 -21.5q-12 -14 -32 -27q-18 -12 -32 -18q-9 -4 -26 -11q-19 -8 -39 -13q-19 -6 -36 -9q-18 -4 -32 -5h-23t-31 4q-26 5 -42 14q-15 8 -27 18q-12 9 -23.5 22t-20.5 26q-8 13 -17 32
q-9 18 -12 26q-3 7 -9 26q-8 21 -10 31l-2 14t-3 22l-3 18q-2 10 -4 29q-2 16 -3 23q-1 8 -3 25q-1 17 -2 26q0 12 1 24q0 8 2 25q1 19 5 35q3 17 11 37q7 17 17 37q12 22 27 42q17 22 32 33q14 10 25 15q6 2 22 10q17 8 29 13q15 6 26 8q7 1 25 5q25 5 44 4q13 -1 25 -2
q22 -1 38 -8l7 -4q15 -6 23 -22z" />
    <glyph glyph-name="Odieresis" unicode="&#xd6;" horiz-adv-x="587" 
d="M331 787q14 14 34 14t34 -14l3 -3q14 -14 14 -34t-14 -34t-34 -14t-34 14l-3 3q-14 14 -14 34t14 34zM133 790q14 14 34 14t34 -14l3 -3q14 -14 14 -34t-14 -34t-34 -14t-34 14l-3 3q-14 14 -14 34t14 34zM318 655q14 1 27 -5l15 -7q18 -9 33 -18t28 -19q15 -11 26 -22
q11 -10 21 -22q9 -11 17 -21q8 -11 13 -20l9 -15q9 -14 15 -30q4 -12 10 -28q5 -17 8.5 -30t5.5 -30q2 -16 3 -26q1 -9 1 -22q0 -12 -1 -27q-1 -14 -1 -22q-1 -10 -3 -24t-4 -23q-2 -8 -3 -16q-2 -10 -4.5 -21t-5.5 -22t-9 -30q-8 -23 -16 -37q-7 -11 -15 -22q-6 -8 -13 -16
q-9 -13 -22 -24t-31 -21q-15 -8 -34 -17q-23 -10 -41 -13q-14 -3 -22 -3q-9 -1 -25 -1q-16 1 -32 4q-15 3 -23 5q-4 1 -11 2q-14 2 -31 9q-15 6 -29 12l-18 9q-13 6 -33 24t-30 36l-10 20t-9 22q-4 12 -7 18q-3 8 -8 23q-6 17 -8 28q-2 10 -4 29q-2 15 -3 21q-2 11 -4 32
q-2 20 -2 31t1 31q2 18 2 24q0 10 2 28q1 15 2 23q1 9 4.5 28t6.5 28q3 11 9.5 24t16.5 28q8 11 13 18q6 7 14 17q12 14 32 29q17 12 29 19q12 8 20 12q11 6 22 10q7 2 23 7q17 6 26 7q13 3 30 2q14 -2 27 -6zM318 556q-13 0 -24 4l-9 4q-1 1 -3 1h-3q-4 -1 -14 -4
q-16 -5 -23 -8q-3 0 -6 -2l-15 -9t-24 -16q-10 -8 -14 -12q-7 -8 -10 -13q-5 -6 -12 -17q-6 -8 -9 -14t-4 -9l-4 -20q-3 -14 -4 -20q0 -8 -2 -22q-1 -13 -1 -18q0 -10 -2 -30q-1 -18 -1 -25t1 -23q2 -15 3 -20q2 -10 4 -30q2 -15 3 -20t5 -17q5 -14 7 -20q3 -7 7 -19
q4 -10 6 -14q2 -5 7 -14q2 -4 11 -12q6 -6 10 -9q7 -3 18 -8q10 -5 21 -9q8 -3 12 -4q11 -2 19 -4q6 -1 18 -4q10 -1 18 -2h12q5 1 15 2q6 1 17 6q15 8 28 14q9 6 14 10t9 9q7 9 13 17q5 6 9 13q2 4 6 16q6 18 8 26q3 9 5 18.5t3 17.5q2 9 4 17q1 7 3 19q2 10 2 16q1 7 1 20
q1 13 1 22t-1 15q0 6 -2 20q-2 13 -4 21t-6 21q-5 14 -9 25q-2 7 -6 13q-8 11 -12 18q-2 4 -7 11t-13 16q-7 9 -14 16q-6 6 -15 12q-11 8 -22 15t-25 13z" />
    <glyph glyph-name="multiply" unicode="&#xd7;" horiz-adv-x="506" 
d="M431 496.5q12 -15.5 9.5 -35t-17.5 -31.5l-6 -5q-3 -3 -9 -10q-10 -13 -20 -25t-24 -27q-14 -16 -24 -26t-21 -20v-1l9 -9q11 -11 19.5 -18t20.5 -17q16 -11 26 -20q8 -8 21 -20l18 -18q8 -9 17 -19l7 -9q13 -15 11.5 -35t-16.5 -32.5t-35 -10.5t-33 17l-7 8q-6 7 -12 13
l-18 18l-17 17q-6 5 -19 14q-15 12 -25.5 21t-24.5 23q-4 3 -7 6l-23 -23q-18 -18 -27 -26t-16 -14l-10 -10q-9 -11 -18 -19q-4 -3 -8 -8l-13 -13l-5 -6q-14 -15 -34 -15.5t-34.5 13t-15 33.5t12.5 34l6 6q6 6 12 13q8 9 17 17q3 2 8 8q9 10 18 18q7 6 15 13l24 24
q9 10 17 17q-5 3 -7 5q-11 8 -19 15t-20 18q-11 9 -18 14q-10 7 -21 17q-5 5 -18 13l-17 11q-17 10 -21 30t6.5 36.5t30 20.5t36.5 -6l16 -11q20 -13 32 -23q7 -7 12 -11q10 -6 24 -18q13 -11 21 -18q6 -6 14 -12l14 -10q3 4 8 8l19 19t21 22q13 14 21 24q9 11 19 24
q14 17 25 26l6 4q15 12 35 9.5t32 -18z" />
    <glyph glyph-name="Oslash" unicode="&#xd8;" horiz-adv-x="622" 
d="M518 508q8 -9 15 -20l12 -24q4 -9 8 -22q6 -16 8 -26q1 -8 2 -21q2 -12 3 -25q1 -15 0 -28q0 -14 -2 -27q-1 -6 -1 -9q0 -11 -4 -32q-3 -16 -5 -32q-3 -18 -7 -36q-3 -14 -6 -25q-3 -13 -5 -20q-3 -12 -10 -26q-7 -13 -20 -29q-11 -14 -21 -25q-11 -12 -22 -22
q-15 -13 -32 -21q-11 -6 -27 -14q-17 -10 -29 -16q-15 -7 -30 -11q-14 -4 -30 -6q-13 -2 -22.5 -2.5t-20.5 -0.5q-12 -1 -22 0q-9 1 -30 4q-22 4 -32 8q-7 -16 -13 -27q-8 -14 -16 -25q-8 -9 -24 -26l-14 -16q-14 -14 -34 -14.5t-34 13t-15 33.5t13 34l14 15q13 14 18 20
q3 5 8 13q5 9 13 27q2 3 3 6q-3 3 -6 7q-8 11 -18 28q-12 20 -16 38q-3 12 -5 18q-3 9 -5 28q-2 13 -3 19q-1 8 -4 26q-3 21 -3 36q0 10 -1 17v21q-1 14 -1 21q-1 10 -1 19v26q0 19 1 30q1 10 2 29l3 27q1 10 3 20q2 7 5 21q4 16 9 27q3 7 10 22.5t10 22.5q5 11 19 28
q12 15 22 27q14 14 30 25q14 10 34 19q23 11 43 14q16 3 32 4h25.5t23.5 -2q14 -1 30 -4q17 -4 36 -11.5t37 -18.5q15 -9 25 -16l1 -1q7 10 12 17t14 18q19 27 45 33l9 2q19 5 36 -5.5t21.5 -29.5t-6 -36.5t-29.5 -21.5q-2 -1 -5 -5t-6 -9l-3 -5q-4 -5 -14 -20
q0 -1 -0.5 -1.5l-0.5 -0.5q13 -24 0 -48zM447 444q-7 -10 -17 -23q-13 -19 -25 -40q-15 -25 -22 -35q-5 -8 -19 -29q-14 -22 -20 -33q-6 -10 -19 -33q-14 -25 -21 -38q-6 -9 -20 -33q-14 -22 -26 -44t-17 -31q-3 -8 -8 -18h2q18 -3 23 -3q4 -1 11 0q9 0 17 1q8 0 18 1
q8 1 15 3t13 5q10 5 26 14q18 10 30 16q7 3 11 7q8 7 15 15q8 8 18 20q7 9 9 13t2 5q2 6 4 17q3 13 7 28q3 13 5 27q2 16 5 34q2 12 3 16q0 11 2 25q1 7 1 14q1 8 0 18l-2 22q-1 9 -2 14q-1 3 -3 11q-4 11 -7 17q-1 4 -6 12q-2 2 -3 5zM159 154q5 10 15 29q13 23 27 47
q14 23 21 34q6 9 19 33q13 25 21 37q7 12 21 34q15 24 22 34q5 6 17 27q14 25 30 47q14 20 22 31q6 10 20 32q-1 1 -3 2q-9 6 -23 14q-11 7 -22 11.5t-20 6.5q-11 2 -19 3q-9 1 -17.5 1h-18.5q-10 -1 -21 -2q-6 -1 -17 -6q-13 -7 -21 -12q-7 -5 -13 -11q-8 -10 -18 -21
q-6 -8 -8 -11q-3 -7 -9 -20q-6 -15 -9 -21q-1 -3 -3 -12q-3 -12 -5 -19q-1 -6 -2 -11q-1 -7 -2.5 -24t-2.5 -27v-23v-26v-12q1 -9 2 -24v-22q1 -8 1 -20q0 -7 2 -21q2 -17 3 -23q2 -8 4 -25q2 -11 3 -15q1 -7 4 -15z" />
    <glyph glyph-name="Ugrave" unicode="&#xd9;" horiz-adv-x="574" 
d="M331.5 662.5q-13.5 -14.5 -33.5 -15.5t-34 13l-10 9q-14 13 -22 24q-3 4 -7 8t-15 12q-14 11 -21 17q-11 9 -19 20l-6 7q-12 15 -10 35t17.5 32.5t35.5 10t32 -17.5l6 -7q3 -4 6 -6l18 -15q16 -12 24 -20q10 -10 17 -21q2 -3 9 -8l10 -10q14 -13 15 -33t-12.5 -34.5z
M89 655q20 0 34 -14t14 -34v-8q0 -10 -2 -27q-1 -11 -1 -16v-29q0 -17 1 -26q1 -14 0 -40q-1 -21 0 -29q1 -12 2 -33t1 -30t1 -32q1 -19 1 -29q0 -5 2 -17q2 -17 3 -25q0 -5 2 -18q2 -14 5 -29q2 -12 5 -25q2 -12 5 -19q3 -8 6 -15q1 -3 3 -5q3 -6 8 -11q4 -4 10 -9
q10 -7 17 -12l18 -12q7 -5 20 -11q16 -8 22 -10q6 -3 15 -6q6 -2 18 -4q13 -2 20 -2q6 0 16 2q5 0 8 1q9 5 18 9q3 1 9 6q8 6 15 12q4 4 10 12q9 12 17 23q4 5 8 14q5 11 6 15q2 7 5 20q3 12 4 23q2 10 4 26q2 15 2 20q0 6 -1 20t-1 21q-1 11 0 28v20v23q1 18 1 26v14
q-1 14 -1 30v37v9q-2 10 -2 25q0 13 -1 26q-1 15 -1 24v22q0 17 1 26l1 7q1 20 16.5 33t35 11t32.5 -17.5t11 -34.5v-7q-1 -5 -1 -18v-22q0 -7 1 -20q0 -14 1 -27q0 -9 1 -12q1 -10 1 -25v-37q0 -13 1 -25q1 -16 0 -26q0 -5 -1 -20v-22v-23q-1 -12 -1 -17q1 -8 2 -25t1 -24
q0 -10 -3 -30q-2 -19 -4 -32t-6 -29q-3 -15 -5 -23q-3 -10 -11 -29q-9 -20 -20 -34q-8 -10 -16 -21q-12 -16 -23 -26q-8 -7 -20 -17q-15 -11 -28 -17q-8 -4 -15 -7q-14 -8 -36 -11q-18 -3 -32 -3q-13 0 -32 3q-22 3 -37 9q-13 4 -21 8q-8 3 -25 11q-20 10 -32 18l-18 12
q-10 7 -21 15q-15 11 -25 22q-8 10 -14 18q-9 12 -14 25q-4 10 -8 21q-4 12 -8 29q-4 15 -6 31q-2 13 -5 29q-3 17 -3 26q-1 6 -2 19q-3 17 -3 27q0 8 -1 29q-1 22 -1 32t-1 30q0 17 -2 28q-1 13 0 39q1 22 0 31q-1 13 -1 34v25q0 11 2 29q1 13 1 17v8q0 20 14 34t34 14z
" />
    <glyph glyph-name="Uacute" unicode="&#xda;" horiz-adv-x="575" 
d="M259.5 649.5q-18.5 6.5 -27 24.5t-2.5 37l3 7q5 16 19 33q11 14 20 23q7 6 16 14q6 5 8 9l6 8q11 15 31 18.5t36 -8.5t19 -31.5t-9 -35.5l-5 -8q-8 -11 -21 -22l-14 -14q-5 -4 -12 -13q-2 -3 -4 -5l-2 -7q-7 -18 -25 -27t-36.5 -2.5zM105.5 679q19.5 -2 32 -18t9.5 -35
l-1 -7q0 -7 -2 -17q-1 -10 -3 -27q-2 -16 -3 -32.5t-1 -20.5v-19v-36v-18q-1 -9 -1 -17q-1 -5 -1 -18q-1 -12 -1 -27v-105q0 -16 1 -31q0 -13 2 -24q2 -13 3.5 -22.5t3.5 -21.5q1 -9 3 -13q1 -4 5 -14q2 -6 9 -16t17 -19q11 -11 20 -19q9 -7 17 -12q11 -7 21 -13q4 -2 13 -4
q15 -4 28 -6q4 0 7.5 -0.5t5 -0.5h1.5l12 2q9 2 17 3q5 1 11 4q5 1 10 5q8 4 14 9l16 12q7 5 15 12t13 12q3 3 6 8q3 4 4 6q3 5 5 11l6 18q1 4 3 15q2 15 3 23t2 15v15v18q0 11 1 26q1 10 2 19q0 14 2 28q2 11 4 20l1 5q0 9 1 19q0 8 1 14q0 6 1 18q1 10 0 23q-1 18 -1 32
l-2 28q-2 19 -1 32q1 8 1 14v19q1 7 1 12q0 11 1 20l1 6q2 20 17.5 32.5t35 10.5t32 -18t10.5 -35l-1 -7v-9q0 -9 -1 -20v-11q0 -9 -1 -20q-1 -6 0 -18q2 -16 3 -32q0 -14 1 -32q1 -19 0 -32q-1 -12 -1 -20q-1 -7 -2 -16v-10q0 -11 -3 -24q-2 -7 -3 -17q-1 -7 -1 -14
q-1 -12 -2 -26q-1 -10 -1 -17v-18q0 -12 -1 -23q0 -8 -1.5 -17.5t-3.5 -26.5q-3 -21 -8 -34q-3 -9 -6 -16q-3 -10 -7 -19q-5 -11 -14 -23q-8 -11 -17 -20q-7 -8 -17.5 -17t-19.5 -16l-16 -12q-10 -7 -21 -14q-13 -8 -28 -13q-13 -5 -25 -8q-8 -1 -17 -3q-12 -3 -23 -3
q-14 -1 -35 1q-18 3 -37 7q-23 6 -40 16q-11 6 -23 14q-14 9 -27 19q-12 10 -26 23q-16 16 -29 34q-14 20 -20 37q-5 13 -8 22q-2 9 -5 24q-2 11 -3 21q-2 10 -4 24q-3 16 -3 34q-1 18 -1 35v105q0 17 1 32q0 14 1 22q1 4 1 9v17v36v20q0 7 1 27l4 36q2 17 3 27t2 17l1 7
q2 20 18 32t35.5 10z" />
    <glyph glyph-name="Ucircumflex" unicode="&#xdb;" horiz-adv-x="584" 
d="M164 673.5q-14 13.5 -15 33.5t12 34l11 11q11 13 26 26q13 11 24 23q10 9 14 15q20 28 48 30q9 1 16.5 0t14 -4t9.5 -5t9 -7l6 -5q14 -12 25 -20q13 -10 24 -19q11 -10 19 -18l5 -7q13 -14 12 -34t-16 -33t-35 -12t-33 16l-5 6q-4 4 -11 10q-8 7 -18 15q-5 4 -11 9
q-3 -4 -5 -5q-13 -14 -28 -27q-12 -10 -20 -19l-10 -11q-13 -14 -33.5 -15t-34.5 12.5zM449 565q-1 19 -1 27v7q0 20 14 34t34 14t34 -14t14 -34v-7q0 -5 1 -16v-24v-23q-1 -11 -1 -24t0.5 -28.5t1.5 -24.5q1 -8 1 -18v-59q0 -11 -1 -20q-1 -5 0 -17q1 -17 0 -26
q0 -8 -1 -18q-1 -6 -3 -19q-1 -12 -1 -18q0 -10 -2 -31q-2 -23 -5 -41q-4 -20 -12 -41t-17 -36l-16 -24t-17 -21q-7 -9 -18 -20q-13 -13 -28 -24q-14 -9 -25 -16q-13 -8 -24 -12q-10 -4 -19 -7q-10 -3 -29 -5q-18 -2 -31 -2q-14 0 -27 2q-9 2 -22 4q-14 2 -24 4
q-14 3 -36 12q-22 8 -33 15q-10 7 -21 16t-20 18q-11 11 -21 24q-10 15 -19 36q-7 17 -12 31q-7 19 -10 37q-2 14 -2 23q-1 5 -3 21q-2 18 -3 33q-2 15 -2 23t-0.5 14.5t-1.5 18.5q-1 15 -1 22q0 5 -1 25q-1 23 -1 39q1 15 2 22v13q0 12 1 19v14q1 8 3 29q2 18 3.5 30.5
t1.5 18.5q1 4 1 13q0 8 -1 12q-1 9 -1 20v9l-2 8q-3 19 8.5 35.5t31 20t36 -8t19.5 -31.5l1 -8q2 -11 2 -25q0 -6 1 -10q1 -9 1 -22t-1 -21q-1 -7 -2 -21q-1 -13 -4 -34q-2 -15 -2 -20q0 -6 -1 -12v-16q0 -14 -1 -23q0 -5 -1 -17q0 -11 1 -28q1 -22 1 -29q0 -5 1 -18t1 -20
q0 -8 1 -14q0 -7 1 -19q1 -13 4 -30q2 -19 3 -27q0 -5 1 -16q2 -7 5 -16q5 -13 11 -28q5 -11 9 -17q5 -7 9 -12l14 -12t12 -9q4 -2 16 -7q14 -6 19 -7q9 -1 22 -4q14 -2 23 -4h10q7 0 19 1q10 1 14 2l10 4q4 1 11 5q8 5 18 13q8 6 16 13q9 9 14 15q6 6 11 14q7 9 13 19
q4 6 8 19q5 13 7 25q3 13 4 31q2 19 2 25q0 10 2 26q1 14 3 22q0 5 0.5 9.5t-0.5 17.5q-1 19 0 29q1 6 1 12v59q0 6 -1 12q-1 9 -1.5 26.5t-0.5 32.5t1 29v18v13z" />
    <glyph glyph-name="Udieresis" unicode="&#xdc;" horiz-adv-x="593" 
d="M326 761.5q14 13.5 34 13.5t34 -14l3 -3q13 -13 13 -33.5t-13.5 -34t-33.5 -13.5t-34 14l-3 3q-14 13 -14 33.5t14 34zM128 765.5q14 13.5 34 13.5t34 -13l3 -4q14 -13 14 -33.5t-14 -34t-34 -13.5t-34 14l-3 3q-14 14 -14 34t14 33.5zM101 636q20 0 34 -14t14 -34v-16
q0 -18 -2 -40q-2 -21 -4 -33q-1 -13 -2.5 -32t-2.5 -26q0 -7 -1 -20q0 -16 -1 -24q-1 -5 -1.5 -18t-0.5 -26v-29v-15q1 -7 2 -19t1 -24q1 -10 2 -16.5t5 -21.5q3 -12 8 -23q6 -14 12 -25t12 -21q5 -9 11 -16q7 -8 12 -13.5t19 -15.5q12 -10 18 -14q7 -4 18 -9q13 -6 22 -10
q7 -3 13 -4q5 -1 12 -1q8 -1 17 0l20 4q8 2 16 6q7 4 13 8q7 6 18 16q8 8 12 14l14 21q7 11 12 22q4 9 7 23q4 19 7 33q3 11 5 29q2 21 5 36q2 11 2 16v15q0 14 1 32q1 17 2 33q1 18 2 37q1 18 2 35t1 34q0 19 0.5 34t1.5 28v18v27q0 19 14.5 33.5t34 14.5t33.5 -14.5
t14 -33.5v-27q0 -10 -1 -24q0 -11 -1 -25v-32q0 -18 -1 -36.5t-2 -38.5q-2 -18 -2 -35q-1 -17 -2 -33q-1 -15 -1 -25v-23q-1 -9 -4 -26q-2 -13 -4 -32q-2 -22 -6 -38q-3 -13 -7 -32q-5 -25 -14 -44q-8 -15 -17 -31q-10 -15 -17 -26q-10 -14 -25 -28q-13 -13 -25 -22
q-13 -11 -30 -19t-34 -13q-16 -4 -32 -6t-32 -1q-16 0 -30 3q-14 4 -28 9q-11 5 -26 12q-17 7 -27 14q-12 7 -30 21q-17 14 -26 23t-18 21q-10 12 -19 26q-8 13 -15 27q-7 13 -14 29q-9 18 -14 39q-5 20 -7 31q-2 12 -2 26l-2 22t-1 16q-1 9 -1 25v29q0 16 0.5 31t1.5 23
q1 5 1 18q1 15 2 23q0 8 2 27.5t3 32.5q1 12 3 33q2 18 2 31v16q0 20 14 34t34 14z" />
    <glyph glyph-name="Yacute" unicode="&#xdd;" horiz-adv-x="582" 
d="M221 651.5q-13 14.5 -12 34.5t15 34l11 9q12 11 21 19t26 21q13 11 22 22l12 13q13 15 33 16.5t35 -11.5t16 -33t-12 -35l-12 -13q-14 -17 -33 -33q-16 -13 -25 -21q-8 -6 -18 -15l-11 -10q-15 -13 -35 -12.5t-33 15zM384 333q-10 -15 -19 -30q-5 -9 -9 -22
q-5 -15 -7 -28q-3 -16 -3 -21q-1 -3 -1 -14v-58v-24q0 -10 -2 -29q-2 -17 -3 -24t-4 -18q-1 -9 -2 -17l-2 -7q-3 -20 -19 -31.5t-35.5 -9t-31 19t-8.5 35.5l1 8q1 8 3 20q2 9 3 15t3 21q1 13 1 17v24v58q0 16 1 25q1 7 3 22q-4 3 -7 8l-6 8q-6 9 -11 17t-10.5 18.5
t-9.5 17.5q-3 6 -15 23q-12 19 -19 30q-7 9 -22 29q-17 21 -25 32q-7 10 -20 30q-13 19 -20 29q-7 11 -19 30q-10 18 -17 31l-8 12q-9 17 -4 36.5t22 29.5t36.5 4.5t28.5 -22.5l8 -12q7 -12 17 -30q10 -17 16 -25q6 -10 19 -29t20 -28q6 -9 22 -29q16 -22 25 -34
q8 -12 21 -31q13 -21 18 -30q2 -3 3 -6l6 10q8 11 11 16.5t6 12.5q5 9 16 27q11 17 19 28q5 7 9 15q4 9 11 25q8 19 12 28q4 8 13 27q10 21 17 32q6 9 17 25q12 17 19 26l7 8q12 16 32 18t35 -10t17.5 -32t-9.5 -35l-6 -8q-6 -7 -16 -21q-10 -15 -15 -23q-4 -6 -11 -22
q-10 -18 -13 -26q-4 -7 -10 -23q-8 -20 -15 -33q-7 -15 -16 -27q-6 -8 -16 -23q-8 -14 -11 -20q-5 -8 -9 -16q-4 -6 -12 -20z" />
    <glyph glyph-name="Thorn" unicode="&#xde;" horiz-adv-x="493" 
d="M298 520q18 -5 23 -6q9 -1 28 -8q19 -6 31 -12q16 -8 29 -19q15 -13 26 -32t16 -44q4 -21 4 -37q0 -14 -2 -31q-1 -14 -3 -22q-1 -9 -2 -17q-2 -13 -9 -30q-6 -14 -15 -30q-11 -18 -22 -30.5t-25 -22.5q-12 -9 -28 -19q-17 -10 -29 -15q-11 -4 -31 -8t-35 -5
q-14 -1 -40 0q-28 2 -43 6q-8 2 -15 2q-8 1 -17 3v-8v-26q0 -11 -1 -27q-2 -13 -2 -22q-1 -5 -2 -12v-8q-2 -19 -17.5 -32t-35 -11t-32.5 17t-11 35l1 8q1 8 1 15q1 6 2 19q1 11 1 19v25q0 19 1 30q1 10 2 18q0 7 1 22v23v21v23q0 8 1 18q1 11 2.5 25.5t1.5 21.5q0 10 -1 19
q0 11 2 33q1 18 1 26v71v25q-1 13 -2 19q-2 13 -2 24q0 4 -1 16q-1 15 -2 23q-1 9 -2 24l-1 15q-2 19 11 34.5t32.5 17t35 -11.5t16.5 -33l1 -14q2 -14 2 -22l3 -24q1 -18 1 -27q0 -2 1 -7v-3h2q17 -1 39 -4q19 -3 26 -4q8 -1 15 -2t22 -3q16 -2 25 -4q8 -2 22 -5zM143 241
h1l10 -3q5 -2 11 -2q14 -1 28 -5q7 -1 27 -3q21 -1 29 -1q6 1 19.5 4t18.5 4q3 2 13 7q12 8 20 14q6 5 10.5 10t10.5 14q6 11 10 19q2 5 2 8l2 14l3 21q1 11 1 20q0 7 -2 19q-2 9 -5 14t-5 7q-4 3 -9 6q-7 3 -20 7q-12 4 -16 5q-8 2 -23 6q-15 3 -22 4.5t-20 3.5l-21 3
l-14 2q-9 1 -28 4q-14 2 -24 2v-30q0 -12 -1 -33q-2 -18 -2 -25q1 -10 1 -20q0 -12 -2 -30q-1 -16 -2 -24q-1 -7 -1 -11v-23v-8z" />
    <glyph glyph-name="germandbls" unicode="&#xdf;" horiz-adv-x="519" 
d="M139 115q3 11 8 19q11 16 31 19t36 -8l26 -18q16 -12 23 -15q12 -3 33 -8q14 -3 20 -4q5 0 15 2q8 2 13 5q7 4 13 9q8 8 15 16q4 6 6 8q3 7 6 17q-1 4 -4 9q-2 3 -5 6q-7 5 -15 11q-10 7 -21 13q-8 6 -19 12q-15 8 -33 21q-17 13 -27 21q-17 14 -26 32q-7 14 -11 26
q-4 13 -4 27q-1 12 0 25q1 19 7 39t17 38q10 17 19 28q5 6 11 14l14 21q4 7 6 11q2 7 5 16q2 11 4 23q1 8 0 14v1q-4 7 -10 16q-6 8 -14 17q-5 6 -8 8q-7 4 -17 8q-7 3 -13 4q-2 0 -5 -1q-9 -2 -12 -4q-7 -5 -14 -9q-5 -4 -18 -15q-11 -11 -15 -16t-7 -10q-3 -7 -9 -20
q-3 -9 -4 -14q-2 -10 -4 -22.5t-3 -18.5l-3 -21q-2 -12 -4 -27q-2 -16 -3 -27q-2 -9 -3 -20q-1 -10 0 -14q0 -10 -1 -26q-1 -13 -1 -22v-22q1 -11 1 -17q1 -10 0 -28q-1 -15 -1 -26v-28v-28q0 -8 2 -22q2 -18 2 -26q1 -7 1 -16v-3zM141 89q2 -26 3 -43l1 -15
q1 -20 -12.5 -35t-33.5 -15.5t-34.5 13t-15.5 33.5l-1 15q0 15 -2 38q-1 10 -2 17q-1 12 -1 18q0 7 -1 13q0 5 -2 21q-2 19 -2 33v28v28q0 13 1 30v17q0 8 -1 22v24q0 13 1 28q1 12 1 17q-1 11 1 26q1 14 3 25q1 9 3 24q2 17 4 32q3 13 3 19q1 6 3 19t4 24q3 15 11 35
q6 16 12 27q6 13 15.5 25t27.5 28t28 23q8 6 16 11q13 8 35 15q28 8 50 4q16 -3 34 -10q17 -7 30 -15q16 -10 30 -27q12 -13 21 -26q8 -11 13 -20q11 -18 14 -41q2 -18 -1 -39l-6 -30q-3 -14 -8 -26q-5 -15 -16 -32q-8 -13 -16 -23q-8 -12 -16 -21q-3 -4 -9 -14
q-5 -9 -8 -19q-3 -8 -3 -15q-1 -10 -1 -16q0 -2 1 -3q1 -3 4 -9l3 -3q8 -7 22 -17q13 -10 23 -15q13 -8 25 -15q10 -7 21 -14q13 -9 25 -19q14 -13 25 -29q8 -14 12 -27q5 -14 6 -28q1 -18 -7 -38q-5 -13 -9 -22q-7 -14 -20 -29q-10 -13 -22 -24q-14 -13 -31 -24
q-20 -11 -44 -15q-20 -4 -32 -4q-13 0 -42 7q-24 5 -37 9q-20 5 -53 28l-25 19q-12 8 -18 22z" />
    <glyph glyph-name="agrave" unicode="&#xe0;" 
d="M152 716q17 10 36.5 5t29.5 -22l6 -11l12 -16t12 -14q7 -7 21 -19l15 -13q15 -13 16 -33t-12 -34.5t-33 -16t-35 11.5l-14 13q-16 14 -24 22q-11 10 -21 23t-19 27l-7 11q-10 17 -5 36.5t22 29.5zM393 519q20 -1 33 -16.5t11 -35.5l-1 -11q-1 -12 -3 -24q-1 -8 -1 -18
q0 -12 1 -42q2 -30 3 -46q1 -17 1 -32v-45q0 -28 1 -45q0 -17 2 -48.5t3 -42.5q1 -14 1 -35v-25q0 -1 1 -2l2 -8q5 -18 -5 -35.5t-29 -23t-36.5 4.5t-22.5 29l-2 7q-3 10 -3 19q-8 -5 -16 -9q-17 -9 -50 -17q-31 -7 -47 -7q-13 -1 -32 0q-24 1 -42 7q-21 7 -40 23t-35 46
q-12 22 -17 35q-6 13 -13 34q-8 23 -11 36t-5 26t-3 35v33q1 12 3 25q2 10 5 26q4 22 10 34q4 10 12 24q11 18 26 34q16 15 38 26q18 10 28 14t21 6q10 3 30 7q24 5 37 5q7 0 14 1q15 2 39 -1q20 -3 30 -6q4 -1 11 -2q3 18 18 30t33 10zM342 178v24q-1 18 -1 47v43t-1 28
q-1 16 -3 47v15l-10 2q-13 2 -22 5q-4 1 -17 3q-4 1 -7 1h-4.5h-2.5l-22 -2q-5 0 -22 -3q-19 -4 -27 -6q-5 -1 -9 -2.5t-17 -8.5q-10 -5 -16 -11q-5 -6 -9 -12q-6 -10 -9 -16q-1 -4 -3 -14q-3 -15 -5 -24q-1 -6 -1 -11v-26q1 -18 2 -26q1 -9 3 -17t8 -26q7 -19 11 -28
t14 -28q7 -13 12 -17.5t8 -5.5q5 -2 16 -2q15 -1 26 0q6 0 27 5q20 4 26 7q9 5 22 15q8 6 17 19l14 21z" />
    <glyph glyph-name="aacute" unicode="&#xe1;" horiz-adv-x="481" 
d="M221 539q-16 11 -20 30.5t7 36.5l12 16q12 18 22 30q9 10 24 28q14 16 20 25l8 11q10 17 30 20.5t36 -7.5t20 -30.5t-7 -35.5l-7 -12q-10 -13 -27 -33q-16 -19 -24 -28q-7 -8 -16 -22l-11 -17q-11 -16 -31 -19.5t-36 7.5zM404 513q19 -4 30 -20.5t7 -35.5l-2 -12
q-2 -11 -4 -20q-1 -5 -1 -11v-33v-40q-1 -14 -1 -25v-34q0 -25 -1 -39q-1 -8 -2 -28v-32q0 -7 1 -16q1 -11 2 -33q1 -19 2 -29q0 -8 1 -17q0 -7 1.5 -20.5t2.5 -20.5l2 -8q4 -19 -7 -36t-30 -21t-36 7t-21 30l-2 9q-2 11 -4 29q-1 11 -2 18q-8 -6 -21 -13q-14 -7 -26 -12
q-11 -5 -24 -8q-13 -4 -25 -5q-8 -2 -16 -3q-13 -2 -25 -2q-11 0 -23 1q-15 1 -28 4q-12 3 -25 8q-16 6 -29 16q-15 11 -26 28q-11 16 -16 33q-3 11 -6 24t-5 20q-2 9 -3 20q-2 9 -2 18q-1 10 -1 19q0 6 -1 18q-1 17 1 37l3 27q1 6 4 21q3 21 9 37q5 12 10 21t10 17
q6 10 13 19q8 9 20 20q11 10 25 20t22 15q6 4 22 12q20 11 37 15q14 3 23 4t22 1q11 0 29 -1q17 -2 30 -4.5t23 -5.5q6 -2 12 -5q8 13 22 19t29 3zM334 204v12q1 24 2 37q1 9 1 29v35.5t1 27.5v36v12l-10 4l-8 4q-5 2 -9.5 3.5t-12 3t-19.5 2.5q-13 1 -20 1t-10.5 -0.5
t-12.5 -2.5q-5 -1 -14 -6q-13 -7 -19 -10q-4 -3 -14 -10q-10 -6 -17 -13q-6 -5 -9 -9q-3 -5 -7 -10q-3 -6 -7 -12q-2 -5 -5 -12q-2 -4 -3 -13q-3 -17 -4 -24q-1 -5 -2 -20q-1 -13 -1 -23q1 -14 1 -23v-11l2 -14q0 -6 1 -10q2 -6 5 -18t6 -22q1 -3 3 -6t3 -4q3 -2 7 -4
q7 -2 12 -4q5 -1 12 -1q9 -1 17 -1q4 0 9 1q9 1 18 3q6 1 13.5 3t14.5 4q6 3 17 8l9 6q6 5 13 13q3 3 5 6l6 10q9 16 26 22z" />
    <glyph glyph-name="acircumflex" unicode="&#xe2;" horiz-adv-x="494" 
d="M122.5 534q-14.5 13 -15 33.5t13.5 34.5l8 8q10 12 20 19q5 4 10 9q10 8 21 15q7 4 18 11q9 6 16 13l7 6q9 12 19 21q14 13 35.5 15t35.5 -6q16 -9 33 -27q12 -12 22 -24q9 -11 22 -24q12 -14 19 -21l7 -7q14 -14 14 -34t-13.5 -34t-34 -14t-33.5 14l-8 8q-9 8 -22 23
q-14 15 -23 26q-5 5 -10 11q-4 -3 -7 -6q-12 -10 -26 -20q-14 -9 -22 -14l-6 -4q-8 -7 -16 -13l-8 -8l-8 -9q-14 -14 -34 -14.5t-34.5 12.5zM403 483q19 -2 32 -18t11 -35l-1 -7q0 -5 -1 -21q-1 -17 -1 -26v-33q0 -22 1 -30q0 -9 1 -23q1 -15 1 -43q0 -29 -1 -42v-31v-35
q1 -13 2 -29q2 -19 4 -50q2 -29 3 -37q0 -8 2 -17l1 -9q2 -19 -10.5 -35t-32 -18t-35.5 10t-18 32l-1 9q-1 8 -2 18q-1 11 -3 42l-14 -12q-14 -10 -38 -21q-19 -10 -28 -13q-13 -6 -27.5 -8.5t-36 -0.5t-34.5 7q-8 3 -17 7q-13 6 -30 20q-14 11 -25 21q-14 14 -25 33
q-8 15 -12 24q-5 10 -12 28q-7 19 -10 31q-3 11 -5 22q-2 14 -3 28q0 13 1 33q1 22 4 35q2 11 7 27q6 19 10 29q4 9 9 18q6 10 19 25q12 14 26 27q12 10 27 22q17 13 27 18q8 5 17 9q11 5 32 11q19 5 32 7t26 2h31q22 0 37 -1q16 -2 32 -6q13 7 28 6zM349 204v6q1 11 1 37
q0 25 -1 37q-1 14 -1 24q-1 11 -1 35v33v9l-14 2q-10 1 -27 1h-29q-7 0 -14.5 -1t-20.5 -5q-12 -3 -15 -5q-7 -3 -13 -6q-4 -2 -15 -11q-13 -9 -22 -18q-9 -7 -16 -16q-7 -8 -8 -11q-3 -5 -5 -10q-2 -4 -6 -16q-4 -13 -5 -21q-2 -5 -2 -19q-1 -16 -1 -25q0 -6 1 -12
q2 -8 4 -17q2 -8 7.5 -22t8 -20t9.5 -18q4 -7 8 -11q8 -8 19 -16q6 -5 9 -7l10 -4q4 -1 11 -2h11q2 0 4 1q7 4 26 13q15 6 21 11q7 5 13 11t19 28l18 29q6 10 16 16z" />
    <glyph glyph-name="atilde" unicode="&#xe3;" horiz-adv-x="530" 
d="M352 547q-18 3 -32 11q-10 5 -18 10q-12 7 -23 17q-8 6 -18 14q-7 5 -11 7q-6 2 -13 4q-5 -1 -7 -3q-5 -3 -8 -6q-5 -4 -14 -12q-3 -3 -5 -6q-1 -6 -1 -10l-1 -7q-2 -19 -17.5 -31.5t-35 -10.5t-32 18t-10.5 35v6q1 4 1 8q0 20 12 40q8 13 23 27q11 11 18 17q9 7 20 14
q13 8 30 13q24 7 48 1q16 -3 29 -9q15 -6 31 -18q13 -10 23 -18q5 -5 10 -7q6 -4 13 -8l1 1q3 4 4 6q1 4 1 6l1 7q3 20 19 32t35 9.5t31.5 -18t10.5 -35.5l-1 -7q-2 -12 -6 -25q-6 -16 -17 -31q-13 -18 -29 -27q-9 -5 -21 -9q-19 -7 -41 -5zM472 491q15 -11 19 -29.5
t-5 -34.5q-1 -5 -3 -10t-6 -10q-1 -7 -2 -16q-4 -19 -4 -28q0 -13 -1 -25v-29v-66q0 -22 -1 -32q-1 -7 -1 -14v-22q-1 -12 -1 -20q0 -9 -2 -29q-2 -19 -4 -27q-1 -9 -3 -25q-2 -13 -3 -21q0 -9 -2 -31q-1 -22 -2 -31t-1 -17l-1 -8q-2 -19 -17 -32t-34.5 -11.5t-32.5 17
t-12 35.5l1 7q1 7 1 16q1 8 2 29q-9 -7 -31 -17q-19 -8 -27 -11q-13 -7 -31 -11q-17 -3 -28 -4q-10 -1 -31 1q-22 2 -33 5q-14 4 -31 14q-14 10 -28 23q-12 11 -22 21q-8 9 -14 16q-10 11 -16 25q-4 8 -8 17q-6 13 -10 29q-3 13 -4 26q-1 10 -2 16q-2 8 -2 19q-1 12 -1 25
q1 12 2.5 23.5t4.5 24.5q3 11 5 19q2 6 6 20l6 21q4 9 25 51q23 46 43 67q18 19 41 34q22 14 36 19q13 5 40 11q28 7 46 8q16 1 24 1t22 -1q19 -2 31 -5q7 -2 15 -5q7 -3 19 -7q11 -4 21 -7q25 11 47 -4zM371 166q1 8 1 12v19q0 10 1 21q1 7 1 25v66v34q1 11 1 23q1 15 5 41
v2l-6 2q-12 4 -20 7q-7 2 -12 4q-3 0 -9 1q-12 1 -16 1q-5 0 -18 -1q-11 -1 -31 -5q-20 -5 -27 -7q-5 -2 -18 -11q-13 -8 -24 -20q-10 -10 -26 -43q-16 -31 -20 -39q-2 -6 -5 -18q-4 -13 -6 -19t-4 -14q-1 -8 -2 -15.5t-2 -15.5v-13q1 -7 2 -12q1 -7 2 -18q1 -9 3 -18
q1 -5 3 -9q4 -8 7 -15q1 -3 3 -4q4 -6 12 -14q7 -8 16 -16q8 -7 14 -11q4 -3 6 -4q5 -1 15 -1q12 -1 17 -1q4 0 13 2q8 2 11 4q9 4 29 12q11 5 16 8q6 4 13 10q4 4 14 16l14 17q10 14 27 17z" />
    <glyph glyph-name="adieresis" unicode="&#xe4;" horiz-adv-x="508" 
d="M301 649q14 14 34 14t34 -14l3 -3q14 -14 14 -34t-14 -34t-34 -14t-34 14l-3 3q-14 14 -14 34t14 34zM143 642q14 14 34 14t34 -14l3 -3q14 -14 14 -34t-14 -34t-34 -14t-34 14l-3 3q-14 14 -14 34t14 34zM406 515q19 -1 32.5 -16t12.5 -34l-1 -12v-31.5v-32.5
q1 -11 3 -23q2 -16 3 -42q2 -23 2.5 -37t0.5 -39v-65q0 -11 1 -33t3 -42q3 -22 3 -33q1 -11 2 -26q0 -13 1 -21l2 -9q2 -19 -10 -35t-31.5 -18.5t-35.5 9.5t-19 32l-1 9q-1 9 -2 20q-1 -2 -5 -4q-35 -32 -58 -40q-16 -6 -29 -9q-17 -4 -37 -3q-19 0 -32 3q-12 2 -24 7
q-14 5 -33 17q-14 9 -23 15q-10 6 -21 15q-12 9 -23 20q-14 15 -23 34q-6 14 -10 25q-2 8 -5 18q-3 11 -5 27q-2 13 -4 23q-2 14 -2 25q0 8 1 26q1 20 3 35q3 16 8 33q4 14 7 22q3 9 6 17q4 11 19 36q14 25 27 40q11 15 23 27q14 14 28 25q15 11 38 22q21 9 31 12l20 4
q10 1 27 2h23h16q12 -1 33 -6l18 -6q16 19 40 17zM363 184v64q0 23 -1 34q-1 20 -2 37q-1 22 -2 33q-3 16 -4 31v18q-3 1 -5 1l-8 3q-4 2 -18 6l-12 3h-12h-21q-11 -1 -15 -1q-3 -1 -7 -2q-5 -1 -19 -7q-13 -6 -20 -11q-8 -6 -15 -14q-10 -10 -19 -21q-8 -10 -18 -28
q-10 -16 -12 -22q-3 -6 -5 -13t-6 -20q-3 -10 -5 -20q-1 -10 -2 -25t-1 -21q0 -3 1 -10q2 -11 4 -24q1 -10 3 -17q2 -8 4 -14q2 -5 5 -13q2 -4 5 -7q6 -6 13 -11q8 -6 14 -10q8 -5 23 -15q10 -7 15 -9q5 -1 9 -2t15 -1q9 -1 13 1q8 1 18 5q10 6 36 29q27 24 34 34q5 11 7 16
l3 9q2 8 7 14z" />
    <glyph glyph-name="aring" unicode="&#xe5;" horiz-adv-x="533" 
d="M269 642q-4 -2 -7 -4l-4 -2q-3 -3 -7 -8q-3 -2 -3 -4q-2 -4 -3 -9q-1 -4 -1 -5v-8q1 -1 2 -1h1h15h2l8 4q2 8 3 11q0 1 -1 2q0 7 -1 13q-1 3 -3 10zM191 705q-1 12 3 22q6 19 24.5 27.5t36.5 1.5l6 -2q7 -2 18 -6q16 -7 39 -23q31 -21 41 -48q6 -17 8 -30q2 -10 3 -20
q1 -14 -1 -27q-2 -10 -5 -22q-6 -18 -16 -32q-11 -14 -26 -23q-9 -5 -19 -9q-3 -2 -7 -3q6 0 15 -1q17 -1 32 -3q17 -3 35.5 -8.5t28.5 -10.5q11 5 23 4q20 -2 33 -17t11 -35l-1 -7q-1 -7 -1 -17q-1 -8 0 -30q0 -24 1 -39q1 -16 2 -30t5 -44q4 -32 5 -48q0 -11 2 -21
q2 -14 3 -36q2 -21 2 -35v-58v-28q1 -8 1 -21q1 -11 2 -17v-7q2 -19 -10.5 -34.5t-32 -17.5t-35 10.5t-17.5 32.5l-1 6q-1 8 -1 21q-1 7 -1 12q-13 -10 -31 -21q-29 -19 -45 -23q-13 -4 -25 -6q-12 -1 -31 -1q-21 0 -37 3q-17 3 -40 12q-24 9 -42 22q-14 10 -25 19
q-13 10 -27 24q-18 19 -26 38q-6 13 -8 19q-3 6 -7 16q-6 14 -9 36q-3 18 -5 26q-1 10 -1 20q0 9 1 18q0 8 2 17q1 9 2 16l2 14q1 10 2 18q2 9 7 28q5 17 7 24q3 10 6 18q4 10 13 25q8 13 19 28q13 17 34 33q18 15 32 23q13 7 29 14q14 5 27 9q8 3 14 5q-12 1 -23 6
q-13 5 -27 14q-18 13 -27 30q-7 15 -9 33q-1 11 -1 21q0 13 3 27q3 13 8 25q7 15 19 29q7 8 13 14zM395 160q0 1 -1 2q-1 17 -2 27q-3 15 -3 32q-1 12 -4 41q-4 32 -5 49q-2 18 -2 30q-1 16 -2 42v14l-6 2l-6 3q-4 2 -13 5q-12 3 -21 4q-12 2 -27 3q-4 1 -8 1h-6h-2
q-7 0 -14 -1q-5 0 -11 -1q-3 0 -10 -3q-12 -3 -23 -8q-10 -4 -17 -8t-20 -14q-11 -9 -16 -16q-8 -10 -14 -19q-4 -8 -5 -11q-2 -4 -3 -9q-2 -7 -7 -24q-5 -15 -5 -20q-1 -5 -2 -12q-1 -8 -2 -15l-2 -14l-2 -14v-10q0 -3 1 -7q0 -6 3 -22q2 -12 4 -17q4 -10 7 -17q2 -5 7 -16
q1 -3 7 -9q10 -10 18 -16q9 -7 21 -16q8 -6 21 -11q15 -6 22 -7q8 -1 20 -1h18l10 2q7 3 21 13q21 13 31 21.5t21 20.5l14 15q6 7 15 11z" />
    <glyph glyph-name="ae" unicode="&#xe6;" horiz-adv-x="792" 
d="M455 302q3 -3 6 -5q14 -14 27 -24q11 -7 16 -10q5 -2 11 -5q2 0 8 -1q6 -2 15 -2t15 1q5 1 18 4q13 4 17 5q6 3 18 10q8 5 17 14q13 12 20 20q2 2 4 7t3 8q0 6 1 11q0 6 1 15q0 6 -1 9q0 3 -4 12q-1 5 -3 7q-7 9 -15 17q-2 3 -10 7q-13 7 -17 8q-2 1 -4 1q-7 1 -19 2
q-8 1 -18 0q-13 -2 -23 -3l-16 -4q-4 -2 -10 -7q-10 -8 -15 -16q-8 -9 -12 -15t-8 -13q-4 -6 -8 -16q-5 -9 -6 -14q-2 -6 -8 -23zM43 358q-9 18 -2.5 37t23.5 27l11 6q5 2 7 4q9 8 17 14q8 7 22 17q14 11 23 17q12 8 31 15q15 6 27 10q17 5 39.5 6t43.5 -3q18 -4 28 -8
q8 -3 14 -6q10 -4 23 -11.5t28 -19.5q16 -13 26 -27l6 -8q5 7 12 16q12 14 28 28q21 18 41 24q15 6 31 8q13 3 29 4q19 2 36 1q15 -1 24 -3q13 -1 24 -6q10 -3 29 -14q25 -13 39 -29q7 -8 14 -17q13 -15 21 -36q6 -17 8 -29q2 -11 2 -27q-1 -12 -1 -20q-1 -9 -2 -16
q-1 -13 -9 -32q-9 -21 -23 -36q-8 -10 -23 -24q-18 -17 -36 -28q-15 -9 -25 -14q-12 -5 -33 -11q-21 -5 -32 -6q-11 -2 -26 -2q-16 0 -32 3t-26 7q-7 3 -15 6q-3 2 -8 4v-15q0 -1 -1 -2q1 -3 1 -5l5 -20q2 -9 3 -12q2 -4 8 -15q8 -14 12 -20q1 -3 5 -8q2 -2 6 -5t7 -4
q7 -2 13 -2q8 -1 23 -2q14 -1 25 -1q5 0 8 1q9 2 26 5q13 3 32 10q12 4 16 7q10 9 19 16l9 9q15 13 35 12t33 -16t12 -35t-16 -33l-10 -9q-9 -8 -19 -17q-17 -14 -47 -25q-26 -9 -46 -13q-15 -3 -21 -4q-13 -4 -31 -4q-13 0 -30 1t-28 2q-15 2 -30 6q-19 6 -35 17t-26 24
q-5 7 -9 13h-2q-6 0 -12 2q-7 -7 -16 -13q-11 -8 -28 -19q-19 -10 -28 -15l-14 -6q-10 -4 -25 -8q-18 -6 -29 -7q-10 -2 -25 -2q-16 0 -30 3q-16 2 -37 11q-21 8 -41 24q-17 12 -28 23q-15 14 -24.5 30t-13.5 31q-3 12 -3.5 24t0.5 23q1 14 7 31q5 14 12 29q8 16 15 26
q7 9 18 21q12 13 31 26q17 12 29 19q14 9 29 15t32 9q15 3 30.5 3.5t29.5 0.5q12 -1 19 -2q8 0 17 -1q11 -2 23 -5l4 -2q2 6 5 11l-2 10q-1 7 -6 19q-4 14 -8 21q-3 6 -8 12q-2 4 -10 10q-9 7 -16 11t-10 6q-6 2 -12 5q-3 1 -14 3q-8 2 -19 1.5t-16 -2.5l-21 -7
q-8 -3 -11 -6q-7 -4 -19 -13q-13 -10 -20 -15q-6 -5 -12 -11q-12 -11 -29 -19l-11 -6q-17 -8 -36 -2t-28 24zM353 203q-6 2 -16 5q-15 6 -22 8q-5 1 -9 1q-6 1 -11 1.5t-17 1.5q-9 0 -19 -0.5t-19 -1.5q-8 -2 -14 -4q-7 -3 -14 -7l-24 -16q-11 -8 -17 -14q-6 -7 -9 -12
q-3 -3 -7 -11q-5 -10 -8 -19q-1 -5 -2 -8v-7.5t1 -7.5q1 -2 3 -5q2 -4 7 -8q8 -8 22 -18q9 -8 19 -12t16 -5t13 -1q9 0 13 1q4 0 13 3q11 4 16 6l14 6q4 1 17 9t20 13t13 10q5 4 12 11l9 9l5 5q0 9 1 17q0 2 1 5q-1 3 -2 7q-2 17 -3 24q-1 5 -2 14z" />
    <glyph glyph-name="ccedilla" unicode="&#xe7;" horiz-adv-x="496" 
d="M411.5 215.5q19.5 -2.5 32 -18.5t9.5 -35l-2 -16q-2 -17 -4 -26l-4 -18q-3 -8 -7 -18t-13 -29q-11 -24 -26 -40q-14 -14 -32 -25q-7 -5 -13 -8q10 -11 18 -25q10 -19 14 -32q4 -18 0 -39q-3 -16 -17 -40q-14 -27 -27.5 -38.5t-38.5 -19.5q-21 -7 -34 -9q-16 -2 -40 3
l-15 4q-19 4 -30 21t-6.5 36t21 29.5t36.5 6.5l15 -3q4 -1 7 -2q5 2 15 5q4 1 7 3q3 4 6 9q4 8 6 13q-1 3 -3 7q-4 6 -9 10q-4 4 -8 5l-14 3q-19 5 -29 23q-9 1 -17 2q-16 2 -34 10q-17 8 -34 19q-19 14 -35 36q-13 19 -23 37q-11 19 -16 35l-6 18q-5 12 -9 22q-4 13 -7 29
q-2 13 -5 36q-2 24 -2 36v24q1 11 3 32q2 22 4 36q3 15 7 27q3 7 5 14q3 12 13 33q11 23 21 35q8 9 26 25t33 27q17 12 30 17q7 3 15 6q12 4 33 7q23 4 37 2q11 -2 32 -7q17 -5 27 -7q13 -4 26 -11q12 -6 29 -17q20 -13 34.5 -29.5t23.5 -31.5q8 -15 14 -33l5 -15
q6 -18 -3 -36t-27.5 -24.5t-36.5 2.5t-24 28l-5 14q-4 11 -7 18q-3 5 -10 12.5t-17 14.5q-13 8 -20 12q-5 2 -8 3q-9 3 -25 7q-13 3 -19 4q-4 0 -12 -1q-11 -2 -15 -3q-7 -2 -13 -5q-3 -1 -9 -6q-10 -7 -24 -19q-12 -11 -16 -16q-3 -4 -8 -15q-7 -13 -8 -18q-3 -10 -6 -19
q-2 -5 -3 -12q-2 -9 -4 -27q-1 -19 -2 -29v-18q0 -8 2 -27t3 -29q2 -8 4 -14q3 -8 7 -18q5 -12 9 -25q2 -7 8 -19q7 -12 17 -26q7 -9 13 -13q8 -7 16 -10q6 -3 9 -3q4 -1 9 -1q8 1 13 2q6 0 21.5 3.5t23 6l13.5 4.5q4 2 12 7t13 10t10 16q7 15 9.5 21.5t4.5 12.5l2 8
q1 5 3 19l2 16q2 20 18 32t35.5 9.5z" />
    <glyph glyph-name="egrave" unicode="&#xe8;" horiz-adv-x="496" 
d="M123 726.5q15 13.5 35 12.5t33 -16l5 -6l18 -18l21 -21q7 -8 21 -22l12 -13q14 -14 13.5 -34.5t-15 -33.5t-34.5 -12.5t-33 14.5l-13 13q-13 14 -19 20l-21 21q-14 14 -21 22l-5 6q-14 14 -13 34t16 33.5zM144 338q7 -6 10 -7q8 -5 18 -9q11 -5 31 -14q20 -10 29 -13
q6 -3 11 -4t16 -2q14 0 19 1q8 2 22 7q9 3 15 6q4 4 11 13q10 11 13 16q3 7 5 13q1 3 3 10q1 4 1 7l-2 8t-7 17q-6 11 -9 15t-11 12q-6 6 -13 11q-6 3 -9 4q-5 1 -12 2q-7 0 -24 -1q-14 0 -21 -2q-10 -3 -27 -9q-8 -4 -13 -6q-6 -6 -13 -11q-3 -2 -13 -13t-13 -16
q-4 -7 -9 -15q-3 -5 -7 -18q-1 -1 -1 -2zM134 234q0 -10 1 -27q2 -21 3 -29t3 -17q2 -10 3 -18l6 -18q2 -7 6 -12q5 -7 8 -9l14 -12q5 -4 14 -9.5t20 -10.5q9 -4 22 -5q14 -2 28 -1q13 1 30 8q21 8 30 14q12 7 25 14q10 6 21 15l14 10q16 11 36 8.5t31.5 -18.5t8.5 -35.5
t-18 -31.5l-14 -10q-16 -12 -31 -21q-12 -7 -25 -14q-15 -9 -42 -20q-30 -12 -57 -14q-25 -3 -50 1q-25 3 -45 11q-19 8 -34.5 17.5t-26.5 18.5q-7 6 -13 12q-11 8 -22 23q-14 18 -21 40q-6 17 -8 28q-2 10 -5 21q-2 11 -3 22q-2 11 -3 36q-2 25 -2 37v21q0 13 2 38t4 38
q3 15 10 36q7 22 15 35q6 10 11 19q8 11 23 28t25 25q6 4 12 9q12 11 39 21q21 9 35 12q17 5 42 6q24 1 38 0q13 -1 24 -4q15 -3 35 -14q19 -10 34 -26q13 -13 21 -23t17 -31q10 -19 13.5 -31.5t4.5 -24.5q2 -15 -2 -35q-3 -18 -8 -30l-8 -16q-6 -14 -25 -36
q-20 -25 -34 -34q-12 -7 -34 -15q-20 -7 -34 -10q-17 -3 -42 -3q-24 1 -39 5q-12 4 -23 9q-9 4 -31 13q-18 9 -29 14z" />
    <glyph glyph-name="eacute" unicode="&#xe9;" horiz-adv-x="487" 
d="M182 545q-9 17 -3.5 36t22.5 29l7 4l15 9q12 8 26 16q13 8 31 21q10 7 15 11l5 7q12 16 32 18.5t35.5 -9.5t18 -31.5t-9.5 -35.5l-6 -8q-10 -14 -36 -32q-20 -13 -34 -22q-13 -8 -24 -15q-13 -9 -22 -14l-7 -3q-17 -10 -36.5 -4t-28.5 23zM148 319l7 -6q4 -4 12 -9
q7 -3 10 -5q7 -1 15 -3q10 -2 26 -7q9 -2 13 -2q7 -1 24 -2q13 -1 20 -1q4 1 13 4q10 3 14 5q6 3 10 6l10 10q2 3 4 5q1 5 2 8q0 4 1 9q0 5 1 15q0 8 -2 21q-1 14 -3 20l-2 4q-2 2 -6 5q-10 7 -17 10q-8 3 -19 4q-15 2 -23 3q-2 1 -9 0q-4 -1 -6 -1q-7 -3 -15 -6
q-5 -2 -15 -9q-11 -7 -18 -13q-8 -7 -18 -18q-8 -10 -11 -14q-4 -7 -12 -20q-4 -8 -6 -13zM136 213q0 -5 1 -8q1 -8 2 -15q1 -4 5 -15q4 -12 7 -18q1 -3 7 -12q4 -6 8 -10q8 -7 17 -13q10 -8 28 -21q18 -12 23 -15q6 -4 12 -7q3 -2 10 -5q6 -2 10 -3t13 -2h6q2 0 6 1
q5 2 14 8q15 8 26 18q14 12 26 23l12 11q15 14 35 13t33 -15.5t12.5 -34.5t-15.5 -33l-12 -12q-13 -11 -28 -24q-18 -16 -40 -29q-25 -14 -39 -18q-11 -3 -21 -4q-11 -1 -27 1q-12 2 -21 3q-10 2 -23 7t-24 11q-9 5 -15 9q-8 5 -28 19q-19 14 -30 22q-12 8 -22 17
q-15 13 -27 32q-10 15 -14 25q-4 9 -9 24q-7 18 -9 30q-2 8 -3 17q-2 11 -3 30q-1 18 -1 27t1 19.5t4 30.5q4 20 8 32q2 8 5 17q4 13 14 32q9 16 15 25q7 12 22 27q13 15 24 25q12 11 29 22q18 12 31 17q8 4 16 7q13 5 31 7t31 1q9 -1 26 -4q21 -3 38 -9q18 -7 39 -21
q24 -17 33 -34q7 -11 12 -27q4 -14 6 -35q3 -21 2 -35v-21q-1 -9 -3 -17q-1 -11 -6 -24q-7 -19 -24 -38q-13 -14 -23 -22q-8 -6 -18 -12q-12 -7 -34 -14q-23 -7 -36 -8q-11 0 -32 1q-19 1 -25 2q-11 0 -30 6q-14 3 -22 5q-10 2 -19 5q-7 2 -17 6z" />
    <glyph glyph-name="ecircumflex" unicode="&#xea;" horiz-adv-x="507" 
d="M92 536q-13 15 -11.5 35t16.5 33l10 9q11 10 26 21q13 11 20 17q9 7 22 16q6 3 10 8q7 8 10 13q19 25 52 26q24 0 54 -20q19 -13 27 -20q6 -5 18 -13q16 -12 29 -26l11 -12q14 -14 13.5 -34t-14.5 -33.5t-34 -13t-34 14.5l-11 11q-8 9 -17 16q-14 10 -21 16q-4 2 -13 9
q-12 -13 -27 -22q-9 -6 -14 -11q-7 -5 -21 -16q-13 -11 -23 -19l-10 -10q-15 -12 -35 -11t-33 16zM153 357q4 -5 13 -15q7 -8 13 -12q9 -7 15 -11t20 -12q13 -8 18 -10q3 -2 13 -5q9 -2 12 -3q5 -1 10 -1h1t3.5 0.5t5.5 0.5t5 1q5 2 14 8q10 6 15 10q6 6 14 17t10 15
q3 6 5 12q2 4 3 9q0 4 -1 10q-1 7 -3 11q-2 2 -8 6q-12 9 -16 11q-3 2 -5 3q-6 1 -22 4q-21 3 -29 4q-9 1 -25 2h-12q-9 -3 -16 -5q-6 -1 -16 -6q-6 -3 -12 -8q-7 -6 -14 -16q-7 -11 -10 -18zM134 244v-16q0 -9 2 -29q1 -19 2 -27q3 -12 4 -23q1 -8 3 -22q2 -9 3 -13
q2 -4 4 -9q4 -5 15 -18q16 -17 24 -25q10 -8 19 -16q6 -4 19 -11q6 -3 11 -4h11.5t18.5 1q9 1 13 2q6 3 16 7t18 8t15 9q8 6 18 15q8 8 19 23l14 20q12 16 31.5 19t35.5 -8.5t19.5 -31.5t-8.5 -35l-14 -20q-17 -23 -31 -37q-14 -13 -27 -22q-14 -10 -28 -17q-13 -7 -26 -12
q-11 -5 -19 -8q-12 -4 -34 -7q-19 -2 -30 -2h-20q-19 1 -45 14q-22 11 -36 22q-11 9 -23 19q-13 11 -32 33q-21 23 -28 36q-6 10 -10 20q-4 12 -8 32q-3 17 -4 27q-1 8 -2 17q-3 14 -4 37q-2 22 -2 35t1 38q2 25 3 37q1 7 2 17q2 8 4 19q4 23 9 36q4 12 9 25q7 14 19 32
q13 19 29 33q16 15 36 24q15 7 28 11q11 4 22 6q18 4 41 2q17 -1 28 -2t34 -5q25 -3 36 -7q11 -3 22 -9q9 -5 27 -18q23 -17 34 -35q10 -18 15 -44q4 -27 0 -45q-3 -13 -7 -24q-3 -10 -8 -20q-6 -12 -19 -30q-13 -17 -25 -29q-13 -12 -32 -24q-18 -11 -28 -15q-12 -4 -30 -7
q-16 -1 -27 -1l-18 2q-10 2 -27 7q-15 5 -25 9q-9 4 -26 15q-16 9 -23 14q-3 2 -8 5z" />
    <glyph glyph-name="edieresis" unicode="&#xeb;" horiz-adv-x="476" 
d="M300 625q14 14 34 14t34 -14l3 -3q14 -14 14 -34t-14 -34t-34 -14t-34 14l-3 3q-14 14 -14 34t14 34zM90 641q14 14 34 14t34 -14l3 -3q14 -14 14 -34t-14 -34t-34 -14t-34 14l-3 3q-14 14 -14 34t14 34zM173 342q2 -2 4 -3q15 -10 21 -12q10 -4 18 -7l18 -6q4 -1 7 -2
l14 -2q6 0 13 -1q5 0 15 2q14 3 22 6q6 3 9 5t7 7q6 7 9 13q4 9 7 17v2q0 2 -1 7q-1 4 -6 11t-8 9q-5 4 -11 7q-8 3 -11 4q-5 2 -9 2q-4 1 -14 1q-9 1 -14 1q-5 -1 -12 -2q-8 -2 -14 -4q-5 -2 -9 -4q-6 -3 -19 -11q-7 -4 -10 -7q-7 -8 -17 -22q-5 -6 -9 -11zM136 251
q-2 -15 -2 -20q0 -7 1 -15q0 -8 2 -21q2 -11 4 -15q2 -6 5 -11q2 -5 11 -17q7 -11 22 -23q17 -16 23 -19q3 -3 8 -5q8 -5 21 -12l14 -7q4 -1 12 -2q9 -1 13 -1q5 0 11 1q2 0 9 3q8 2 24 11q18 10 27 16q7 5 9 7l5 6q14 15 34 16t34.5 -12.5t15.5 -33.5t-13 -34l-5 -6
q-9 -10 -24 -21q-14 -10 -37 -22q-24 -13 -39 -18q-17 -6 -29 -7q-10 -2 -18 -2q-11 0 -30 2q-19 3 -30 7q-10 3 -27 12l-22 11q-11 6 -20 13q-9 6 -29 24q-24 21 -38 41q-12 18 -18 28q-5 10 -9 21q-5 12 -8 33q-3 18 -4 30q-1 11 -1 21q0 13 3 35q3 19 5 30q3 12 12 34
q9 21 15 32l12 22q7 11 21 29l20 25q13 14 33 27q16 10 25 14q11 6 23 10q11 4 23 6q13 3 24 4q13 1 29 0q14 -1 22.5 -2t17.5 -4q11 -2 27 -9q17 -8 31 -19q15 -12 28 -31q14 -19 19 -38q6 -19 5 -35q0 -18 -6 -35q-4 -11 -10 -24q-8 -16 -21 -32t-24 -24.5t-29 -15.5
q-18 -8 -42 -12q-26 -5 -41 -4q-9 1 -17 2l-16 2q-13 2 -25 7q-8 3 -16 5q-9 3 -20 7q-12 4 -30 15z" />
    <glyph glyph-name="igrave" unicode="&#xec;" horiz-adv-x="246" 
d="M128 501q19 6 37 -3t24 -28l2 -6q3 -10 5 -25q4 -18 1 -39q-2 -13 -3 -21q-1 -7 -2 -20q-1 -14 -2 -21v-6q1 -12 0 -25l-2 -18q-1 -6 -2 -20q-1 -15 -1 -24q-1 -7 -1 -15t1 -21q1 -12 3 -20q2 -14 3 -36q1 -17 2 -23q2 -12 2 -22q0 -7 -1 -15t-1 -20q-1 -11 -1 -18
q0 -10 -1 -23v-11q-1 -20 -16 -33.5t-34.5 -12t-33 16.5t-12.5 34l1 12v17q0 9 1 23q1 13 1 21q1 5 1 10q0 2 -1 7q-2 11 -3 33q0 15 -2 22q-2 13 -3 30q-2 16 -2 29q0 12 1 22q1 8 1 23q2 17 3 26q1 7 1 15q1 4 0 7q-1 13 0 25q1 8 3 21q1 14 2 23q1 7 3 20q1 6 0 11
q-2 8 -3 11l-2 6q-6 19 3 37t28 24zM80.5 706q19.5 2 35.5 -10.5t18 -31.5v-2q1 -1 1 -2q7 -9 14 -17q8 -7 16 -13q14 -11 24 -21l6 -7q14 -14 13.5 -34t-15 -33.5t-34.5 -13t-33 14.5l-7 7q-4 4 -12 10q-14 10 -27 24q-12 12 -22 26q-17 23 -19 43l-1 7q-2 20 10.5 35.5
t32 17.5z" />
    <glyph glyph-name="iacute" unicode="&#xed;" horiz-adv-x="247" 
d="M57 534.5q-15 12.5 -17 32.5t10 35l6 7q8 10 18.5 20t22.5 20q7 6 13 12q3 3 5 7l5 8q11 17 30.5 21.5t36 -5.5t21.5 -29.5t-6 -36.5l-5 -8q-8 -14 -19 -25q-9 -9 -21 -19q-8 -6 -15 -13t-11 -12l-6 -8q-13 -15 -33 -17t-35 10.5zM138 90v-11q0 -13 -1 -22q0 -7 -1 -14
l-1 -7q-3 -20 -19 -32t-35 -9.5t-31.5 18t-9.5 35.5v7q1 5 2 11v13q0 12 1 24v14v23q-1 22 1 33q1 4 1 7v62v20v22q-2 18 -2 28v17v15q-1 10 -1 21q0 7 -1 23q0 16 -1 26q-1 11 -1 18l-1 7q-1 20 11.5 35t32.5 17t35 -11t17 -33v-7q1 -7 2 -19q1 -13 1 -29q1 -18 1 -27
q0 -7 1 -14v-22v-17q0 -7 1 -22q1 -19 1 -31v-17v-62q0 -10 -2 -22v-15v-26t-1 -27z" />
    <glyph glyph-name="icircumflex" unicode="&#xee;" horiz-adv-x="379" 
d="M154 201q0 10 -1 14q0 8 -1 25v26v24v25q0 8 1 17q0 5 -2 19q-2 20 -2 32q-1 9 -2 25q-1 17 -2 27q-2 15 -2 25v7q0 20 14.5 34t34 14t33.5 -14t14 -34v-7q0 -4 1 -11q2 -17 3 -35t2 -29q0 -7 2 -23q2 -21 2 -34q-1 -9 -1 -17v-21v-24v-22q1 -16 1 -24q1 -10 1 -21
q0 -10 1 -19q0 -8 2 -23q1 -19 1 -30q0 -6 1 -12v-15q1 -9 1 -19v-18q0 -7 1 -20t2 -19v-7q3 -20 -9.5 -35.5t-32 -18t-35.5 10t-18 31.5l-1 7q-1 8 -2 23q-1 17 -1 28v18q0 8 -1 15v15q-1 7 -1 16q0 6 -1 20q-2 18 -2 29q-1 10 -1 25zM229 688q13 -8 26 -18q12 -10 20 -18
q6 -6 22 -21q16 -14 22 -19l6 -6q15 -13 16.5 -33t-11 -35t-32.5 -16.5t-35 11.5l-7 6q-7 6 -24 22q-17 15 -23 22q-3 2 -7 5q-4 -4 -9 -7q-8 -7 -20 -17q-9 -7 -23 -20q-14 -12 -19 -19l-8 -10q-13 -15 -33 -16.5t-35 11t-17 32.5t11 35l8 9q10 12 28 29q17 15 29 25
q10 8 18 14q7 7 14 13q6 5 10 10q13 14 35.5 17t37.5 -6z" />
    <glyph glyph-name="idieresis" unicode="&#xef;" horiz-adv-x="372" 
d="M249.5 635.5q13.5 13.5 34 13.5t34.5 -14l3 -3q13 -13 13 -33.5t-13.5 -34t-33.5 -13.5t-34 14l-3 3q-14 13 -14 33.5t13.5 34zM52 650.5q14 13.5 34 13.5t34 -14l3 -3q14 -14 14 -34t-14 -33.5t-34 -13.5t-34 13l-3 4q-14 13 -14 33.5t14 34zM235 495q19 -5 29.5 -22
t6.5 -36l-2 -8q-1 -3 -1 -5q0 -10 -1 -22v-26v-29v-18q1 -10 1 -23q0 -10 1 -31q2 -21 2 -31q1 -11 1 -21v-65v-11q1 -11 1 -23q-1 -5 -1 -15v-19q0 -5 1 -16v-22v-6q0 -19 -14 -33.5t-33.5 -14.5t-34 14.5t-14.5 33.5v6v16q-1 14 -1 22v19q0 14 1 23v7q-1 10 -1 19v65v15
q-1 10 -2 31q-2 22 -2 34q0 11 -1 21v23v29v32q1 9 1 16q0 14 3 28l2 8q5 19 22 29.5t36 5.5z" />
    </font>
</defs>
</svg>
